<svg display="none" xmlns="http://www.w3.org/2000/svg">
    <symbol id="call" viewBox="0 0 30 30">
       <g>
	        <path d="M23.7094 18.5839C23.0952 17.9444 22.3544 17.6025 21.5692 17.6025C20.7904 17.6025 20.0433 17.9381 19.4038 18.5776L17.403 20.5721C17.2384 20.4834 17.0737 20.4011 16.9154 20.3188C16.6875 20.2048 16.4722 20.0972 16.2886 19.9832C14.4144 18.7929 12.7112 17.2416 11.0776 15.2345C10.2861 14.234 9.75429 13.3919 9.36805 12.5371C9.88725 12.0623 10.3685 11.5684 10.837 11.0935C11.0143 10.9162 11.1916 10.7326 11.3689 10.5553C12.6985 9.22567 12.6985 7.50344 11.3689 6.17379L9.64032 4.44523C9.44403 4.24895 9.24142 4.04633 9.05147 3.84372C8.67156 3.45115 8.27267 3.04592 7.86111 2.66602C7.24693 2.05818 6.51245 1.73526 5.73998 1.73526C4.96752 1.73526 4.22038 2.05818 3.58721 2.66602C3.58087 2.67235 3.58087 2.67235 3.57454 2.67868L1.42176 4.85046C0.611304 5.66092 0.14909 6.64866 0.0477825 7.7947C-0.104178 9.64356 0.440348 11.3658 0.858241 12.4928C1.88398 15.2598 3.41625 17.8241 5.70199 20.5721C8.47528 23.8836 11.8121 26.4986 15.6238 28.3411C17.0801 29.0312 19.0239 29.848 21.1957 29.9873C21.3286 29.9937 21.4679 30 21.5946 30C23.0572 30 24.2855 29.4745 25.248 28.4297C25.2543 28.4171 25.267 28.4107 25.2733 28.3981C25.6025 27.9992 25.9824 27.6383 26.3813 27.252C26.6536 26.9924 26.9322 26.7202 27.2045 26.4352C27.8313 25.7831 28.1606 25.0233 28.1606 24.2445C28.1606 23.4593 27.825 22.7059 27.1855 22.0727L23.7094 18.5839ZM25.9761 25.2512C25.9698 25.2512 25.9698 25.2575 25.9761 25.2512C25.7292 25.5171 25.4759 25.7577 25.2036 26.0237C24.7921 26.4162 24.3742 26.8278 23.9816 27.29C23.3421 27.9738 22.5887 28.2968 21.6009 28.2968C21.5059 28.2968 21.4046 28.2968 21.3096 28.2904C19.4291 28.1701 17.6816 27.4357 16.3709 26.8088C12.7872 25.0739 9.64032 22.6109 7.02532 19.4894C4.86621 16.887 3.42258 14.481 2.46649 11.8976C1.87765 10.3211 1.66237 9.0927 1.75734 7.934C1.82066 7.19319 2.10559 6.57901 2.63112 6.05348L4.79023 3.89437C5.10048 3.60311 5.42973 3.44482 5.75265 3.44482C6.15155 3.44482 6.47446 3.68543 6.67708 3.88804C6.68341 3.89437 6.68974 3.9007 6.69607 3.90704C7.08231 4.26794 7.44954 4.64151 7.83578 5.04041C8.03206 5.24303 8.23468 5.44564 8.43729 5.65459L10.1658 7.38314C10.837 8.0543 10.837 8.67481 10.1658 9.34597C9.98223 9.52959 9.80494 9.71321 9.62132 9.8905C9.08946 10.435 8.58292 10.9416 8.03206 11.4354C8.0194 11.4481 8.00674 11.4544 8.0004 11.4671C7.45588 12.0116 7.55718 12.5435 7.67115 12.9044C7.67749 12.9234 7.68382 12.9424 7.69015 12.9614C8.1397 14.0504 8.77287 15.0762 9.73529 16.2982L9.74162 16.3045C11.4892 18.4573 13.3317 20.1352 15.3642 21.4205C15.6238 21.5852 15.8897 21.7181 16.143 21.8448C16.3709 21.9587 16.5862 22.0664 16.7698 22.1803C16.7951 22.193 16.8205 22.212 16.8458 22.2247C17.0611 22.3323 17.2637 22.383 17.4726 22.383C17.9982 22.383 18.3274 22.0537 18.4351 21.9461L20.6005 19.7806C20.8158 19.5653 21.1577 19.3057 21.5566 19.3057C21.9491 19.3057 22.2721 19.5527 22.4683 19.768C22.4747 19.7743 22.4747 19.7743 22.481 19.7806L25.9698 23.2694C26.6219 23.9152 26.6219 24.5801 25.9761 25.2512Z"/>
            <path d="M16.2126 7.1362C17.8715 7.41479 19.3785 8.19992 20.5815 9.40295C21.7845 10.606 22.5633 12.1129 22.8482 13.7718C22.9179 14.1897 23.2788 14.481 23.6904 14.481C23.741 14.481 23.7853 14.4746 23.836 14.4683C24.3045 14.3923 24.6148 13.9491 24.5388 13.4806C24.1969 11.4734 23.2471 9.64355 21.7972 8.19359C20.3472 6.74363 18.5174 5.79388 16.5102 5.45197C16.0417 5.37598 15.6048 5.68624 15.5225 6.14845C15.4402 6.61067 15.7441 7.06022 16.2126 7.1362Z"/>
            <path d="M29.9649 13.2338C29.4014 9.92867 27.8438 6.9211 25.4504 4.52772C23.057 2.13434 20.0495 0.576736 16.7443 0.0132147C16.2821 -0.0690975 15.8452 0.247488 15.7629 0.709702C15.6869 1.17825 15.9972 1.61514 16.4657 1.69745C19.4163 2.19765 22.1073 3.59696 24.2474 5.73074C26.3875 7.87086 27.7805 10.5618 28.2807 13.5124C28.3503 13.9303 28.7112 14.2216 29.1228 14.2216C29.1735 14.2216 29.2178 14.2152 29.2684 14.2089C29.7306 14.1392 30.0472 13.696 29.9649 13.2338Z"/>
        </g>
    </symbol>
</svg>