<svg width="98" height="97" viewBox="0 0 98 97" fill="none" xmlns="http://www.w3.org/2000/svg">
<path d="M83.3758 82.4286L81.3828 73.6072" stroke="white" stroke-width="2" stroke-linecap="round" stroke-linejoin="round"/>
<path d="M83.3789 82.4286H92.6796" stroke="white" stroke-width="2" stroke-linecap="round" stroke-linejoin="round"/>
<path d="M13.623 15.9286L15.616 24.75" stroke="white" stroke-width="2" stroke-linecap="round" stroke-linejoin="round"/>
<path d="M13.6227 15.9286L4.98633 16.6072" stroke="white" stroke-width="2" stroke-linecap="round" stroke-linejoin="round"/>
<path d="M88.1586 22.7144C94.0059 31.7011 96.7079 42.365 95.8433 53.0437C94.9787 63.7224 90.5962 73.8157 83.3789 81.7501" stroke="white" stroke-width="2" stroke-linecap="round" stroke-linejoin="round"/>
<path d="M22.9219 8.73753C30.8564 3.50318 40.1142 0.814194 49.5268 1.00998C58.9394 1.20576 68.0848 4.27755 75.8089 9.83761C77.5296 11.0771 79.1698 12.4318 80.7189 13.8929" stroke="white" stroke-width="2" stroke-linecap="round" stroke-linejoin="round"/>
<path d="M10.3882 78.3572C3.77337 69.29 0.477163 58.1621 1.0675 46.8905C1.65784 35.6189 6.09776 24.9094 13.6223 16.6072" stroke="white" stroke-width="2" stroke-linecap="round" stroke-linejoin="round"/>
<path d="M80.7203 13.8928L72.084 15.9285" stroke="white" stroke-width="2" stroke-linecap="round" stroke-linejoin="round"/>
<path d="M80.7188 13.8928V4.39282" stroke="white" stroke-width="2" stroke-linecap="round" stroke-linejoin="round"/>
<path d="M16.2812 85.8215L24.9176 83.1072" stroke="white" stroke-width="2" stroke-linecap="round" stroke-linejoin="round"/>
<path d="M16.2812 85.8214L17.6099 94.6428" stroke="white" stroke-width="2" stroke-linecap="round" stroke-linejoin="round"/>
<path d="M74.7424 86.394C66.3963 92.7246 56.2014 96.1012 45.7469 95.9977C35.2924 95.8941 25.1656 92.3161 16.9453 85.8214" stroke="white" stroke-width="2" stroke-linecap="round" stroke-linejoin="round"/>
<path d="M64.1107 44.2448C64.111 42.1198 63.6947 40.0157 62.8858 38.054C62.077 36.0922 60.8915 34.3116 59.3979 32.8147C57.9043 31.3179 56.132 30.1345 54.1833 29.3327C52.2346 28.531 50.148 28.1267 48.0438 28.1433C39.3014 28.2103 32.1985 35.4666 32.2227 44.2954C32.2277 46.5664 32.7097 48.8104 33.6367 50.8795C34.5636 52.9485 35.9146 54.7955 37.6004 56.2984C38.6976 57.2788 39.5761 58.4833 40.1779 59.8321C40.7797 61.181 41.091 62.6435 41.0913 64.123C41.0913 64.3884 41.1431 64.6512 41.2437 64.8963C41.3443 65.1415 41.4918 65.3642 41.6776 65.5518C41.8635 65.7394 42.0842 65.8881 42.3271 65.9896C42.5699 66.091 42.8302 66.143 43.093 66.1428H53.2421C53.7727 66.1428 54.2816 65.9301 54.6569 65.5513C55.0322 65.1726 55.2433 64.6588 55.2437 64.123V64.123C55.2438 62.6437 55.5549 61.1812 56.1564 59.8323C56.7579 58.4835 57.6361 57.2789 58.733 56.2984C60.4254 54.79 61.7802 52.9349 62.7075 50.8566C63.6347 48.7782 64.1131 46.5243 64.1107 44.2448V44.2448Z" stroke="white" stroke-width="2" stroke-linecap="round" stroke-linejoin="round"/>
<path d="M42.8535 71.5714H54.1472" stroke="white" stroke-width="2" stroke-linecap="round" stroke-linejoin="round"/>
<path d="M54.1475 66.1428V73.0151C54.1475 74.0719 53.7499 75.0855 53.0423 75.8328C52.3347 76.5801 51.375 77 50.3742 77H45.9627C44.962 77 44.0022 76.5801 43.2946 75.8328C42.587 75.0855 42.1895 74.0719 42.1895 73.0151V66.1428" stroke="white" stroke-width="2" stroke-linecap="round" stroke-linejoin="round"/>
<path d="M68.7617 44.4286H74.0764" stroke="white" stroke-width="2" stroke-linecap="round" stroke-linejoin="round"/>
<path d="M21.5938 45.1072H26.9084" stroke="white" stroke-width="2" stroke-linecap="round" stroke-linejoin="round"/>
<path d="M63.4492 60.0358L66.7709 63.4286" stroke="white" stroke-width="2" stroke-linecap="round" stroke-linejoin="round"/>
<path d="M29.5664 25.4286L32.8881 28.8214" stroke="white" stroke-width="2" stroke-linecap="round" stroke-linejoin="round"/>
<path d="M63.4492 28.8214L66.7709 25.4286" stroke="white" stroke-width="2" stroke-linecap="round" stroke-linejoin="round"/>
<path d="M29.5664 63.4286L32.8881 60.0358" stroke="white" stroke-width="2" stroke-linecap="round" stroke-linejoin="round"/>
<path d="M48.168 22.7142V17.9642" stroke="white" stroke-width="2" stroke-linecap="round" stroke-linejoin="round"/>
</svg>
