<svg width="284" height="309" viewBox="0 0 284 309" fill="none" xmlns="http://www.w3.org/2000/svg">
<g clip-path="url(#clip0_11_12123)">
<path d="M179.121 322.085C161.268 316.881 110.219 320.079 72.166 318.224C72.166 318.224 93.0877 271.061 100.443 240.504C100.443 240.504 101.059 240.504 102.142 240.504C109.088 240.6 116.022 239.896 122.808 238.407C131.036 236.552 139.91 233.098 146.437 226.719C146.437 226.779 184.671 323.698 179.121 322.085Z" fill="#252B31"/>
<path d="M154.875 159.843C135.728 182.014 124.072 209.947 122.808 238.468C116.022 239.956 109.088 240.66 102.142 240.564C111.167 207.081 91.7942 178.591 91.2978 177.867C75.0688 167.701 72.6624 143.886 75.0689 126.496C77.5792 109.48 85.3552 93.6851 97.2992 81.3393C98.2348 81.0588 99.1044 80.592 99.8561 79.9668C101.225 78.8809 102.503 77.6442 103.782 76.4225C108.187 72.1636 113.677 69.2046 119.65 67.8708C125.115 66.7157 130.72 66.3702 136.285 66.8452C150.589 67.7501 158.696 72.486 168.292 83.8883C190.597 110.343 171.21 136.39 171.074 137.189C185.077 135.138 169.946 155.635 154.875 159.843Z" fill="white"/>
<path d="M103.406 241.695H102.143C101.973 241.688 101.808 241.643 101.657 241.565C101.506 241.487 101.374 241.377 101.27 241.243C101.168 241.107 101.098 240.949 101.067 240.782C101.035 240.614 101.043 240.442 101.09 240.278C109.603 208.755 92.2758 181.351 90.5611 178.681C74.4224 168.41 71.4593 144.942 74.0163 126.345C76.5892 109.096 84.4778 93.0849 96.5774 80.5552C96.7446 80.3842 96.9597 80.2685 97.1942 80.2233C97.967 79.9975 98.6842 79.6122 99.2998 79.0922C100.638 78.0213 101.917 76.7845 103.165 75.593C107.713 71.1958 113.38 68.1381 119.545 66.7548C125.119 65.5803 130.835 65.2297 136.511 65.7141C150.619 66.6039 159.192 71.1588 169.3 83.1493C186.897 104.023 179.693 124.762 173.24 135.938C176.564 136.028 177.482 137.778 177.753 138.954C178.971 144.746 167.344 157.385 155.552 160.854C136.421 183.115 125.215 210.701 123.967 238.528C123.956 238.774 123.865 239.009 123.707 239.197C123.549 239.385 123.334 239.516 123.094 239.569C116.628 240.99 110.026 241.703 103.406 241.695ZM97.9312 82.3349C86.2816 94.4939 78.6915 109.985 76.2123 126.662C73.6854 144.64 76.483 167.279 91.8847 176.901C91.9565 176.948 92.0222 177.004 92.0803 177.067L92.2306 177.248C94.2611 180.265 111.618 207.187 103.587 239.463C109.671 239.436 115.737 238.799 121.696 237.563C123.2 209.404 134.601 181.577 154.003 159.134C154.144 158.967 154.333 158.846 154.545 158.788C165.419 155.771 176.384 143.705 175.481 139.422C175.181 138.034 173.045 138.049 171.3 138.306C171.125 138.328 170.947 138.309 170.78 138.251C170.614 138.194 170.462 138.099 170.337 137.974C170.215 137.845 170.126 137.689 170.076 137.518C170.026 137.348 170.018 137.168 170.052 136.993C170.167 136.586 170.356 136.202 170.608 135.862C176.88 125.531 184.807 105.124 167.6 84.5822C157.824 72.9838 149.942 68.7909 136.375 67.9915C130.911 67.5219 125.408 67.8572 120.041 68.9869C114.269 70.2811 108.962 73.1402 104.7 77.2521C103.436 78.4738 102.112 79.7558 100.699 80.8719C99.8811 81.5374 98.9407 82.0345 97.9312 82.3349Z" fill="black"/>
<path d="M110.189 185.559H110.009C103.186 184.659 96.6195 182.37 90.7115 178.832C90.4602 178.676 90.2809 178.426 90.2132 178.138C90.1455 177.849 90.1949 177.546 90.3505 177.294C90.506 177.042 90.7551 176.862 91.0428 176.794C91.3305 176.726 91.6333 176.776 91.8847 176.932C97.5379 180.304 103.817 182.485 110.34 183.342C110.635 183.386 110.9 183.546 111.077 183.787C111.255 184.027 111.33 184.328 111.287 184.624C111.245 184.885 111.111 185.122 110.91 185.293C110.708 185.465 110.453 185.559 110.189 185.559Z" fill="black"/>
<path d="M97.3442 82.4555C97.1259 82.4526 96.9133 82.3863 96.7319 82.2647C96.5504 82.143 96.4081 81.9712 96.3221 81.77C96.2362 81.5689 96.2103 81.347 96.2475 81.1314C96.2848 80.9157 96.3836 80.7155 96.532 80.5551C97.8706 79.1374 99.3596 77.7045 100.924 76.2868C101.033 76.1878 101.16 76.1112 101.298 76.0614C101.436 76.0116 101.582 75.9895 101.729 75.9965C101.876 76.0035 102.02 76.0394 102.152 76.1021C102.285 76.1649 102.404 76.2533 102.503 76.3622C102.602 76.4711 102.678 76.5985 102.728 76.737C102.778 76.8756 102.8 77.0226 102.793 77.1696C102.786 77.3167 102.75 77.461 102.687 77.5941C102.625 77.7273 102.537 77.8468 102.428 77.9458C100.924 79.3183 99.4198 80.721 98.1563 82.1086C98.0517 82.2189 97.9257 82.3066 97.786 82.3662C97.6463 82.4259 97.496 82.4563 97.3442 82.4555Z" fill="black"/>
<path d="M101.661 243.37C101.556 243.384 101.45 243.384 101.345 243.37C101.06 243.282 100.822 243.086 100.681 242.823C100.54 242.561 100.508 242.253 100.593 241.967C100.773 241.424 100.924 240.866 101.074 240.323C101.152 240.037 101.34 239.794 101.596 239.646C101.853 239.499 102.158 239.461 102.443 239.539C102.728 239.617 102.971 239.805 103.117 240.062C103.264 240.32 103.303 240.625 103.225 240.911C103.074 241.474 102.909 242.047 102.729 242.63C102.652 242.851 102.507 243.042 102.315 243.175C102.123 243.308 101.894 243.376 101.661 243.37Z" fill="black"/>
<path d="M251.242 141.247C249.234 153.59 244.884 165.432 238.427 176.132C232.77 185.475 228.074 195.37 224.409 205.664C221.306 213.961 219.476 222.682 218.979 231.53C218.784 237.11 218.333 242.706 218.468 248.302C218.814 261.876 221.476 274.907 219.731 288.647C218.543 298.119 215.219 316.73 204.54 320.139C198.049 322.351 191.183 323.238 184.345 322.745C177.507 322.253 170.836 320.393 164.727 317.273C163.735 316.806 162.742 316.293 161.719 315.765C150.123 309.461 137.353 300.683 131.923 288.33C125.097 272.64 121.967 255.582 122.779 238.483C124.042 209.962 135.699 182.029 154.845 159.858C169.886 155.65 185.047 135.153 171.15 137.235C171.285 136.435 190.703 110.388 168.367 83.9335C158.771 72.5313 150.664 67.7954 136.36 66.8905C130.795 66.4154 125.191 66.761 119.725 67.9161C113.753 69.2499 108.262 72.2088 103.857 76.4678C102.579 77.6895 101.3 78.9262 99.9317 80.0121C99.18 80.6373 98.3104 81.1041 97.3747 81.3846C96.9159 81.5763 96.413 81.6361 95.9222 81.5573C95.4315 81.4786 94.9722 81.2644 94.596 80.9388C94.2197 80.6131 93.9413 80.1889 93.7919 79.7136C93.6424 79.2383 93.6279 78.7306 93.7498 78.2475C94.1119 75.416 95.0159 72.6813 96.4121 70.1935C100.462 62.0654 106.262 54.9409 113.393 49.3345C120.941 43.3577 129.057 38.1392 137.624 33.7544C171.165 16.6058 216.061 27.0729 236.712 59.0325C252.46 83.4057 255.889 112.967 251.242 141.247Z" fill="white"/>
<path d="M187.785 324.015C179.599 323.94 171.54 321.979 164.231 318.284C163.238 317.801 162.23 317.288 161.223 316.776C151.04 311.24 136.842 302.312 130.931 288.798C124.015 272.946 120.854 255.704 121.695 238.423C122.944 209.977 134.435 181.818 154.033 159.119C154.174 158.951 154.363 158.83 154.575 158.772C165.449 155.756 176.414 143.69 175.511 139.407C175.211 138.019 173.075 138.034 171.33 138.29C171.155 138.312 170.977 138.294 170.81 138.236C170.644 138.179 170.492 138.084 170.367 137.959C170.245 137.83 170.156 137.674 170.106 137.503C170.056 137.333 170.048 137.153 170.082 136.978C170.197 136.57 170.386 136.187 170.638 135.847C176.91 125.516 184.837 105.109 167.63 84.567C157.853 72.9687 149.972 68.7757 136.405 67.9764C130.941 67.5067 125.438 67.8421 120.071 68.9718C114.299 70.266 108.992 73.125 104.729 77.2369C103.466 78.4586 102.142 79.7407 100.729 80.8568C99.8445 81.5687 98.8189 82.0829 97.7205 82.365H97.6152C96.9921 82.5649 96.33 82.6103 95.6856 82.4974C95.0412 82.3844 94.4337 82.1164 93.9152 81.7164C93.4201 81.2565 93.0447 80.6821 92.8218 80.0432C92.599 79.4044 92.5354 78.7205 92.6367 78.0514C93.0162 75.0785 93.9608 72.2063 95.4193 69.5902C99.5483 61.3462 105.439 54.1161 112.671 48.4145C120.278 42.395 128.454 37.1364 137.082 32.7137C171.887 14.9165 216.979 26.4395 237.615 58.3538C256.31 87.2969 255.949 119.498 252.34 141.413C250.321 153.903 245.919 165.886 239.374 176.705C233.77 185.982 229.109 195.8 225.462 206.01C222.388 214.204 220.577 222.819 220.092 231.56C220.092 233.234 219.957 234.908 219.867 236.598C219.686 240.428 219.491 244.38 219.596 248.256C219.701 252.962 220.107 257.698 220.498 262.253C221.235 270.835 222.002 279.703 220.844 288.783C218.438 307.696 213.068 318.601 204.871 321.195C199.355 323.014 193.591 323.966 187.785 324.015ZM155.492 160.839C136.36 183.1 125.155 210.686 123.906 238.513C123.085 255.445 126.173 272.339 132.931 287.878C138.556 300.758 152.349 309.4 162.245 314.77C163.223 315.298 164.201 315.795 165.163 316.278C171.146 319.338 177.681 321.164 184.38 321.646C191.079 322.127 197.807 321.256 204.164 319.083C209.173 317.484 215.745 310.893 218.588 288.511C219.716 279.673 218.994 271.317 218.227 262.464C217.836 257.864 217.43 253.113 217.31 248.317C217.204 244.38 217.4 240.368 217.595 236.507C217.671 234.833 217.761 233.159 217.821 231.485C218.308 222.522 220.159 213.687 223.311 205.287C227.002 194.926 231.728 184.966 237.419 175.559C243.81 164.982 248.115 153.272 250.099 141.066C253.633 119.543 254.009 87.9304 235.705 59.6207C215.67 28.6113 171.871 17.39 138.045 34.7348C129.54 39.0896 121.48 44.2673 113.98 50.1942C106.981 55.7106 101.285 62.7099 97.2994 70.6912C95.9626 73.0494 95.099 75.6471 94.7575 78.338C94.6944 78.6481 94.7065 78.969 94.7929 79.2734C94.8793 79.5779 95.0373 79.8571 95.2537 80.0875C95.506 80.2553 95.7943 80.3605 96.095 80.3946C96.3957 80.4287 96.7003 80.3907 96.9835 80.2836H97.0737C97.8466 80.0578 98.5638 79.6725 99.1795 79.1524C100.518 78.0816 101.796 76.8448 103.045 75.6533C107.593 71.2561 113.259 68.1984 119.424 66.815C124.999 65.6405 130.715 65.29 136.39 65.7744C150.499 66.6642 159.072 71.2191 169.179 83.2096C186.777 104.084 179.572 124.822 173.12 135.998C176.444 136.088 177.361 137.838 177.632 139.014C178.85 144.731 167.284 157.37 155.492 160.839Z" fill="black"/>
<path d="M135.428 139.15C129.246 134.339 127.907 126.179 127.907 125.817C127.863 125.499 127.943 125.175 128.131 124.914C128.319 124.652 128.599 124.474 128.915 124.415C136.435 123.118 142.452 124.158 146.708 127.431C146.825 127.513 146.936 127.604 147.039 127.703C148.848 129.304 150.323 131.25 151.376 133.428C152.43 135.605 153.041 137.971 153.176 140.387C153.178 140.666 153.088 140.937 152.919 141.158C152.75 141.38 152.512 141.538 152.243 141.609C145.986 143.238 140.647 142.634 136.405 139.814C136.075 139.648 135.744 139.407 135.428 139.15ZM130.585 126.647C131.201 129.09 133.066 134.716 137.774 137.823C141.188 140.085 145.505 140.658 150.619 139.527C150.168 135.706 148.332 132.185 145.46 129.633C142.016 126.798 136.977 125.757 130.585 126.647Z" fill="black"/>
<path d="M134.901 131.82C134.604 133.061 134.68 134.362 135.12 135.56C135.56 136.757 136.344 137.797 137.373 138.548C138.403 139.299 139.631 139.727 140.902 139.778C142.174 139.829 143.432 139.501 144.518 138.836C145.604 138.17 146.468 137.197 147.003 136.039C147.537 134.88 147.717 133.589 147.52 132.329C147.324 131.068 146.758 129.894 145.896 128.955C145.034 128.016 143.914 127.355 142.677 127.054C141.855 126.854 141.001 126.819 140.164 126.95C139.328 127.082 138.526 127.377 137.803 127.82C137.081 128.262 136.453 128.844 135.955 129.53C135.457 130.217 135.099 130.995 134.901 131.82Z" fill="black"/>
<path d="M97.6301 111.549C91.7642 106.346 91.0122 98.111 90.9821 97.749C90.9528 97.4271 91.0519 97.1067 91.2577 96.858C91.4635 96.6092 91.7592 96.4523 92.08 96.4218C99.6004 95.6073 105.617 97.0251 109.633 100.63L109.948 100.916C111.651 102.632 112.997 104.671 113.906 106.913C114.815 109.156 115.269 111.557 115.243 113.978C115.234 114.256 115.131 114.522 114.95 114.733C114.77 114.945 114.523 115.088 114.25 115.139C107.903 116.361 102.624 115.411 98.5626 112.319C98.2356 112.083 97.9241 111.826 97.6301 111.549ZM93.5992 98.7596C94.0504 101.233 95.5545 106.964 100.067 110.373C103.331 112.846 107.587 113.706 112.761 112.907C112.566 109.061 110.958 105.424 108.249 102.696C105.015 99.6343 100.037 98.3222 93.6142 98.7596H93.5992Z" fill="black"/>
<path d="M97.6301 104.189C97.2505 105.408 97.2399 106.712 97.5996 107.937C97.9593 109.162 98.6732 110.252 99.6509 111.07C100.629 111.888 101.826 112.397 103.092 112.532C104.358 112.668 105.636 112.424 106.764 111.831C107.892 111.238 108.819 110.323 109.428 109.202C110.037 108.081 110.301 106.803 110.186 105.532C110.071 104.26 109.583 103.051 108.783 102.058C107.983 101.065 106.907 100.331 105.692 99.9511C104.062 99.4413 102.298 99.6015 100.786 100.396C99.274 101.191 98.1389 102.555 97.6301 104.189Z" fill="black"/>
<path d="M104.654 144.112C103.843 144.129 103.043 143.925 102.338 143.524C101.752 143.154 101.276 142.632 100.961 142.014C100.646 141.395 100.504 140.703 100.548 140.01C100.548 136.526 103.406 132.469 105.466 129.452L106.083 128.577C108.303 125.299 110.948 122.332 113.949 119.754C116.807 117.311 120.091 115.42 123.636 114.174C124.33 110.748 124.032 107.195 122.778 103.933C118.266 92.4249 102.804 87.3422 102.654 87.3422C102.372 87.2522 102.138 87.0538 102.003 86.7908C101.868 86.5277 101.842 86.2215 101.932 85.9395C102.021 85.6575 102.219 85.4228 102.482 85.287C102.744 85.1513 103.049 85.1256 103.33 85.2156C104.007 85.4267 119.981 90.6301 124.854 103.118C126.136 106.411 126.536 109.984 126.012 113.48C129.264 112.677 132.641 112.518 135.954 113.012C149.25 115.018 160.651 124.822 169.044 133.147C169.18 133.237 169.294 133.355 169.38 133.494C169.465 133.633 169.519 133.788 169.538 133.95C169.557 134.112 169.541 134.277 169.49 134.431C169.438 134.586 169.354 134.728 169.243 134.846C169.131 134.965 168.995 135.058 168.844 135.118C168.693 135.178 168.53 135.204 168.368 135.195C168.205 135.185 168.047 135.14 167.904 135.063C167.761 134.985 167.637 134.877 167.54 134.746C159.327 126.662 148.287 117.145 135.623 115.23C132.253 114.727 128.815 114.964 125.546 115.923C124.787 118.909 123.612 121.773 122.056 124.43C120.137 127.841 118.049 131.153 115.799 134.354L114.807 135.787C112.957 138.487 110.866 141.548 107.783 143.222C106.83 143.777 105.755 144.082 104.654 144.112ZM122.989 116.873C120.233 118.019 117.67 119.586 115.393 121.519C112.529 123.97 110.001 126.79 107.873 129.905L107.256 130.81C105.466 133.374 102.744 137.235 102.744 140.01C102.744 141.171 103.27 141.518 103.451 141.609C103.975 141.814 104.54 141.895 105.101 141.845C105.662 141.795 106.204 141.616 106.685 141.322C109.302 139.904 111.197 137.19 112.942 134.58C113.272 134.083 113.618 133.6 113.949 133.072C116.155 129.934 118.204 126.687 120.086 123.344C121.284 121.299 122.257 119.129 122.989 116.873Z" fill="black"/>
<path d="M88.0491 147.234C88.0491 147.234 86.8157 165.982 102.533 158.456C102.533 158.456 102.383 146.691 88.0491 147.234Z" fill="black"/>
</g>
<defs>
<clipPath id="clip0_11_12123">
<rect width="284" height="324" fill="white"/>
</clipPath>
</defs>
</svg>
