<svg width="203" height="287" viewBox="0 0 203 287" fill="none" xmlns="http://www.w3.org/2000/svg">
<path d="M140.198 281.746C133.936 269.626 145.863 221.748 146.146 216.934C146.387 212.732 146.628 208.493 146.451 204.305C146.36 201.662 146.054 199.03 145.537 196.436C142.821 183.441 136.847 172.287 125.885 164.191C125.342 163.794 124.826 163.362 124.34 162.897C124.201 162.758 124.074 162.624 123.951 162.477C121.603 159.897 121.455 156.7 123.685 153.869C124.747 152.573 125.893 151.348 127.116 150.201C136.28 141.282 142.706 130.741 145.82 118.372C148.439 107.957 148.524 97.366 147.051 86.762C145.977 78.9392 143.506 71.482 140.358 64.2517C138.651 60.3085 136.615 56.5141 134.27 52.9083C125.758 39.8844 113.641 30.8559 97.462 26.4068C96.9163 26.2236 96.3297 26.1974 95.7696 26.3311C93.5529 27.0058 91.4121 27.9054 89.3811 29.0157C87.823 29.9122 86.4528 31.0974 85.3449 32.507C78.9986 40.5524 67.8377 45.7703 60.4084 52.9965C52.6533 60.5336 46.159 69.2133 42.0212 79.2207C40.4558 83.0019 39.1823 86.909 39.0258 91.0767C39.013 91.6623 38.9321 92.2446 38.7846 92.8118C38.3615 94.3872 37.4265 94.8074 35.9626 94.0217C35.0784 93.5512 34.2915 92.8958 33.3988 92.4463C31.8714 91.6606 30.653 92.2992 30.5895 93.9924C30.5382 95.1594 30.6623 96.3276 30.9576 97.4584C32.2978 102.751 34.9892 107.611 38.7719 111.57C40.2229 113.076 41.5066 114.733 42.6008 116.511C50.0302 128.64 58.5806 139.862 69.0393 149.588C70.7931 151.148 72.4411 152.823 73.9724 154.6C74.7297 155.532 75.4744 156.469 76.2021 157.423C77.5686 159.187 78.8717 160.994 80.0944 162.855C81.6725 165.246 80.9406 166.313 78.1271 166.439C75.3136 166.565 72.5635 166.573 69.8389 166.981C61.4195 168.241 53.6771 171.501 46.2309 175.442C43.6924 176.791 41.6743 177.312 39.7704 176.883C38.2346 176.539 36.775 175.577 35.1165 173.942C32.8741 171.686 30.928 169.144 28.7702 166.8C18.3709 155.335 12.7566 139.429 9.94728 124.691C9.08533 120.168 8.52002 115.595 8.25496 110.999C7.33401 95.2972 8.32127 79.5425 11.1954 64.0752C14.7535 45.1444 22.369 26.1001 37.8496 13.6938C60.053 -4.11955 85.9203 -1.82147 111.703 5.766C134.08 12.3494 155.89 25.5749 166.551 46.9887C170.71 55.345 172.898 64.6634 172.97 75.0153C173.033 84.968 171.941 94.883 170.287 104.68C168.227 116.906 167.419 129.984 169.018 142.303C170.981 157.347 180.661 167.968 187.938 180.605C194.711 192.277 199.234 205.099 201.274 218.417C201.868 222.394 202.182 226.407 202.213 230.428C202.31 244.679 198.481 258.934 190.049 270.584C185.937 276.26 181.034 282.07 174.755 285.46C173.591 286.085 172.375 286.609 171.121 287.027H146.375C143.714 286.111 141.506 284.222 140.198 281.746Z" fill="white"/>
<path d="M33.3991 92.4589C34.2918 92.9084 35.0914 93.5638 35.9629 94.0343C37.4268 94.82 38.3618 94.3998 38.7849 92.8244C38.9323 92.2572 39.0133 91.6749 39.0261 91.0893C39.1826 86.9216 40.4561 83.027 42.0257 79.2333C45.3258 71.2509 49.0277 63.4618 55.2471 57.2145C57.6544 54.7904 60.4002 52.7024 63.0826 50.5471C65.8918 48.3037 68.8492 46.2367 71.6457 43.968C75.8766 40.5398 80.0397 37.0107 84.2282 33.5237C84.6328 33.2261 85.0069 32.8898 85.3452 32.5196C87.9937 29.0913 91.8649 27.6629 95.7699 26.3437C96.3299 26.21 96.9166 26.2362 97.4623 26.4193C118.007 32.0574 131.986 45.0561 140.38 64.2642C143.528 71.4946 145.998 78.9686 147.073 86.7746C148.545 97.3659 148.461 107.97 145.842 118.385C142.728 130.753 136.301 141.294 127.137 150.214C125.915 151.361 124.768 152.586 123.706 153.881C121.476 156.713 121.625 159.91 123.973 162.49C114.461 157.272 103.712 154.692 92.8506 155.02C88.904 155.109 84.9721 155.53 81.0974 156.28C79.4474 156.612 77.8058 156.99 76.1981 157.419C75.4704 156.465 74.7258 155.528 73.9685 154.595C72.4372 152.819 70.7892 151.144 69.0353 149.583C58.5767 139.857 50.0262 128.64 42.5969 116.519C41.5026 114.741 40.2189 113.085 38.768 111.579C34.9852 107.62 32.2939 102.759 30.9537 97.4668C30.6583 96.336 30.5343 95.1678 30.5856 94.0007C30.6575 92.3118 31.8717 91.669 33.3991 92.4589Z" fill="white"/>
<path d="M30.8818 91.4212C31.728 90.9296 32.7899 90.9716 33.873 91.5262C34.3792 91.7925 34.8681 92.09 35.3369 92.4169C35.7261 92.6732 36.09 92.9168 36.4665 93.1185C36.9361 93.3706 37.2323 93.4042 37.3423 93.358C37.4523 93.3117 37.63 93.0723 37.7654 92.5429C37.8907 92.0552 37.9589 91.5547 37.9685 91.0515C38.1462 86.4301 39.6227 82.2792 41.0485 78.8384C44.0778 71.5114 47.8686 63.1383 54.4941 56.4793C56.5993 54.4433 58.8214 52.53 61.1492 50.7488L62.4184 49.7363C63.7681 48.6566 65.1685 47.6063 66.5223 46.5896C67.9989 45.4805 69.5262 44.3335 70.9774 43.1572C74.0574 40.6616 77.1586 38.0652 80.1583 35.5571L83.5429 32.717L83.8137 32.4986C84.063 32.3182 84.2914 32.1111 84.4949 31.881C87.2491 28.3267 91.0696 26.8395 95.4146 25.3564C96.1684 25.1555 96.9645 25.1745 97.7077 25.4111C117.923 30.9609 132.591 43.8966 141.315 63.8483C144.89 72.0744 147.107 79.5274 148.084 86.6317C149.713 98.3448 149.303 108.814 146.815 118.637C143.752 130.8 137.363 141.672 127.827 150.961C126.635 152.073 125.52 153.263 124.489 154.524C122.606 156.919 122.682 159.566 124.705 161.788L129.016 166.531L123.41 163.397C114.077 158.269 103.525 155.734 92.8635 156.062C88.9762 156.159 85.104 156.581 81.2879 157.322C79.549 157.675 77.9667 158.045 76.4478 158.448L75.7667 158.629L75.3436 158.07C74.6244 157.129 73.884 156.196 73.1351 155.276C71.6661 153.573 70.086 151.967 68.405 150.47L68.2992 150.365C58.5683 141.319 49.8613 130.43 41.6831 117.087C40.6306 115.372 39.3936 113.776 37.9939 112.327C34.1142 108.306 31.4741 103.542 29.9214 97.7609C29.5934 96.5281 29.4508 95.2539 29.4983 93.9797C29.583 92.7992 30.0568 91.8959 30.8818 91.4212ZM31.9734 97.1979C33.433 102.63 35.9038 107.1 39.5339 110.856C41.0363 112.418 42.3667 114.135 43.5024 115.978C51.579 129.161 60.1676 139.925 69.7589 148.823L69.8689 148.924C71.6195 150.485 73.2633 152.161 74.7894 153.94C75.4071 154.696 76.0149 155.459 76.6128 156.23C77.9625 155.885 79.3671 155.562 80.8944 155.255C84.8266 154.494 88.8163 154.064 92.8211 153.969C102.655 153.678 112.417 155.722 121.295 159.931C120.66 157.717 121.176 155.364 122.856 153.234C123.945 151.898 125.122 150.635 126.38 149.453C135.637 140.458 141.831 129.9 144.801 118.137C147.204 108.575 147.598 98.3659 146.007 86.9216C145.059 80.0022 142.897 72.7298 139.394 64.6844C130.932 45.3376 116.73 32.8053 97.1577 27.4277C96.9046 27.3538 96.643 27.3129 96.3793 27.3058C96.2864 27.3024 96.1935 27.3137 96.1043 27.3394C92.0892 28.6922 88.5734 30.0661 86.1703 33.1708C85.8657 33.5279 85.5223 33.8506 85.1464 34.1329L81.5164 37.1578C78.5125 39.6785 75.4071 42.2749 72.3101 44.7788C70.8293 45.9804 69.2893 47.14 67.7958 48.2575C66.4546 49.2658 65.0669 50.3077 63.7469 51.3664L62.4777 52.3831C60.2129 54.1138 58.0515 55.9739 56.0045 57.954C49.6582 64.3399 45.9605 72.4945 43.0074 79.6366C41.6535 82.9052 40.2489 86.8334 40.0839 91.1313C40.0708 91.7938 39.9785 92.4524 39.8089 93.0933C39.5127 94.2108 38.9627 94.946 38.1885 95.2779C37.4142 95.6098 36.4961 95.5048 35.4765 94.9628C35.0111 94.715 34.588 94.4293 34.1734 94.1562C33.7673 93.8744 33.3434 93.619 32.9042 93.3916C32.765 93.2929 32.6051 93.2269 32.4366 93.1985C32.268 93.1701 32.0952 93.1801 31.9311 93.2277C31.8227 93.3334 31.7395 93.4618 31.6875 93.6036C31.6356 93.7453 31.6161 93.8968 31.6307 94.0469C31.589 95.1083 31.7045 96.1699 31.9734 97.1979Z" fill="#252B31"/>
<path d="M13.5693 211.405C17.6732 195.885 29.5407 184.424 41.2982 174.106C51.7309 164.863 64.2131 158.196 77.7298 154.646C79.3375 154.226 80.9791 153.839 82.6333 153.507C86.5066 152.757 90.4371 152.336 94.3824 152.247C105.235 151.924 115.975 154.504 125.479 159.717C130.777 162.615 135.465 166.498 139.288 171.153C146.434 180 148.283 190.571 147.978 201.532C147.61 214.514 144.2 228.063 142.931 239.973C139.627 270.903 138.929 277.986 144.518 287.027H1.23645C1.81607 280.637 3.02608 267.281 3.08109 266.261C4.0034 247.855 7.71806 233.52 13.5693 211.405Z" fill="#FF354D"/>
<path d="M12.5492 211.132C16.7462 195.272 28.7068 183.752 40.6039 173.32C51.1468 163.954 63.7779 157.207 77.4586 153.633C79.0028 153.213 80.674 152.831 82.4213 152.478C86.3535 151.718 90.3432 151.288 94.348 151.192C105.392 150.854 116.324 153.481 125.99 158.797C131.41 161.758 136.204 165.729 140.109 170.493C146.565 178.475 149.395 188.357 149.031 201.553C148.803 209.581 147.432 217.774 146.104 225.693C145.258 230.735 144.466 235.495 143.988 240.074C140.697 270.903 139.956 277.839 145.782 287.032H143.307C137.841 277.835 138.653 270.151 141.894 239.852C142.393 235.23 143.193 230.42 144.043 225.349C145.355 217.497 146.717 209.384 146.941 201.494C147.293 188.819 144.606 179.383 138.48 171.8C134.74 167.242 130.15 163.443 124.962 160.612C115.629 155.485 105.077 152.952 94.4157 153.276C90.5285 153.374 86.6563 153.795 82.8402 154.537C81.1479 154.881 79.5063 155.263 77.9959 155.663C64.6329 159.156 52.295 165.748 41.9958 174.896C30.3441 185.122 18.6289 196.385 14.5843 211.678C9.05457 232.596 5.06067 247.708 4.13411 266.336C4.07487 267.382 2.86487 280.595 2.28947 287.044H0.174057C0.753693 280.692 1.97217 267.235 2.02716 266.227C2.96642 247.372 6.98993 232.172 12.5492 211.132Z" fill="#252B31"/>
<path d="M118.975 76.0698C125.482 75.5615 130.098 80.0148 130.293 80.2039C130.461 80.3702 130.568 80.5879 130.596 80.8218C130.624 81.0558 130.573 81.2924 130.449 81.4936C127.547 86.1906 123.9 88.9719 119.606 89.7575C118.76 89.9119 117.902 89.9892 117.042 89.9886C111.055 89.9886 106.24 86.3713 106.012 86.2075C105.794 86.0402 105.651 85.7952 105.612 85.5245C105.573 85.2539 105.643 84.9789 105.805 84.758C109.773 79.3636 114.216 76.4437 118.975 76.0698ZM119.238 87.7031C122.69 87.0645 125.694 84.8588 128.173 81.1491C126.811 80.0736 123.388 77.8091 119.119 78.1536C115.256 78.4645 111.576 80.8088 108.161 85.1235C109.993 86.2579 114.474 88.5812 119.238 87.7031Z" fill="#252B31"/>
<path d="M115.862 78.2251C116.804 77.6754 117.889 77.4157 118.981 77.4786C120.072 77.5415 121.119 77.9244 121.991 78.5787C122.863 79.2331 123.52 80.1295 123.879 81.1547C124.238 82.1798 124.283 83.2876 124.007 84.3379C123.732 85.3883 123.15 86.334 122.333 87.0554C121.516 87.7768 120.503 88.2416 119.42 88.3909C118.338 88.5402 117.235 88.3673 116.251 87.8942C115.268 87.421 114.447 86.6688 113.894 85.7327C113.153 84.478 112.944 82.9823 113.313 81.5745C113.682 80.1666 114.598 78.9619 115.862 78.2251Z" fill="#252B31"/>
<path d="M68.0912 86.342C74.5982 85.8336 79.214 90.2912 79.4087 90.4802C79.578 90.6458 79.6857 90.8636 79.7141 91.0979C79.7426 91.3322 79.6901 91.5692 79.5652 91.77C76.6671 96.4628 73.0159 99.244 68.7216 100.034C67.8758 100.188 67.0176 100.266 66.1577 100.265C60.1753 100.265 55.3606 96.6477 55.1279 96.4838C54.9093 96.318 54.7654 96.0732 54.7274 95.8026C54.6894 95.5321 54.7603 95.2575 54.9248 95.0386C58.9018 89.64 63.3315 86.7159 68.0912 86.342ZM68.3535 97.9711C71.8058 97.3367 74.8097 95.131 77.2932 91.4171C75.9394 90.3416 72.5378 88.0771 68.2604 88.4216C64.3892 88.7241 60.6999 91.0684 57.2603 95.3915C59.1134 96.53 63.5896 98.8533 68.3535 97.9711Z" fill="#252B31"/>
<path d="M64.982 88.5056C65.9207 87.9634 67.0001 87.7093 68.0841 87.7753C69.1681 87.8413 70.2081 88.2244 71.0731 88.8765C71.9381 89.5286 72.5893 90.4203 72.9447 91.4394C73.3001 92.4584 73.3437 93.5591 73.0701 94.6027C72.7965 95.6464 72.2178 96.5862 71.4071 97.3038C70.5964 98.0213 69.5899 98.4845 68.5145 98.6349C67.4392 98.7853 66.343 98.6162 65.3642 98.1489C64.3855 97.6816 63.5679 96.937 63.0147 96.0091C62.6449 95.3888 62.4024 94.7021 62.3012 93.9883C62.1999 93.2746 62.242 92.548 62.4249 91.8505C62.6077 91.153 62.9278 90.4983 63.3667 89.9242C63.8056 89.3502 64.3546 88.868 64.982 88.5056Z" fill="#252B31"/>
<path d="M93.045 89.1147C93.1635 88.2745 93.3045 87.4342 93.4681 86.594C98.0628 61.4327 132.426 65.5163 132.772 65.5583L132.502 67.6295C132.176 67.5875 99.7847 63.735 95.5412 86.9553C95.2732 88.4146 95.0645 89.8304 94.915 91.2028C102.209 99.8532 106.046 110.108 106.596 116.116C107.079 121.389 106.436 124.447 104.633 125.472C104.224 125.701 103.762 125.82 103.292 125.817C102.561 125.803 101.85 125.572 101.253 125.153L101.088 125.006C100.627 124.498 90.5954 113.138 92.7277 91.8161C86.0134 84.1573 76.3925 78.0108 63.7338 78.0108C45.6809 78.0108 39.0723 81.5777 39.0131 81.6113L37.9639 79.8006C38.2431 79.6409 44.9997 75.9186 63.7338 75.9186C76.3163 75.906 86.0514 81.6869 93.045 89.1147ZM102.552 123.506C102.746 123.615 103.246 123.851 103.584 123.653C103.834 123.506 105.052 122.473 104.489 116.305C103.999 110.949 100.758 102.021 94.6485 94.1437C93.5569 112.184 101.608 122.38 102.552 123.506Z" fill="#252B31"/>
<path d="M115.134 135.144C115.134 135.144 111.043 144.937 99.6198 138.017C99.6198 138.017 103.961 127.833 115.134 135.144Z" fill="#252B31"/>
<path d="M70.4778 199.389C70.5946 199.316 70.7249 199.266 70.8612 199.243C70.9975 199.219 71.1371 199.223 71.272 199.253C71.4069 199.284 71.5344 199.34 71.6471 199.42C71.7599 199.5 71.8556 199.6 71.929 199.717L76.8579 207.519L82.9968 201.742C83.0953 201.639 83.2138 201.557 83.3453 201.5C83.4768 201.444 83.6184 201.415 83.7615 201.415C83.9047 201.415 84.0463 201.444 84.1778 201.501C84.3092 201.557 84.4278 201.639 84.5262 201.742C84.6247 201.845 84.7009 201.967 84.7503 202.101C84.7996 202.234 84.8211 202.376 84.8134 202.518C84.8057 202.66 84.7689 202.799 84.7054 202.926C84.6418 203.053 84.5528 203.167 84.4438 203.259L77.3698 209.897C77.1745 210.08 76.9155 210.183 76.6463 210.182H76.5152C76.363 210.165 76.2164 210.115 76.0857 210.036C75.9549 209.957 75.843 209.851 75.7579 209.724L70.1436 200.847C70.0682 200.73 70.017 200.599 69.993 200.462C69.969 200.325 69.9727 200.184 70.0038 200.049C70.0349 199.913 70.0928 199.785 70.1742 199.672C70.2555 199.559 70.3587 199.463 70.4778 199.389Z" fill="#252B31"/>
<path d="M76.7349 207.876C76.8734 207.876 77.0105 207.903 77.1384 207.956C77.2662 208.009 77.3823 208.086 77.4798 208.184C77.5774 208.282 77.6545 208.397 77.7067 208.525C77.7589 208.652 77.7853 208.789 77.7841 208.926L77.4457 287.027H75.3303L75.673 208.918C75.6735 208.78 75.7014 208.644 75.7552 208.517C75.8089 208.39 75.8873 208.275 75.986 208.178C76.0847 208.081 76.2016 208.004 76.3301 207.953C76.4587 207.901 76.5962 207.875 76.7349 207.876Z" fill="#252B31"/>
<path d="M59.9389 241.582C60.1886 241.553 60.4424 241.545 60.692 241.528C62.4605 241.498 63.5224 241.994 63.8651 243.015C64.5421 245.04 61.8386 248.149 59.7316 247.758C57.8912 247.422 56.3469 245.906 56.4104 244.532C56.495 242.99 57.8954 241.818 59.9389 241.582ZM60.4043 245.632C60.9712 245.49 61.3436 244.561 61.8005 243.981L61.2759 243.326L58.4666 244.166L58.4031 244.796C59.0801 245.12 59.8501 245.771 60.4043 245.632Z" fill="#252B31"/>
<path d="M45.067 284.557C45.5284 284.074 46.1412 283.761 46.8052 283.668C47.4692 283.576 48.1452 283.71 48.7225 284.049C49.2726 284.353 49.7435 284.781 50.0976 285.298C50.4517 285.815 50.6791 286.408 50.7617 287.027H44.737C44.5307 286.632 44.4516 286.183 44.5107 285.741C44.5697 285.299 44.7639 284.886 45.067 284.557Z" fill="#252B31"/>
<path d="M46.1124 203.624C46.9999 203.651 47.8421 204.02 48.4617 204.651C49.0812 205.283 49.4296 206.129 49.4336 207.01C49.3617 208.577 48.2574 209.581 46.6158 209.56C44.6866 209.539 42.9096 208.09 42.8969 206.519C42.8842 205.04 44.4751 203.603 46.1124 203.624ZM46.4001 208.245C46.8824 207.628 47.4493 207.099 47.3689 206.985C46.961 206.425 46.4975 205.907 45.9854 205.439C45.6174 205.809 44.8728 206.355 44.9489 206.519C45.2281 207.103 45.7824 207.556 46.4001 208.254V208.245Z" fill="#252B31"/>
<path d="M98.0794 237.091C99.4756 237.117 100.44 238.352 100.449 240.078C100.457 241.805 99.2598 243.129 97.7663 243.124C96.1798 243.124 94.5932 241.608 94.6271 240.129C94.6609 238.65 96.4294 237.062 98.0794 237.091ZM97.834 240.973C98.0456 240.49 98.2571 240.011 98.4771 239.528L97.6309 239.108L96.8652 240.465L97.834 240.973Z" fill="#252B31"/>
<path d="M128.123 252.106C128.494 252.089 128.864 252.145 129.213 252.271C129.562 252.396 129.882 252.589 130.156 252.839C130.429 253.088 130.65 253.389 130.806 253.723C130.961 254.058 131.048 254.42 131.062 254.788C131.076 255.156 131.017 255.524 130.887 255.869C130.757 256.214 130.56 256.53 130.306 256.799C130.052 257.069 129.748 257.285 129.409 257.436C129.071 257.588 128.706 257.671 128.335 257.682C127.027 257.74 125.707 256.291 125.737 254.842C125.767 253.392 126.828 252.157 128.123 252.106Z" fill="#252B31"/>
<path d="M55.4456 178.568C57.066 178.538 57.9841 179.387 58.0264 180.958C58.0687 182.53 56.7022 183.836 54.8914 183.857C53.1991 183.878 51.879 182.815 51.9298 181.467C51.9425 179.942 53.5756 178.601 55.4456 178.568ZM54.7052 182.055C55.0987 182.055 55.4921 181.731 55.8856 181.547L56.2071 180.963C55.8391 180.803 55.4414 180.471 55.1114 180.542C54.7094 180.614 54.371 181.013 54.0071 181.273C54.2398 181.538 54.4725 182.055 54.7052 182.055Z" fill="#252B31"/>
<path d="M23.3381 266.832C23.6929 266.799 24.0508 266.837 24.39 266.946C24.7291 267.054 25.0425 267.23 25.3109 267.463C25.5794 267.696 25.7972 267.98 25.9512 268.3C26.1052 268.619 26.1921 268.966 26.2066 269.319C26.2616 270.941 25.1066 272.588 23.8246 272.71C22.4073 272.844 20.6981 271.197 20.7108 269.706C20.7297 268.994 21.0052 268.312 21.4874 267.785C21.9695 267.257 22.6262 266.919 23.3381 266.832ZM23.6808 270.756C23.867 270.134 24.0658 269.781 24.0404 269.445C24.0404 269.256 23.6173 269.097 23.4143 268.92C23.1881 269.208 23.0161 269.534 22.9066 269.882C22.8854 270.071 23.2662 270.306 23.6808 270.756Z" fill="#252B31"/>
<path d="M124.582 283.015C125.965 283.171 127.34 284.62 127.251 285.822C127.218 286.246 127.089 286.658 126.875 287.027H122.183C122.008 286.659 121.928 286.253 121.95 285.847C122.022 284.364 123.405 282.881 124.582 283.015Z" fill="#252B31"/>
<path d="M133.589 188.26C134.859 188.26 135.675 189.235 135.607 190.6C135.606 190.914 135.54 191.224 135.412 191.51C135.285 191.797 135.099 192.055 134.867 192.267C134.634 192.479 134.36 192.641 134.062 192.743C133.763 192.846 133.447 192.885 133.132 192.861C131.779 192.84 130.666 191.94 130.666 190.865C130.67 189.634 132.231 188.243 133.589 188.26Z" fill="#252B31"/>
<path d="M87.2741 176.337C88.4376 176.337 89.8634 177.761 89.8549 178.916C89.8465 180.072 88.8395 180.975 87.5068 180.933C86.1741 180.891 84.9133 179.874 84.8837 178.765C84.8541 177.656 86.1191 176.337 87.2741 176.337Z" fill="#252B31"/>
<path d="M95.4435 285.065C95.672 284.099 97.0047 283.721 98.6589 283.981C99.9282 284.183 100.389 285.145 100.876 286.082C101.042 286.373 101.153 286.692 101.202 287.023H96.9243C95.8835 286.536 95.2743 285.796 95.4435 285.065Z" fill="#252B31"/>
<path d="M89.0811 262.916C89.3984 262.782 90.1938 263.244 90.4603 263.643C91.0921 264.619 91.625 265.655 92.0511 266.735C92.2585 267.256 92.1654 267.895 92.2119 268.483L91.4504 268.844C90.3377 267.655 89.4069 266.235 87.6426 265.882C87.3888 265.832 87.0207 264.693 87.2196 264.399C87.6865 263.74 88.332 263.226 89.0811 262.916Z" fill="#252B31"/>
<path d="M112.676 175.896C113.56 175.854 114.893 177.576 114.914 178.795C114.927 179.021 114.894 179.247 114.817 179.461C114.74 179.674 114.62 179.869 114.464 180.035C114.309 180.201 114.122 180.334 113.913 180.427C113.705 180.519 113.48 180.568 113.251 180.572C111.982 180.643 110.713 179.589 110.692 178.396C110.649 177.265 111.695 175.946 112.676 175.896Z" fill="#252B31"/>
<path d="M99.0949 209.686C99.6448 209.734 100.159 209.978 100.542 210.373C100.925 210.767 101.152 211.286 101.181 211.833C101.181 212.984 100.305 213.749 98.9933 213.695C97.5929 213.64 96.5183 212.724 96.586 211.648C96.6537 210.573 97.8806 209.581 99.0949 209.686Z" fill="#252B31"/>
<path d="M108.987 259.467C109.989 259.391 111.03 259.723 111.369 260.887C111.707 262.051 111.623 263.185 110.226 263.828C109.439 263.353 108.648 262.921 107.908 262.412C107.252 261.963 106.685 261.274 107.21 260.538C107.638 259.965 108.276 259.58 108.987 259.467Z" fill="#252B31"/>
<path d="M55.7082 217.862C56.7363 217.824 57.4978 218.728 57.5993 220.093C57.6376 220.341 57.6216 220.595 57.5524 220.836C57.4831 221.078 57.3623 221.302 57.1981 221.493C57.0339 221.684 56.8301 221.837 56.6008 221.943C56.3714 222.049 56.1218 222.104 55.8689 222.105C54.6293 222.194 53.4404 221.223 53.4235 220.11C53.4066 218.997 54.5405 217.9 55.7082 217.862Z" fill="#252B31"/>
<path d="M41.7294 243.725C43.1763 243.759 44.3779 244.931 44.2679 246.221C44.1917 247.061 43.8448 247.624 42.876 247.599C41.2471 247.531 39.7875 246.397 39.8128 245.212C39.8255 244.305 40.6125 243.696 41.7294 243.725Z" fill="#252B31"/>
<path d="M59.1988 260.799C59.4883 260.772 59.7803 260.804 60.0566 260.894C60.3329 260.984 60.5876 261.129 60.8048 261.321C61.0219 261.513 61.1969 261.748 61.3188 262.01C61.4406 262.272 61.5068 262.556 61.513 262.845C61.5511 263.908 60.9165 264.66 59.9519 264.694C58.8476 264.727 57.5784 263.639 57.5191 262.593C57.518 262.138 57.6908 261.7 58.0026 261.367C58.3145 261.034 58.742 260.831 59.1988 260.799Z" fill="#252B31"/>
<path d="M15.1047 244.78C16.1582 244.78 17.6136 246.082 17.3259 247.044C17.1524 247.616 16.2512 247.973 16.0566 248.124C14.1231 248.17 13.3531 247.586 13.3446 246.548C13.3489 246.084 13.5351 245.64 13.8636 245.31C14.1922 244.98 14.6373 244.789 15.1047 244.78Z" fill="#252B31"/>
<path d="M99.1669 163.044C100.208 163.015 101.13 163.775 100.986 164.632C100.8 165.762 99.8396 165.893 98.5196 166.132C98.1726 165.712 97.483 165.233 97.2884 164.594C97.0811 163.851 98.143 163.09 99.1669 163.044Z" fill="#252B31"/>
<path d="M119.361 234.23V237.062C117.11 236.953 116.158 236.491 116.399 235.583C116.784 234.184 117.952 234.129 119.361 234.23Z" fill="#252B31"/>
<path d="M98.4817 195.616C99.1459 196.499 99.7509 196.978 99.8778 197.557C100.068 198.507 99.2136 198.767 98.4478 198.847C97.682 198.927 96.7555 198.629 96.9078 197.742C97.0009 197.121 97.7455 196.566 98.4817 195.616Z" fill="#252B31"/>
<path d="M65.6839 189.668C65.7359 189.847 65.7426 190.036 65.7033 190.219C65.6639 190.401 65.5799 190.571 65.4585 190.714C65.3372 190.856 65.1823 190.967 65.0076 191.036C64.8328 191.105 64.6437 191.13 64.457 191.109C63.9366 191.088 63.4373 190.579 62.515 190.054C63.3612 189.399 63.7843 188.769 64.275 188.752C64.5681 188.776 64.8505 188.872 65.0966 189.032C65.3427 189.192 65.5445 189.41 65.6839 189.668Z" fill="#252B31"/>
<path d="M27.3912 219.274C27.5731 219.959 26.5027 220.799 25.6988 220.597C25.3096 220.501 25.0007 220.076 24.29 219.505C25.208 219.03 25.7708 218.602 26.4054 218.48C26.6804 218.421 27.2981 218.925 27.3912 219.274Z" fill="#252B31"/>
<path d="M117.897 207.241C118.32 207.426 118.612 207.977 118.955 208.371C118.599 208.636 118.18 209.174 117.905 209.107C117.448 208.997 117.085 208.502 116.45 207.977C117.14 207.624 117.647 207.132 117.897 207.241Z" fill="#252B31"/>
<path d="M39.542 192.743C39.6816 192.688 40.1851 193.075 40.1978 193.276C40.1978 193.579 39.9397 193.898 39.7747 194.209L39.1655 194.558C39.0174 194.197 38.7424 193.81 38.772 193.478C38.8016 193.146 39.2247 192.865 39.542 192.743Z" fill="#252B31"/>
</svg>
