<svg width="237" height="970" viewBox="0 0 237 970" fill="none" xmlns="http://www.w3.org/2000/svg">
<g clip-path="url(#clip0_141_6436)">
<path d="M-302.156 828.834C-264.336 809.752 -214.456 787.855 -168.305 789.595C-124.859 791.233 -81.0417 829.813 -37.8167 831.802C10.1559 834.02 34.0612 790.569 61.1524 757.449C74.9558 740.57 91.3343 718.565 113.382 713.637C148.228 705.818 190.584 732.302 227.482 728.566C209.984 686.508 203.109 637.284 181.18 597.368C164.585 567.147 145.37 553.498 119.511 534.779C76.2407 503.447 49.9365 473.741 15.7308 429.499C-3.70434 404.342 -12.2965 390.849 -21.8847 361.835C-31.4729 332.82 -23.7815 323.527 -51.1454 297.866C-73.5341 276.882 -93.8468 264.581 -109.656 234.648C-124.327 206.858 -134.467 176.574 -144.751 147.739C-188.441 134.411 -233.571 80.8428 -273.853 88.5137C-298.386 93.227 -311.782 118.394 -330.895 133.081C-358.483 154.299 -392.906 153.14 -421.075 170.291C-451.493 188.79 -446.131 238.254 -484.415 248.662C-509.256 255.442 -538.359 249.724 -563.42 257.887C-589.575 266.437 -610.347 283.055 -631.043 300.77C-603.616 324.534 -564.28 331.906 -540.077 357.645C-515.128 384.24 -524.685 414.606 -516.825 443.922C-504.17 491.382 -459.062 535.092 -421.132 553.442C-401.049 563.169 -369.379 568.037 -353.988 590.381C-335.09 617.815 -351.45 639.14 -359.039 662.365C-368.82 692.652 -375.62 708.793 -364.413 745.64C-351.402 787.821 -337.165 807.862 -302.156 828.834Z" stroke="white" stroke-width="0.3" stroke-miterlimit="10"/>
<path d="M-460.319 527.141C-407.923 493.491 -356.059 471.695 -289.046 474.836C-246.656 476.596 -204.195 475.263 -161.999 470.849C-140.34 468.692 -121.475 466.996 -105.162 453.299C-94.916 444.698 -88.7497 431.137 -78.0909 422.972C-57.1222 406.972 -30.2071 409.717 -9.28757 392.08" stroke="white" stroke-width="0.3" stroke-miterlimit="10"/>
<path d="M-435.764 545.177C-347.867 493.197 -252.82 498.758 -148.148 493.971C-126.923 493.019 -102.684 495.673 -85.2509 484.437C-73.9358 477.14 -68.3879 462.504 -58.3443 453.574C-38.3316 435.77 -13.247 436.743 6.58301 417.571" stroke="white" stroke-width="0.3" stroke-miterlimit="10"/>
<path d="M-403.833 560.384C-326.241 517.341 -233.319 515.486 -139.872 516.953C-117.818 517.304 -89.0885 527.347 -68.9305 521.104C-50.452 515.407 -45.2216 494.343 -31.8574 481.864C-13.4997 464.668 7.89942 462.038 25.0448 441.361" stroke="white" stroke-width="0.3" stroke-miterlimit="10"/>
<path d="M-370.798 574.746C-303.319 539.122 -214.738 533.588 -132.669 539.711C-107.027 541.545 -75.0376 559.201 -50.8937 555.866C-28.8181 552.824 -24.7926 532.958 -11.0667 517.095C6.55037 496.639 27.9875 487.872 43.8987 464.084" stroke="white" stroke-width="0.3" stroke-miterlimit="10"/>
<path d="M-350.754 595.508C-287.969 563.907 -198.874 554.159 -122.518 562.885C-93.7562 566.169 -59.999 587.374 -32.6833 586.166C-8.54985 585.045 -5.51505 563.891 8.10373 546.366C25.241 524.156 48.276 511.49 63.8179 486.408" stroke="white" stroke-width="0.3" stroke-miterlimit="10"/>
<path d="M-345.522 622.193C-275.498 587.601 -194.018 581.954 -110.52 589.503C-81.3627 592.151 -47.0663 605.819 -19.2924 602.317C3.42077 599.43 10.22 583.289 25.0444 567.23C44.5237 546.084 68.9826 532.47 86.8663 508.571" stroke="white" stroke-width="0.3" stroke-miterlimit="10"/>
<path d="M-357.052 656.847C-316.075 635.072 -270.802 616.083 -222.892 609.732C-184.313 604.608 -142.618 616.111 -102.524 618.981C-11.6934 625.471 53.0427 589.711 114.975 531.512" stroke="white" stroke-width="0.3" stroke-miterlimit="10"/>
<path d="M-367.815 691.557C-325.122 666.605 -281.731 637.727 -229.558 632.926C-186.693 628.984 -141.153 647.339 -97.4838 649.056C-63.4963 650.387 -31.8444 641.05 -2.78952 628.493C47.1439 606.911 98.6561 582.35 143.727 552.806" stroke="white" stroke-width="0.3" stroke-miterlimit="10"/>
<path d="M-369.286 723.733C-327.042 696.439 -286.998 658.277 -232.19 656.728C-187.311 655.444 -139.333 676.314 -94.1052 677.604C-53.9231 678.76 -22.5623 659.551 10.3159 642.957C61.6744 617.04 116.319 602.736 167.637 576.596" stroke="white" stroke-width="0.3" stroke-miterlimit="10"/>
<path d="M-361.463 754.649C-323.449 726.919 -284.287 689.012 -234.142 684.726C-186.993 680.693 -134.953 708.235 -86.9894 709.28C-41.4537 710.257 -10.2124 684.997 26.1554 665.099C75.9972 637.839 134.863 631.032 186.279 606.893" stroke="white" stroke-width="0.3" stroke-miterlimit="10"/>
<path d="M-348.41 784.594C-308.467 757.492 -261.431 717.349 -208.056 718.241C-163.543 718.998 -116.569 747.685 -71.8987 749.868C-25.741 752.11 3.1992 720.082 35.5432 694.577C83.6881 656.443 144.524 666.403 202.009 648.308" stroke="white" stroke-width="0.3" stroke-miterlimit="10"/>
<path d="M-328.217 809.906C-287.297 785.993 -235.468 750.431 -182.218 754.398C-139.621 757.524 -96.1025 790.39 -53.5761 793.28C-5.62309 796.538 20.9163 753.434 50.1668 723.034C64.3703 708.254 80.7361 690.696 101.791 686.714C136.406 680.186 179.061 697.381 214.825 691.814" stroke="white" stroke-width="0.3" stroke-miterlimit="10"/>
<path d="M197.574 726.385C179.605 685.258 172.301 638.461 148.507 600.076C133.869 576.545 113.528 565.384 93.5258 550.415C54.3391 521.089 29.4792 489.033 -0.49957 447.46C-13.5699 429.333 -29.1602 411.51 -38.0048 390.603C-50.6408 361.045 -47.6529 344.735 -69.4024 317.495C-87.5849 294.77 -107.316 277.581 -123.122 252.377C-145.366 216.931 -166.295 167.736 -181.21 129.406" stroke="white" stroke-width="0.3" stroke-miterlimit="10"/>
<path d="M162.729 717.687C133.188 658.944 120.716 611.099 72.2343 567.719C33.2417 532.77 10.0427 499.455 -20.0641 453.323C-46.9406 412.128 -68.1723 370.279 -94.1456 329.062C-139.938 256.454 -187.209 180.544 -222.939 102.505" stroke="white" stroke-width="0.3" stroke-miterlimit="10"/>
<path d="M130.382 712.2C104.496 666.363 82.5306 618.971 45.9336 582.256C9.33672 545.541 -12.8741 508.545 -40.5857 462.279C-66.3093 419.211 -99.0934 380.671 -123.468 336.707C-136.956 312.384 -144.923 285.824 -157.054 260.987C-187.215 198.984 -229.6 149.128 -262.1 87.7653" stroke="white" stroke-width="0.3" stroke-miterlimit="10"/>
<path d="M104.03 716.867C81.9471 677.227 59.646 628.264 25.8853 599.546C-12.6164 566.804 -30.5145 529.97 -57.1483 483.517C-83.4105 437.517 -122.114 398.397 -145.813 351.596C-159.055 325.351 -163.933 296.533 -176.968 270.326C-207.117 209.687 -259.134 156.665 -294.381 98.2404" stroke="white" stroke-width="0.3" stroke-miterlimit="10"/>
<path d="M82.037 733.128C60.0034 692.101 39.862 644.226 8.7718 610.32C-24.1729 574.34 -43.2722 541.8 -68.4687 496.914C-83.9073 469.428 -98.9518 444.69 -120.15 421.865C-138.738 401.87 -156.228 387.608 -169.037 362.032C-182.373 335.368 -185.098 305.504 -198.637 278.993C-227.455 222.435 -280.433 172.195 -315.3 118.541" stroke="white" stroke-width="0.3" stroke-miterlimit="10"/>
<path d="M61.7555 756.609C39.0458 711.457 19.2652 659.045 -9.57788 617.31C-35.1178 580.926 -58.5365 543.099 -79.7171 504.016C-95.8613 474.025 -109.57 451.566 -135.107 430.39C-158.407 411.04 -182.817 398.515 -197.465 368.362C-210.433 341.72 -209.813 311.634 -222.934 285.029C-248.974 232.147 -301.161 184.93 -333.934 135.343" stroke="white" stroke-width="0.3" stroke-miterlimit="10"/>
<path d="M41.9532 782.085C16.8536 729.334 -2.83411 673.404 -28.9634 621.446C-48.3766 582.668 -71.7392 545.673 -91.4663 506.588C-108.454 472.898 -120.454 455.955 -150.622 435.751C-176.055 418.711 -212.876 405.516 -228.252 372.075C-240.42 345.572 -236.114 315.944 -248.435 289.358C-271.286 239.676 -323.302 192.224 -353.4 145.753" stroke="white" stroke-width="0.3" stroke-miterlimit="10"/>
<path d="M21.5341 805.884C-23.6457 705.594 -56.6615 605.472 -103.933 506.323C-120.404 471.756 -133.261 460.339 -162.637 441.405C-194.895 420.59 -245 413.48 -260.152 368.139C-269.022 341.6 -262.754 315.587 -275.117 288.898C-296.436 242.834 -345.829 196.429 -373.05 152.49" stroke="white" stroke-width="0.3" stroke-miterlimit="10"/>
<path d="M-0.788694 823.189C-46.7218 716.763 -72.2928 611.024 -118.037 505.316C-152.939 424.643 -264.493 442.338 -286.699 370.194C-294.902 343.463 -286.537 318.803 -298.641 291.675C-318.742 247.048 -366.956 201.136 -392.829 158.175" stroke="white" stroke-width="0.3" stroke-miterlimit="10"/>
</g>
<defs>
<clipPath id="clip0_141_6436">
<rect width="785.604" height="648.057" fill="white" transform="translate(-53.5996) rotate(68.3647)"/>
</clipPath>
</defs>
</svg>
