<svg width="304" height="665" viewBox="0 0 304 665" fill="none" xmlns="http://www.w3.org/2000/svg">
<g clip-path="url(#clip0_141_6703)">
<path d="M353.846 523.834C391.666 504.752 441.546 482.855 487.697 484.595C531.143 486.233 574.96 524.813 618.185 526.802C666.158 529.02 690.063 485.569 717.154 452.449C730.958 435.57 747.336 413.565 769.384 408.637C804.23 400.818 846.586 427.302 883.484 423.566C865.986 381.508 859.111 332.284 837.182 292.368C820.587 262.147 801.372 248.498 775.513 229.779C732.243 198.447 705.938 168.741 671.733 124.499C652.298 99.3421 643.705 85.8492 634.117 56.8346C624.529 27.82 632.22 18.5275 604.857 -7.13364C582.468 -28.1182 562.155 -40.4193 546.346 -70.3516C531.675 -98.1422 521.535 -128.426 511.251 -157.261C467.561 -170.589 422.431 -224.157 382.149 -216.486C357.616 -211.773 344.22 -186.606 325.107 -171.919C297.519 -150.701 263.096 -151.86 234.927 -134.709C204.509 -116.21 209.871 -66.7461 171.587 -56.3385C146.746 -49.5583 117.643 -55.2761 92.5822 -47.1125C66.4265 -38.5626 45.6549 -21.9453 24.9589 -4.22965C52.3862 19.5338 91.7221 26.9063 115.924 52.6451C140.874 79.2396 131.317 109.606 139.176 138.922C151.832 186.382 196.94 230.092 234.87 248.442C254.953 258.169 286.623 263.037 302.014 285.381C320.912 312.815 304.552 334.14 296.963 357.365C287.182 387.652 280.382 403.793 291.589 440.64C304.599 482.821 318.837 502.862 353.846 523.834Z" stroke="white" stroke-width="0.3" stroke-miterlimit="10"/>
<path d="M56.5453 15.9161C75.259 0.28304 94.1521 -14.2928 117.843 -21.553C141.181 -28.6733 168.67 -23.7558 191.632 -31.0389C224.095 -41.298 230.523 -81.6109 258.316 -97.7723C287.998 -115.043 326.854 -113.722 356.946 -132.74C373.64 -143.298 386.239 -162.124 406.119 -166.648C442.897 -174.801 481.992 -133.724 522.685 -125.593" stroke="white" stroke-width="0.3" stroke-miterlimit="10"/>
<path d="M91.9409 34.1171C108.667 19.4644 124.404 6.06849 146.166 -0.426635C167.456 -6.78227 191.695 -2.73643 213.23 -8.22942C244.033 -16.0776 262.058 -44.7616 291.186 -55.2586C323.528 -66.9104 361.352 -65.468 393.969 -77.5168C414.906 -85.2451 434.4 -107.382 456.181 -110.259C481.759 -113.61 507.714 -92.2878 535.059 -95.356" stroke="white" stroke-width="0.3" stroke-miterlimit="10"/>
<path d="M118.96 56.0021C153.364 27.0393 181.614 23.949 225.851 16.5094C260.476 10.7942 287.075 -9.28663 319.904 -18.6828C352.231 -27.9519 388.762 -26.6211 421.969 -33.6707C445.799 -38.7052 464.041 -51.6544 486.731 -57.9893C508.044 -63.9222 527.15 -56.9039 548.361 -66.3014" stroke="white" stroke-width="0.3" stroke-miterlimit="10"/>
<path d="M132.462 85.3847C170.527 54.2738 202.216 51.0196 250.859 44.5214C281.912 40.3909 305.246 21.8212 334.021 12.8564C368.208 2.22531 407.472 4.393 442.893 -3.12656C465.143 -7.84668 482.98 -21.0913 504.198 -27.2027C525.989 -33.445 547.005 -29.7775 568.001 -40.5057" stroke="white" stroke-width="0.3" stroke-miterlimit="10"/>
<path d="M136.421 123.259C176.638 88.6777 203.772 75.6347 258.266 74.9303C289.694 74.4683 310.201 57.5477 337.664 48.2392C375.134 35.778 420.036 40.9667 459.02 32.3223C478.103 28.09 493.349 18.1776 510.916 10.9697C538.443 -0.35659 567.424 -1.4806 593.198 -17.1051" stroke="white" stroke-width="0.3" stroke-miterlimit="10"/>
<path d="M145.305 156.129C184.826 121.608 211.025 97.9167 268.171 102.81C302.341 105.75 317.154 92.2644 345.42 81.7732C381.492 68.3299 427.102 75.0622 465.436 67.5637C489.543 62.8035 507.17 51.7545 528.437 41.5906C558.33 27.3333 589.638 25.1181 617.472 6.27578" stroke="white" stroke-width="0.3" stroke-miterlimit="10"/>
<path d="M158.903 180.912C200.797 146.987 235.42 121.298 294.334 126.715C328.901 129.809 348.742 118.29 378.583 109.167C412.662 98.7471 452.357 103.576 487.337 95.2475C509.834 89.8775 525.526 77.5796 545.338 67.4404C573.902 52.6777 602.037 53.3538 628.774 34.3466" stroke="white" stroke-width="0.3" stroke-miterlimit="10"/>
<path d="M175.792 202.614C225.564 167.556 272.356 143.499 338.091 148.322C376.388 151.138 411.499 144.894 447.375 138.946C473.519 134.602 502.205 134.003 525.28 121.922C538.595 114.888 547.519 102.106 559.893 93.7886C583.633 77.9384 612.344 78.7944 635.56 60.6552" stroke="white" stroke-width="0.3" stroke-miterlimit="10"/>
<path d="M195.683 222.141C248.078 188.491 299.943 166.695 366.956 169.836C409.346 171.596 451.807 170.263 494.003 165.849C515.662 163.692 534.527 161.996 550.84 148.299C561.086 139.698 567.252 126.137 577.911 117.972C598.88 101.972 625.795 104.717 646.714 87.0804" stroke="white" stroke-width="0.3" stroke-miterlimit="10"/>
<path d="M220.238 240.177C308.135 188.197 403.182 193.758 507.854 188.971C529.079 188.019 553.318 190.673 570.751 179.437C582.066 172.14 587.614 157.504 597.658 148.574C617.67 130.77 642.755 131.743 662.585 112.571" stroke="white" stroke-width="0.3" stroke-miterlimit="10"/>
<path d="M252.169 255.384C329.761 212.341 422.683 210.486 516.13 211.953C538.184 212.304 566.913 222.347 587.071 216.104C605.55 210.407 610.78 189.343 624.145 176.864C642.502 159.668 663.901 157.038 681.047 136.361" stroke="white" stroke-width="0.3" stroke-miterlimit="10"/>
<path d="M285.205 269.746C352.684 234.122 441.265 228.588 523.334 234.711C548.976 236.545 580.965 254.201 605.109 250.866C627.185 247.824 631.21 227.958 644.936 212.095C662.553 191.639 683.99 182.872 699.902 159.084" stroke="white" stroke-width="0.3" stroke-miterlimit="10"/>
<path d="M305.248 290.508C368.033 258.907 457.128 249.159 533.484 257.885C562.246 261.169 596.003 282.374 623.319 281.166C647.452 280.045 650.487 258.891 664.106 241.366C681.243 219.156 704.278 206.49 719.82 181.408" stroke="white" stroke-width="0.3" stroke-miterlimit="10"/>
<path d="M298.949 351.847C339.926 330.072 385.199 311.083 433.109 304.732C471.688 299.608 513.383 311.111 553.477 313.981C644.308 320.471 709.044 284.711 770.976 226.512" stroke="white" stroke-width="0.3" stroke-miterlimit="10"/>
<path d="M288.186 386.557C330.879 361.605 374.27 332.727 426.443 327.926C469.308 323.984 514.848 342.339 558.517 344.056C592.505 345.387 624.157 336.05 653.211 323.493C703.145 301.911 754.657 277.35 799.728 247.806" stroke="white" stroke-width="0.3" stroke-miterlimit="10"/>
<path d="M286.716 418.733C328.96 391.439 369.004 353.277 423.812 351.728C468.691 350.444 516.669 371.314 561.897 372.604C602.079 373.76 633.44 354.551 666.318 337.957C717.676 312.04 772.321 297.736 823.639 271.596" stroke="white" stroke-width="0.3" stroke-miterlimit="10"/>
<path d="M294.54 449.649C332.554 421.919 371.715 384.012 421.861 379.726C469.01 375.693 521.05 403.235 569.014 404.28C614.549 405.257 645.791 379.997 682.158 360.099C732 332.839 790.866 326.032 842.282 301.893" stroke="white" stroke-width="0.3" stroke-miterlimit="10"/>
<path d="M307.592 479.594C347.535 452.492 394.571 412.349 447.946 413.241C492.459 413.998 539.433 442.685 584.103 444.868C630.261 447.11 659.201 415.082 691.545 389.577C739.69 351.443 800.526 361.403 858.011 343.308" stroke="white" stroke-width="0.3" stroke-miterlimit="10"/>
<path d="M697.955 477.085C672.856 424.334 653.168 368.404 627.039 316.446C607.625 277.668 584.263 240.673 564.536 201.588C547.548 167.898 535.548 150.955 505.38 130.752C479.947 113.711 443.126 100.516 427.75 67.075C415.582 40.5722 419.888 10.9441 407.567 -15.642C384.716 -65.3239 332.7 -112.776 302.602 -159.247" stroke="white" stroke-width="0.3" stroke-miterlimit="10"/>
<path d="M677.536 500.884C632.356 400.594 599.34 300.472 552.069 201.323C535.598 166.756 522.741 155.339 493.365 136.405C461.107 115.59 411.002 108.48 395.85 63.139C386.98 36.6004 393.248 10.5874 380.885 -16.1024C359.566 -62.1664 310.173 -108.571 282.952 -152.51" stroke="white" stroke-width="0.3" stroke-miterlimit="10"/>
<path d="M655.212 518.189C609.279 411.763 583.708 306.024 537.964 200.316C503.062 119.643 391.508 137.338 369.302 65.1944C361.099 38.463 369.464 13.8029 357.36 -13.3254C337.259 -57.952 289.045 -103.864 263.172 -146.825" stroke="white" stroke-width="0.3" stroke-miterlimit="10"/>
<path d="M631.081 526.273C601.698 455.823 582.612 396.389 566.676 325.168C557.58 284.626 537.869 240.133 521.786 200.251C487.892 116.13 372.767 144.004 348.852 68.2166C340.323 41.2067 349.307 17.2612 336.545 -10.2544C315.958 -54.5924 269.793 -96.6111 243.579 -139.341" stroke="white" stroke-width="0.3" stroke-miterlimit="10"/>
<path d="M605.076 525.16C587.276 481.613 561.827 435.122 551.331 390.143C546.124 367.817 547.413 345.772 543.731 323.537C537.205 283.969 519.051 239.411 502.522 200.641C467.94 119.506 360.927 147.74 334.418 73.3413C324.902 46.6267 331.551 22.1191 318.137 -4.80181C296.607 -48.0693 253.64 -87.1075 227.478 -128.922" stroke="white" stroke-width="0.3" stroke-miterlimit="10"/>
<path d="M578.356 516.793C559.599 473.073 527.783 423.298 519.991 377.511C516.054 354.393 521.106 331.911 517.928 308.709C513.167 273.77 497.251 234.734 480.716 201.032C443.785 125.774 357.525 149.569 323.149 79.4199C309.802 52.1843 311.313 24.8891 295.982 -2.688C274.472 -41.4263 240.164 -75.7603 216.361 -113.925" stroke="white" stroke-width="0.3" stroke-miterlimit="10"/>
<path d="M551.172 504.72C533.357 466.34 500.306 421.257 491.976 381.012C486.695 355.595 492.703 334.918 492.545 310.374C492.294 273.07 476.847 236.849 456.641 201.699C418.644 135.314 335.552 148.394 307.492 80.1319C294.958 49.6209 293.145 25.805 272.482 -3.23414C250.808 -33.6728 227.213 -63.2055 207.574 -95.652" stroke="white" stroke-width="0.3" stroke-miterlimit="10"/>
<path d="M523.83 492.973C505.17 456.154 466.557 410.059 460.035 370.802C456.307 348.273 464.285 333.106 466.112 312.599C469.65 271.656 456.786 240.676 431.439 202.308C393.829 145.612 326.576 148.52 295.513 91.8688C278.881 61.4949 276.985 37.7119 256.157 8.25786C236.407 -19.6307 215.552 -46.9135 198.136 -76.9044" stroke="white" stroke-width="0.3" stroke-miterlimit="10"/>
<path d="M497.32 485.556C479.563 452.892 441.288 412.065 430.872 376.849C422.229 347.675 437.859 330.864 441.283 306.94C446.813 267.871 430.166 238.248 404.466 203.044C386.731 178.725 370.737 164.663 347.955 149.284C324.454 133.422 298.175 127.137 279.747 100.284C261.674 73.9624 255.87 44.5033 236.879 17.6819C217.603 -9.55476 200.278 -32.2357 183.643 -61.6483" stroke="white" stroke-width="0.3" stroke-miterlimit="10"/>
<path d="M471.342 484.936C453.815 453.213 413.312 413.366 403.365 379.212C394.838 349.968 412.435 333.938 416.731 310.7C424.158 270.423 404.204 239.662 376.873 203.857C360.431 181.788 340.61 162.451 318.143 146.56C295.856 130.553 270.365 122.562 252.6 97.199C235.474 72.7824 229.192 45.5056 211.226 20.726C192.056 -5.76024 176.711 -25.3854 159.979 -54.0151" stroke="white" stroke-width="0.3" stroke-miterlimit="10"/>
<path d="M445.554 488.659C426.181 458.82 391.015 423.17 380.32 388.521C371.042 358.351 385.572 340.704 391.551 317.351C402.729 273.761 379.949 244.53 348.94 206.774C329.93 183.657 312.238 164.651 289.877 147.065C268.984 130.697 243.99 120.876 227.216 96.8003C210.442 72.7246 207.76 46.9005 189.04 22.3963C168.041 -5.06917 147.09 -23.215 126.965 -52.1076" stroke="white" stroke-width="0.3" stroke-miterlimit="10"/>
<path d="M421.69 495.003C399.697 467.452 369.52 436.089 358.051 401.122C347.555 369.395 359.719 349.11 367.395 324.771C383.11 275.013 358.248 251 319.145 212.806C299.32 193.446 280.505 173.06 260.056 155.028C241.941 139.07 218.391 127.14 204.928 104.272C189.012 77.2152 191.943 51.8056 171.682 25.5357C150.774 -1.58147 118.99 -21.7444 96.5341 -48.344" stroke="white" stroke-width="0.3" stroke-miterlimit="10"/>
<path d="M398.875 503.261C343.642 448.73 320.251 402.888 341.339 340.411C362.247 278.511 345.518 261.931 288.952 221.949C255.566 198.293 198.883 152.571 181.686 111.09C169.464 81.6077 176.333 55.5965 153.497 28.6435C130.661 1.69056 96.097 -12.472 71.0686 -37.6911" stroke="white" stroke-width="0.3" stroke-miterlimit="10"/>
<path d="M376.544 512.862C318.086 467.869 297.524 410.461 317.756 351.637C324.858 330.935 341.848 303.935 326.373 275.814C314.325 253.969 278.738 243.765 260.217 233.803C224.705 214.71 176.878 171.406 161.656 127.461C151.452 98.0426 160.545 66.2035 137.545 38.9559C114.915 12.161 73.9127 0.888232 47.6158 -22.6273" stroke="white" stroke-width="0.3" stroke-miterlimit="10"/>
</g>
<defs>
<clipPath id="clip0_141_6703">
<rect width="785.604" height="648.057" fill="white" transform="translate(602.402 -305) rotate(68.3647)"/>
</clipPath>
</defs>
</svg>
