<svg width="97" height="97" viewBox="0 0 97 97" fill="none" xmlns="http://www.w3.org/2000/svg">
<path d="M56.6605 49.3081C57.4223 44.6153 54.2355 40.1935 49.5427 39.4318C44.8499 38.67 40.4281 41.8568 39.6664 46.5496C38.9046 51.2424 42.0914 55.6642 46.7842 56.4259C51.477 57.1876 55.8988 54.0009 56.6605 49.3081Z" stroke="white" stroke-width="2" stroke-linecap="round" stroke-linejoin="round"/>
<path d="M48.5 95.9999V64.3333" stroke="white" stroke-width="2" stroke-linecap="round" stroke-linejoin="round"/>
<path d="M52.0195 66.0925L48.5016 62.574L44.9824 66.0925" stroke="white" stroke-width="2" stroke-linecap="round" stroke-linejoin="round"/>
<path d="M96.0007 48.5H64.334" stroke="white" stroke-width="2" stroke-linecap="round" stroke-linejoin="round"/>
<path d="M66.0927 52.0185L62.5742 47.6211L66.0927 43.2222" stroke="white" stroke-width="2" stroke-linecap="round" stroke-linejoin="round"/>
<path d="M1 48.5H32.6667" stroke="white" stroke-width="2" stroke-linecap="round" stroke-linejoin="round"/>
<path d="M30.9082 52.0185L34.4267 47.6211L30.9082 43.2222" stroke="white" stroke-width="2" stroke-linecap="round" stroke-linejoin="round"/>
<path d="M48.5 1V32.6667" stroke="white" stroke-width="2" stroke-linecap="round" stroke-linejoin="round"/>
<path d="M52.0195 30.9075L48.5016 32.6667L44.9824 30.9075" stroke="white" stroke-width="2" stroke-linecap="round" stroke-linejoin="round"/>
<path d="M43.2219 20.3518C37.6401 21.4188 32.5084 23.9812 28.4489 27.7284C24.3894 31.4756 21.5766 36.2466 20.3516 41.4629" stroke="white" stroke-width="2" stroke-linecap="round" stroke-linejoin="round"/>
<path d="M74.8885 41.4629C73.742 36.354 71.1542 31.6648 67.4209 27.9315C63.6876 24.1982 58.9596 21.5716 53.7773 20.3518" stroke="white" stroke-width="2" stroke-linecap="round" stroke-linejoin="round"/>
<path d="M53.7773 74.889C58.9516 73.6679 63.6736 71.0417 67.4059 67.3095C71.1381 63.5772 73.7307 58.8888 74.8885 53.7778" stroke="white" stroke-width="2" stroke-linecap="round" stroke-linejoin="round"/>
<path d="M22.1113 53.7778C23.2533 58.9968 25.8544 63.7674 29.6006 67.5136C33.3468 71.2598 38.0779 73.8214 43.2224 74.889" stroke="white" stroke-width="2" stroke-linecap="round" stroke-linejoin="round"/>
<path d="M43.2213 4.51855C23.1316 6.89915 7.17843 22.1556 4.51758 41.463" stroke="white" stroke-width="2" stroke-linecap="round" stroke-linejoin="round"/>
<path d="M92.481 41.463C89.7965 22.3926 73.9102 7.26121 53.7773 4.51855" stroke="white" stroke-width="2" stroke-linecap="round" stroke-linejoin="round"/>
<path d="M53.7773 92.4816C73.8928 89.611 89.77 73.7597 92.481 53.7778" stroke="white" stroke-width="2" stroke-linecap="round" stroke-linejoin="round"/>
<path d="M4.51758 53.7778C7.20575 74.0062 23.1486 89.9861 43.2213 92.4816" stroke="white" stroke-width="2" stroke-linecap="round" stroke-linejoin="round"/>
</svg>
