<svg width="154" height="215" viewBox="0 0 154 215" fill="none" xmlns="http://www.w3.org/2000/svg">
<path d="M153.043 103.6C152.691 102.886 152.118 102.304 151.41 101.941C150.702 101.577 149.896 101.451 149.111 101.581C147.56 101.757 146.147 102.303 145.197 103.586C144.16 104.993 143.241 106.498 142.26 107.953C142.098 108.199 141.915 108.59 141.69 108.614C139.583 108.89 137.437 109.44 135.361 109.257C129.757 108.776 124.54 107.04 120.221 103.247C118.642 101.864 117.157 100.36 115.678 98.863C113.539 96.6915 111.48 94.4475 109.342 92.2933C106.415 89.3197 103.468 86.3565 101.164 82.8434C100.676 82.1306 100.34 81.3253 100.175 80.4773C100.011 79.6292 100.021 78.7565 100.207 77.9128C101.095 73.7013 104.266 70.8383 106.298 67.2526C106.685 67.467 106.989 67.633 107.276 67.8024C110.568 69.7802 113.995 71.3569 117.931 71.4399C118.744 71.5011 119.561 71.493 120.373 71.4157C120.58 71.3713 120.773 71.2769 120.935 71.1407C121.097 71.0044 121.223 70.8306 121.303 70.6343C121.41 70.0257 120.853 69.9151 120.339 69.9427L119.962 69.9669C115.212 70.3127 111.138 68.5147 107.238 65.9664C107.718 65.1918 108.226 64.4726 108.62 63.705C108.917 63.131 109.221 63.0688 109.815 63.2555C111.954 64.0029 114.149 64.5809 116.379 64.9844C118.096 65.2205 119.832 65.2819 121.562 65.1676C122.374 65.1331 123.182 65.0639 123.98 64.9878C124.64 64.9221 125.307 64.9048 125.963 64.7838C126.566 64.6471 127.12 64.3496 127.566 63.9229C127.718 63.8018 127.635 63.1864 127.456 62.9478C127.2 62.602 126.568 62.9478 126.271 63.0515C125.731 63.2546 125.177 63.4153 124.612 63.5321C123.385 63.7676 122.137 63.8708 120.888 63.8399C119.146 63.8539 117.408 63.673 115.706 63.3005C113.702 62.851 111.729 62.2632 109.656 61.7099C109.946 61.0426 110.195 60.5758 110.364 60.0779C110.534 59.58 110.848 59.535 111.311 59.618C113.069 59.9292 114.828 60.2715 116.597 60.4859C119.8 60.8593 122.995 60.8939 126.115 59.9085C126.602 59.7966 127.057 59.5782 127.449 59.2688C127.552 59.1144 127.618 58.9383 127.642 58.7542C127.666 58.5701 127.647 58.3829 127.587 58.2073C127.532 58.0551 126.941 57.9964 126.627 58.0551C126.177 58.1416 125.77 58.4216 125.324 58.5565C122.239 59.4935 119.105 59.248 115.996 58.9023C114.424 58.7121 112.862 58.4009 111.235 58.1312L111.819 56.3436C112.579 57.5365 113.657 57.4327 114.548 57.2391C117.236 56.6444 119.952 56.06 122.529 55.1265C125.587 54.0165 127.331 51.6031 127.967 48.4047C128.399 46.2332 128.136 44.1137 127.749 41.9595C127.367 39.6411 126.162 37.5383 124.357 36.0365C123.103 34.93 121.686 34.0172 120.339 33.0352C120.435 30.3209 116.666 21.4864 115.433 19.8682C114.938 19.1898 114.679 18.3673 114.697 17.5274C114.61 15.1038 114.006 12.7269 112.924 10.5566C112.112 8.93152 111.501 8.67909 109.732 9.01103C108.81 9.18392 107.884 9.35681 106.968 9.62651C106.495 9.75791 106.277 9.60923 105.932 9.28074C105.099 8.47856 104.263 7.61067 103.271 7.07819C88.9195 -0.635955 70.104 -2.88348 55.1995 4.57825C51.8258 6.27196 48.6654 8.36126 45.7848 10.8021C44.4546 10.2835 43.0208 9.71987 41.5974 9.16663C40.364 8.68947 39.7041 8.98337 39.2722 10.2385C38.4949 12.4722 37.8661 14.7335 37.8592 17.1297C37.8391 17.4217 37.7373 17.702 37.5655 17.9388C37.3029 18.3019 36.8745 18.5612 36.6638 18.9416C35.8691 20.3696 34.9985 21.7734 34.4181 23.2879C33.6121 25.4252 32.9337 27.6086 32.3866 29.8264C32.1931 30.5802 31.9927 30.881 31.243 31.1058C26.6998 32.4889 23.2276 35.0787 22.2602 39.999C21.9358 41.7867 21.9008 43.615 22.1565 45.4138C22.6299 48.9268 23.6767 52.2635 26.7896 54.4488C27.8321 55.1426 28.9168 55.7708 30.0372 56.3298C32.3831 57.5642 34.9087 57.7785 37.524 57.7578C38.5605 57.7578 39.597 58.228 40.2362 56.8C40.8339 58.2661 41.2726 59.497 41.8358 60.6899C42.1087 61.2846 42.0569 61.5924 41.4903 61.9796C38.4493 64.0116 34.9888 65.3295 31.3674 65.835C29.6399 66.1047 27.8744 66.198 26.1332 66.3986C25.5804 66.4608 25.0069 66.6821 25.1485 67.391C25.2902 68.0998 25.8671 67.9649 26.3785 67.8889C26.965 67.7834 27.5566 67.7084 28.1508 67.6641C31.139 67.6105 34.0948 67.0348 36.8849 65.9629C38.9579 65.1434 40.8961 64.075 42.9621 63.0861L44.1644 65.344C41.5836 66.7789 39.1202 68.2243 36.5878 69.5209C35.8104 69.922 34.8603 69.9808 33.9413 70.0914C32.5766 70.2608 31.1981 70.33 29.8265 70.4372C29.2806 70.4821 28.7624 70.6343 28.8556 71.3154C28.9489 71.9966 29.5259 71.9413 30.0407 71.8929C30.6305 71.8084 31.2245 71.7565 31.82 71.7373C35.0783 71.804 38.2739 70.8356 40.9479 68.9711C41.9844 68.2796 43.0658 67.6261 44.1299 66.9622C44.3579 66.8239 44.5963 66.6994 44.8485 66.5611C45.3529 67.3667 45.8124 68.1067 46.3307 68.9435C44.3959 70.4718 42.7099 72.1937 40.2465 72.7469C39.901 72.8195 39.4104 73.3486 39.4277 73.6356C39.4657 74.2891 40.1014 74.3444 40.592 74.1577C41.7716 73.7542 42.9156 73.2534 44.0124 72.6605C45.1111 72.0104 46.0854 71.1253 47.2497 70.2194C47.9821 71.6681 48.8597 73.027 49.3779 74.5173C50.2555 77.0552 50.7599 79.5863 49.4401 82.2694C47.6746 85.8828 45.9057 89.4788 43.3974 92.6426C38.2816 99.1506 32.0782 104.723 25.0621 109.112C21.5658 111.3 17.8275 112.569 13.6402 112.151C12.3756 112.026 11.1699 111.888 10.4132 110.64C10.0528 110.121 9.60509 109.668 9.09001 109.302C8.31331 108.662 7.3822 108.238 6.39012 108.073C5.39804 107.907 4.37987 108.005 3.43775 108.358C1.49263 109.029 0.445786 110.536 0.121023 112.476C-0.407581 115.657 0.812006 118.202 3.45502 119.931C7.08881 122.321 11.4363 123.381 15.7615 122.932C21.51 122.453 27.0654 120.628 31.9789 117.604C36.7605 114.64 41.632 111.812 45.4255 107.538C45.5545 107.439 45.6921 107.351 45.8366 107.276C45.6362 107.708 45.5222 107.926 45.4289 108.157C43.4942 113.029 41.4834 117.87 39.6523 122.783C38.2647 126.562 37.4315 130.522 37.1786 134.54C36.8331 139.989 37.6001 145.314 39.0788 150.549C39.2342 151.095 39.3586 151.652 39.4415 151.994C37.645 151.469 35.8657 150.895 34.0588 150.428C33.0879 150.182 32.0791 150.137 31.0806 149.989C26.6539 149.291 22.1212 149.79 17.9519 151.434C14.7526 152.693 12.4033 155.03 11.5223 158.47C10.6827 161.762 10.6724 165.133 10.9971 168.498C11.3426 172.177 12.9077 175.434 14.7008 178.594C14.9219 178.988 15.1569 179.379 15.3918 179.77C14.8203 179.922 14.2658 180.131 13.7369 180.396C10.9729 182.173 9.24548 184.721 8.38866 187.861C8.30098 188.194 8.24658 188.534 8.22628 188.877C7.60094 198.905 22.5608 204.734 30.2031 207.283C49.3364 213.652 69.8967 215.519 89.9353 213.61C103.271 212.335 117.022 210.467 129.359 204.949C135.602 202.162 142.112 197.892 145.522 191.778C148.268 186.858 149.153 175.5 142.16 173.332C141.182 173.031 140.204 172.716 139.165 172.384C139.724 171.081 140.27 169.857 140.788 168.615C142.018 165.64 142.559 162.425 142.371 159.21C142.195 155.787 140.298 153.104 138.169 150.656C135.444 147.523 132.116 145.352 127.743 145.449C122.038 145.584 116.417 146.247 111.031 148.26C110.686 148.395 110.302 148.516 109.97 148.63C110.354 145.756 110.827 143.004 111.055 140.231C111.649 133.008 110.679 125.933 108.671 119.001C107.265 114.16 105.714 109.319 104.232 104.502C104.125 104.157 104.038 103.78 103.924 103.372C105.652 104.727 107.307 105.986 108.927 107.265C113.062 110.497 117.55 113.25 122.304 115.47C126.45 117.431 130.866 118.174 135.433 118.441C141.455 118.786 146.717 117.293 151.081 112.991C152.299 111.756 153.206 110.248 153.727 108.593C154.314 106.847 153.893 105.156 153.043 103.6ZM24.7512 49.3728C23.4901 45.9532 22.7853 42.4367 24.1086 38.8856C25.2141 35.9224 27.6119 34.2143 30.5485 32.807C28.1094 40.3863 27.5359 47.7062 31.0737 55.0919C28.1474 53.8748 25.8188 52.2877 24.7512 49.3728ZM33.772 56.0358C33.4818 56.0047 33.1501 55.6347 32.9808 55.3443C31.1118 52.127 30.1038 48.4815 30.0545 44.7603C29.9944 41.0159 30.604 37.2909 31.8545 33.7613C32.4004 32.2537 33.3056 31.8042 34.8707 32.2641C35.1091 32.3333 35.3405 32.4301 35.6964 32.5649C35.1712 36.479 34.7083 40.4174 35.1332 44.4076C35.5582 48.3978 36.149 52.2946 37.4169 56.2122C36.1144 56.1465 34.9329 56.1465 33.772 56.0358ZM37.0853 31.1404C37.372 30.103 37.645 29.1003 37.9248 28.0976L38.1218 28.1183C38.1701 29.2559 38.215 30.39 38.2669 31.7143C37.7417 31.4412 37.4204 31.2925 37.0749 31.1265L37.0853 31.1404ZM28.0921 118.057C27.5048 116.674 26.9347 115.356 26.4096 114.042C26.1539 113.403 25.5044 111.394 25.2038 110.775C24.7857 111.01 24.3642 111.238 23.9393 111.466C24.4472 113.655 25.8637 116.725 26.9623 118.575C23.8627 119.869 20.6125 120.766 17.2886 121.245C13.1684 121.92 8.94061 121.223 5.25504 119.26C3.98172 118.627 2.92304 117.632 2.21125 116.4C1.75746 115.64 1.51241 114.773 1.50088 113.887C1.48936 113.001 1.71176 112.128 2.1456 111.356C3.27191 109.25 6.22587 108.856 8.18136 110.519C9.5046 111.65 10.6274 112.939 11.2044 114.668C11.2568 114.816 11.318 114.96 11.3875 115.1C11.6294 115.574 11.9403 116.041 12.5415 115.768C13.1426 115.495 12.9975 114.972 12.7661 114.481C12.6486 114.236 12.5726 113.966 12.4378 113.603C15.8271 114.022 19.0437 113.845 21.9907 112.455C22.6437 112.147 23.2932 111.819 23.9358 111.48C23.9082 111.37 23.884 111.262 23.8633 111.159C23.8149 110.906 24.1811 110.567 24.3504 110.27C24.6372 110.443 25.069 110.547 25.2003 110.792C26.9036 109.841 28.5758 108.832 30.2618 107.884L33.5612 114.938L28.0921 118.057ZM45.3322 105.395C44.0193 106.809 42.6512 108.182 41.1863 109.686C40.8408 108.994 40.5713 108.507 40.3467 108.002C39.4484 105.996 38.5536 103.987 37.6933 101.965C37.6451 101.834 37.6278 101.694 37.6428 101.555C37.6578 101.416 37.7047 101.283 37.7797 101.166C39.2204 99.6894 40.7026 98.251 42.1675 96.7953C42.6857 98.2717 43.1556 99.7585 43.7256 101.214C44.1713 102.348 44.7621 103.438 45.2424 104.558C45.3356 104.81 45.4462 105.246 45.3149 105.395H45.3322ZM101.772 101.297C101.772 101.297 101.744 101.346 101.675 101.453C96.4202 99.5684 90.9649 98.8837 85.4646 98.8284C81.0319 98.78 76.5751 99.3056 72.1562 99.8069C65.8268 100.526 59.5319 101.536 53.4064 103.351C51.9346 103.787 50.4766 104.274 49.0082 104.734C48.6074 103.918 51.4992 97.5975 52.1557 97.3416C55.9285 95.8755 59.8567 95.0803 63.8437 94.5478C66.732 94.1605 69.6203 93.5416 72.519 93.4862C78.6515 93.386 84.8255 92.9711 90.8958 94.3818C93.9154 95.0733 96.9327 95.7799 99.9476 96.5014C100.032 96.5226 100.112 96.5611 100.181 96.6147C100.25 96.6683 100.307 96.7357 100.348 96.8126C100.825 98.3097 101.288 99.8035 101.755 101.297H101.772ZM118.915 34.4459C119.865 34.8678 120.895 35.1755 121.759 35.7322C126.706 38.9271 127.68 45.3239 126.001 49.7428C125.117 52.0595 122.781 53.8921 120.062 54.3554C121.544 47.6613 122.702 40.9983 118.698 34.6845L118.915 34.4459ZM115.256 34.2972C115.601 34.2599 115.948 34.2599 116.293 34.2972C116.756 34.4044 117.295 34.4701 117.305 35.1686C117.344 35.4219 117.449 35.6604 117.609 35.8601C119.682 38.9721 120.111 42.4782 119.845 46.0638C119.672 48.4289 119.133 50.7663 118.742 53.1141C118.653 53.6673 118.518 54.2102 118.369 54.9501C116.987 55.2406 115.519 55.5414 114.071 55.8491C113.992 55.7765 113.916 55.7039 113.84 55.6382C117.675 48.7297 116.735 41.5446 115.239 34.2972H115.256ZM114.465 31.6348C113.857 31.6348 113.377 31.659 112.786 31.6659C113.152 30.6909 113.55 29.6121 113.947 28.5332C114.006 28.5367 114.362 30.6805 114.465 31.6348ZM61.5151 8.93497C72.7919 4.4607 85.9172 5.65705 97.0351 9.86854C97.2597 9.95498 101.423 12.0089 100.912 12.3858C99.7369 13.2329 98.6175 14.0247 97.5154 14.8476C96.3614 15.7155 95.249 16.6318 94.0605 17.479C93.9228 17.5793 93.7649 17.6484 93.5978 17.6812C93.4307 17.7141 93.2584 17.7099 93.0931 17.6691C90.7956 16.4416 88.2562 16.1512 85.7617 15.7225C77.8154 14.3636 70.142 15.6498 62.5481 17.9146C60.6893 18.4679 58.8444 19.0799 57.1446 19.6158L51.7411 14.1354C51.9069 14.3082 55.2547 11.4176 61.5151 8.93497ZM51.7342 78.7806C51.6651 75.1777 50.1276 72.2629 48.4002 69.3169C51.3956 66.855 54.5603 64.8219 58.4713 64.4761C59.8705 64.3585 61.3112 64.732 62.7312 64.9325C63.2253 65.0017 63.7677 65.2783 64.0061 64.6248C64.2445 63.9713 63.7124 63.6739 63.1838 63.4976C60.1964 62.4963 56.9377 62.6908 54.0904 64.0404C52.1902 64.8876 50.4524 66.1151 48.6489 67.1904C48.3034 67.3979 47.9925 67.6641 47.5537 67.9891L46.0992 65.6586C49.7303 63.3696 52.971 60.4721 57.5004 60.4064C59.5734 60.3718 61.6464 60.5724 63.5742 61.4679C63.899 61.6235 64.6107 61.5543 64.78 61.3261C65.1635 60.804 64.7316 60.3684 64.2237 60.1747C63.3286 59.7979 62.4042 59.4949 61.4598 59.2688C57.5937 58.4977 53.8935 58.8746 50.4904 61.0288C48.7975 62.0972 47.1011 63.1622 45.3322 64.2686L44.0573 61.9243C45.3978 61.1083 46.6243 60.154 48.0167 59.5558C50.6902 58.3851 53.426 57.3624 56.2118 56.4923C59.3868 55.5345 62.3408 56.6306 65.1946 58.0378C65.4157 58.1519 65.6368 58.3456 65.8614 58.3456C66.1412 58.3456 66.5869 58.2661 66.6629 58.0897C66.7315 57.7776 66.69 57.4514 66.5454 57.1665C66.4729 56.9971 66.2 56.8864 66.0168 56.7862C62.3961 54.8879 58.682 54.02 54.5983 55.2924C50.6631 56.5096 46.9456 58.1105 43.4285 60.6277C42.7894 58.9265 42.088 57.3567 41.5974 55.7212C40.1593 51.1614 39.4378 46.4056 39.4588 41.6241C39.5003 39.0516 39.141 36.4376 39.4588 33.91C40.1498 28.3776 38.9855 22.9179 39.331 17.4202C39.498 15.0701 39.9934 12.7552 40.8028 10.5428C42.0258 10.9923 43.2938 11.3 44.3994 11.8948C47.7437 13.6824 51.1192 15.4597 53.7933 18.2396C54.6018 19.0799 55.5657 19.8302 55.576 21.2098C55.576 21.7665 56.654 21.9014 57.2413 21.5936C58.3434 20.992 59.4939 20.4664 60.7342 19.8648C61.6394 22.216 62.4444 24.3252 63.2564 26.4344C63.4104 26.9782 63.626 27.5025 63.899 27.9973C64.1028 28.2912 64.4794 28.7856 64.9078 28.6058C65.3742 28.2774 65.2706 27.8313 65.2291 27.4683C65.16 26.794 62.5377 20.4318 62.2682 19.5951L66.8287 18.2777C67.309 20.2762 67.7512 22.1607 68.2107 24.0417C68.3524 24.6295 68.3351 25.5147 69.2092 25.3349C70.0833 25.1551 69.7827 24.2975 69.648 23.6786C69.2334 21.8184 68.7842 19.9616 68.3178 17.9492L73.6971 17.0052C73.8975 19.2424 74.0875 21.355 74.2741 23.4642C74.3432 24.2146 74.3847 24.9683 74.4952 25.7152C74.5781 26.2581 74.7647 26.8424 75.4833 26.6937C76.1467 26.5589 76.0327 26.0022 75.9774 25.4766C75.7183 22.8903 75.4971 20.2901 75.2864 17.6968C75.2785 17.3991 75.2889 17.1011 75.3175 16.8047L80.2684 16.5938C80.1786 18.9035 80.0957 21.03 80.0093 23.1634C80.0093 23.319 79.9125 23.5092 79.9713 23.6268C80.03 23.7443 80.0369 23.7547 80.0749 23.8204C80.1321 23.9303 80.2152 24.0246 80.317 24.095C80.4189 24.1655 80.5364 24.2099 80.6593 24.2246C80.7822 24.2393 80.9069 24.2236 81.0224 24.1791C81.1379 24.1346 81.2408 24.0625 81.3222 23.9691C81.3675 23.9222 81.3986 23.8635 81.412 23.7996C81.5294 23.0259 81.5929 22.2448 81.602 21.4622C81.7195 19.9581 81.8508 18.4575 81.9924 16.7528C83.8235 16.9983 85.6339 17.2335 87.579 17.4893C87.4374 18.1809 87.3234 18.7341 87.2059 19.3012C86.6946 21.7907 86.1694 24.2768 85.6857 26.7698C85.6688 26.8426 85.6688 26.9183 85.6857 26.9911C85.7166 27.1016 85.7732 27.2032 85.8509 27.2876C85.9286 27.372 86.0252 27.4368 86.1328 27.4766C86.2403 27.5164 86.3557 27.5301 86.4696 27.5167C86.5835 27.5032 86.6925 27.4629 86.7879 27.3991C86.9112 27.3322 87.0076 27.2247 87.0608 27.0948C87.4892 25.4282 87.7863 23.7236 88.1422 22.0362C88.4289 20.6877 88.7261 19.3427 89.0577 17.8178C89.9906 18.1186 90.8336 18.3849 91.6731 18.6788C91.9343 18.7856 92.1833 18.9201 92.4159 19.0799C93.404 19.6815 94.1054 19.474 95.0589 18.7341C97.6605 16.6802 100.383 14.7647 103.15 12.9321C105.158 11.5974 107.483 10.9819 109.843 10.5117C110.762 10.3284 111.321 10.567 111.694 11.4349C112.769 13.8567 113.307 16.4822 113.273 19.1317C113.225 21.5521 113.187 23.9725 112.8 26.3583C112.503 28.1909 111.739 29.9578 111.045 31.7005C110.688 32.5012 110.593 33.3941 110.772 34.2523C111.799 38.6939 112.204 43.2567 111.978 47.81C111.791 51.0982 110.907 54.2413 109.905 57.3532C109.849 57.4447 109.783 57.5294 109.708 57.6056C107.676 56.9902 105.624 56.43 103.606 55.7558C99.5223 54.3941 95.1144 54.3482 91.0029 55.6244C89.8178 55.9701 88.7433 56.7758 87.6792 57.4569C87.2508 57.7336 86.9882 58.3525 87.5272 58.7259C87.7587 58.8885 88.3495 58.6671 88.7191 58.4943C89.7556 58.0067 90.7023 57.2875 91.7837 56.9729C95.6127 55.8644 99.6908 55.9695 103.458 57.2737C105.327 57.8892 107.22 58.4355 109.196 59.044C108.851 59.7944 108.588 60.4271 108.371 60.9458C105.296 60.2819 102.356 59.5143 99.3672 59.0337C96.0574 58.5081 92.7234 58.4286 89.6036 60.0399C89.346 60.1465 89.1014 60.2822 88.8746 60.4444C88.5049 60.7902 88.4773 61.0564 88.6224 61.3261C88.9679 61.9589 89.1959 61.7998 89.5034 61.7134C89.5925 61.6909 89.6784 61.6572 89.7591 61.6131C93.214 59.7529 96.8659 60.0571 100.518 60.7452C102.853 61.1844 105.147 61.7826 107.687 62.3773C107.02 63.4422 106.505 64.2652 106.001 65.0639C104.273 64.2998 102.663 63.5045 100.998 62.8786C97.8505 61.7065 94.5925 61.7826 91.3242 62.2666C90.681 62.396 90.0717 62.6574 89.5345 63.0342C89.454 63.0783 89.3829 63.1378 89.3253 63.2093C89.2678 63.2808 89.2249 63.363 89.199 63.4512C89.1732 63.5393 89.165 63.6317 89.1748 63.723C89.1847 63.8143 89.2124 63.9028 89.2564 63.9834C89.3004 64.064 89.3598 64.1351 89.4313 64.1927C89.5028 64.2503 89.5849 64.2933 89.673 64.3191C89.761 64.345 89.8533 64.3532 89.9446 64.3434C90.0358 64.3335 90.1242 64.3058 90.2048 64.2617C94.3058 62.7991 98.2858 63.2901 102.19 64.9533C103.14 65.3613 104.042 65.8626 105.116 66.3951C104.152 67.7782 103.261 69.106 102.352 70.3957C100.794 72.5775 99.4156 74.8181 98.7557 77.4874C98.1787 79.8145 99.0079 81.8234 99.7922 83.86C99.9511 84.2611 100.504 84.5135 100.784 85.0322C82.8181 79.0434 65.4537 81.4846 48.2896 87.9816C49.7027 85.1359 51.7998 82.4458 51.7342 78.7806ZM39.1479 144.771C40.5091 144.183 41.5871 143.817 42.5648 143.277C47.7645 140.411 53.3891 139.042 59.2383 138.333C66.6145 137.444 73.9666 136.341 81.3498 135.567C85.3159 135.21 89.2982 135.065 93.2796 135.134C97.3599 135.134 101.44 135.411 105.514 135.625C106.663 135.747 107.806 135.927 108.937 136.165C109.055 136.165 109.17 136.193 109.275 136.245C109.38 136.298 109.472 136.374 109.543 136.468C109.614 136.561 109.662 136.67 109.684 136.785C109.706 136.901 109.701 137.02 109.67 137.133C109.234 140.777 108.789 144.415 108.398 148.056C108.284 149.093 107.787 149.705 106.875 150.2C105.873 150.722 104.944 151.373 104.111 152.136C102.891 153.284 101.419 153.789 99.8786 154.245C92.3745 156.465 84.6976 157.907 76.9724 159.086C72.2461 159.805 67.4645 159.732 62.6932 159.411C58.6889 159.141 54.6847 158.833 50.677 158.533C49.1879 158.419 47.6954 158.287 46.2132 158.104C45.8571 158.033 45.5313 157.855 45.2804 157.592C44.1852 156.51 43.0761 155.441 42.0811 154.273C41.6803 153.799 41.5041 153.104 41.3245 152.478C40.5782 149.892 39.863 147.305 39.1479 144.771ZM53.4858 180.126C51.8896 179.396 50.2589 178.764 48.5004 178.051C48.5004 177.851 48.5211 177.578 48.528 177.284C50.062 177.315 51.4647 177.63 52.6739 178.598C52.7983 178.691 52.9399 178.843 53.0712 178.84C53.4616 178.84 53.8486 178.774 54.239 178.736C54.1215 178.356 54.1215 177.83 53.8658 177.619C52.4666 176.495 50.8739 175.787 49.0082 175.852C48.9737 175.773 48.9322 175.69 48.8977 175.61C49.2319 175.3 49.6019 175.031 49.9998 174.808C51.5925 174.155 53.2094 174.32 54.778 174.905C57.1335 175.799 59.297 177.134 61.1523 178.84C63.5016 180.956 65.7473 183.196 68.0829 185.337C69.6082 186.688 71.3635 187.755 73.2653 188.487C74.4814 188.981 75.7528 189.358 76.9759 189.832C77.2592 189.939 77.6219 190.222 77.6668 190.468C77.6551 190.633 77.6091 190.794 77.5318 190.941C77.4544 191.087 77.3475 191.216 77.2177 191.319C74.706 193.355 72.1355 193.521 69.1608 191.972C65.7681 190.205 62.4444 188.31 59.0344 186.575C56.502 185.285 53.852 184.199 51.2954 182.972C49.9134 182.304 49.3814 181.589 48.8769 179.811L51.8724 181.046C52.2289 181.242 52.6134 181.384 53.0125 181.464C53.358 181.485 53.7035 181.257 54.049 181.139C53.8659 180.783 53.7691 180.254 53.4893 180.126H53.4858ZM77.6116 189.241C75.4592 188.203 73.3378 187.09 71.258 185.866C74.4399 185.174 77.6876 186.184 80.7314 184.828L81.0388 185.174C80.1958 186.44 79.3805 187.716 78.496 188.95C78.3852 189.068 78.2465 189.157 78.0926 189.208C77.9386 189.259 77.7744 189.27 77.615 189.241H77.6116ZM72.6607 179.483C70.6637 179.331 68.6495 179.483 66.6387 179.483C65.8026 179.483 64.9631 179.459 64.127 179.396C63.9473 179.396 63.7642 179.185 63.6087 179.051C63.1665 178.653 62.7416 178.235 62.3063 177.827C61.8709 177.419 61.3527 177.045 61.2698 176.201C61.2007 175.531 60.3888 174.929 59.8083 174.165C60.8828 174.355 61.9711 174.455 63.011 174.749C66.0617 175.61 69.1435 175.607 72.2426 175.181C74.8476 174.836 77.4596 174.459 80.0335 173.944C82.6074 173.428 85.1329 172.713 87.313 172.18C86.3076 173.428 85.0949 174.981 83.8166 176.482C83.469 176.798 83.0613 177.042 82.6178 177.197C79.4738 178.653 76.2572 179.759 72.6607 179.483ZM78.4097 166.299C73.8699 166.831 69.2887 167.115 64.7212 167.336C62.8625 167.419 60.9657 167.094 59.1139 166.79C57.1169 166.444 55.1614 165.697 53.1576 165.552C51.672 165.448 51.057 164.594 50.3177 163.647C49.3365 162.398 48.3414 161.157 47.2393 159.781C47.7403 159.781 48.103 159.736 48.4624 159.76C54.9749 160.217 61.484 160.829 68 161.095C73.6315 161.326 79.2077 160.531 84.7045 159.273C89.5691 158.159 94.4324 157.061 99.2947 155.977C99.4122 155.946 99.54 155.939 99.7266 155.912C98.3066 157.599 96.9626 159.248 95.553 160.842C95.2662 161.157 94.7307 161.247 94.3265 161.472C89.3583 164.151 83.9893 165.645 78.42 166.299H78.4097ZM14.4382 174.511C13.5351 172.902 12.9223 171.146 12.6279 169.324C12.1096 166.029 12.1821 162.667 12.8421 159.397C13.5123 156.14 15.6406 153.989 18.6049 152.827C20.6156 152.032 22.813 151.724 24.9274 151.202C24.9516 151.309 24.9792 151.413 25.0034 151.52C19.8694 158.408 15.4954 165.662 14.4486 174.511H14.4382ZM21.97 184.068C21.9389 184.182 21.8767 184.289 21.7523 184.583C20.8437 183.677 19.9938 182.854 19.1957 182.007C19.0925 181.783 19.0789 181.528 19.1577 181.295C20.8851 174.279 23.0306 167.464 27.2422 161.444C29.4119 158.353 31.7336 155.407 34.5632 152.879C35.192 152.319 35.7759 152.188 36.5152 152.533C37.3202 152.935 38.1356 153.329 38.7989 153.654C35.6446 158.273 32.6111 162.834 29.4499 167.312C25.8967 172.364 23.3597 178.06 21.9803 184.082L21.97 184.068ZM29.9163 190.292C30.1996 177.661 36.1974 167.796 44.2646 158.737C45.2735 159.898 46.2339 161.001 47.2428 162.156C40.022 170.897 34.19 180.257 33.5578 192.173C32.1966 191.471 30.9597 190.838 29.9267 190.305L29.9163 190.292ZM81.3671 198.21C79.5288 199.153 77.5143 199.701 75.4522 199.821C73.0338 199.973 70.6153 200.198 68.2211 200.101C65.4571 199.99 62.7277 199.61 59.9914 199.264C56.5365 198.829 53.0816 198.469 49.6612 197.791C45.1698 196.896 40.9064 195.146 36.6776 193.379C35.0883 192.719 35.0261 192.729 35.1574 191C35.5646 185.431 37.2379 180.029 40.0496 175.206C42.1986 171.53 44.7898 168.114 47.1978 164.594C47.4996 164.198 47.8225 163.818 48.1652 163.456C49.8547 165.427 51.4992 167.326 53.0954 169.255C53.5756 169.839 53.9108 170.538 54.3357 171.167C54.4909 171.359 54.6683 171.532 54.8643 171.682L57.345 174.03C57.2897 174.106 57.2275 174.179 57.1722 174.251C56.6056 174.009 56.0459 173.74 55.4724 173.529C53.4374 172.785 51.361 172.547 49.3261 173.432C48.6917 173.752 48.1379 174.212 47.7057 174.777C46.5414 176.177 46.8005 180.544 48.1756 182.073C50.3176 184.445 53.0367 185.745 55.925 186.841C57.0337 187.262 58.12 187.739 59.1795 188.272C61.1661 189.268 63.1354 190.312 65.1013 191.364C65.9952 191.819 66.8616 192.327 67.6959 192.885C70.1973 194.614 74.6991 195.305 77.6323 192.816C78.154 192.366 78.4338 191.644 78.8415 191.063C79.1117 190.663 79.4023 190.278 79.7122 189.908C81.488 187.833 82.4554 185.413 83.022 182.74C84.0585 177.796 86.66 173.895 91.3138 171.61C92.0206 171.312 92.7439 171.054 93.48 170.839C93.5146 170.922 93.5491 171.008 93.5802 171.091C92.751 171.741 91.8804 172.35 91.1031 173.062C90.7463 173.405 90.4896 173.839 90.3602 174.317C90.3542 174.477 90.3891 174.636 90.4616 174.779C90.5342 174.922 90.642 175.044 90.7748 175.133C90.9283 175.17 91.0887 175.166 91.2402 175.122C91.3918 175.078 91.5291 174.994 91.6386 174.881C92.4608 173.449 93.8014 172.761 95.2351 172.166C95.5039 172.037 95.7657 171.894 96.0194 171.738C96.2474 171.959 96.4858 172.197 96.6413 172.353C95.3008 173.176 93.9603 173.906 92.7338 174.791C92.2466 175.137 91.9702 175.828 91.6973 176.388C91.6282 176.533 91.9011 176.976 92.1153 177.08C92.2463 177.106 92.3814 177.102 92.511 177.07C92.6406 177.038 92.7615 176.977 92.8651 176.893C94.247 175.811 95.629 174.701 97.011 173.598C97.1353 173.674 97.2597 173.753 97.3772 173.836C97.2943 174.282 97.3495 174.832 97.1008 175.157C96.3936 176.184 95.573 177.128 94.6547 177.972C92.5817 179.701 91.1652 181.855 90.0942 184.324C88.771 187.377 87.3786 190.406 85.7825 193.314C84.7322 195.257 83.5022 197.114 81.3774 198.22L81.3671 198.21ZM96.2233 194.78C93.1835 194.882 90.1411 194.684 87.1402 194.188C88.8677 190.703 90.5157 187.411 92.105 184.085C93.2866 181.623 95.0831 179.701 97.0351 177.861C98.4655 176.516 99.3327 174.901 98.6279 172.882C97.8885 170.759 96.2682 169.718 94.0881 169.473C93.905 169.473 93.7426 169.417 93.3487 169.352C94.025 166.671 95.1639 164.13 96.7138 161.842C107.794 168.045 113.84 177.927 117.789 189.576C110.744 192.228 103.727 194.572 96.2233 194.8V194.78ZM123.033 186.965C121.769 187.581 120.529 188.245 119.199 188.929C115.129 177.087 108.91 166.98 97.5568 160.576C99.0045 159.058 100.3 157.665 101.665 156.34C101.824 156.185 102.414 156.34 102.701 156.496C106.526 158.591 109.639 161.524 112.468 164.812C115.813 168.688 118.777 172.813 120.76 177.557C121.855 180.188 122.657 182.937 123.617 185.624C123.859 186.326 123.645 186.678 123.033 186.976V186.965ZM136.922 151.503C141.03 156.119 142.105 161.876 139.71 166.783C138.007 162.773 135.567 159.118 132.517 156.008C129.494 152.976 126.298 150.11 123.244 147.229C127.4 145.729 133.405 147.548 136.922 151.503ZM112.738 149.159C113.398 149.664 113.861 150.072 114.365 150.4C116.583 151.825 118.856 153.139 121.023 154.653C124.757 157.277 127.687 160.735 130.465 164.314C132.714 167.302 134.545 170.582 135.91 174.065C135.989 174.286 136.02 174.522 136.001 174.756C135.982 174.99 135.913 175.218 135.799 175.423C134.621 177.042 133.35 178.591 131.975 180.337C131.69 179.86 131.441 179.363 131.229 178.85C129.501 173.235 126.26 168.477 122.812 163.819C119.782 159.712 115.678 156.904 111.66 153.937C110.751 153.27 109.794 152.675 108.861 152.036C108.633 151.883 108.426 151.69 108.17 151.5L112.738 149.159ZM109.072 127.832C109.273 130.103 109.518 132.375 109.732 134.543C107.314 134.353 105.106 134.142 102.888 134.014C100.1 133.852 97.3081 133.748 94.5165 133.637C88.6523 133.444 82.7822 133.747 76.9689 134.543C69.9693 135.432 62.9627 136.237 55.9803 137.261C51.5616 137.86 47.2739 139.194 43.2938 141.206C41.936 141.898 40.5298 142.534 38.8818 143.329C38.7644 140.383 38.6538 137.645 38.5364 134.955C46.7107 131.072 55.3757 129.702 63.975 128.177C68.7877 127.323 73.6488 126.646 78.4857 126.144C86.6393 125.304 94.824 125.01 103.016 125.733C104.695 125.878 106.346 126.314 108.011 126.618C108.311 126.646 108.589 126.787 108.788 127.012C108.988 127.238 109.094 127.531 109.086 127.832H109.072ZM105.075 112.77C105.281 112.908 105.43 113.115 105.496 113.354C105.945 114.82 106.367 116.29 106.816 117.832C104.235 117.161 101.844 116.369 99.388 115.944C96.3055 115.384 93.1891 115.029 90.0597 114.883C86.016 114.711 81.9659 114.774 77.9294 115.069C73.2791 115.443 68.6426 116.086 64.0441 116.881C57.4523 118.006 50.9862 119.773 44.7379 122.158C43.4873 122.645 42.2607 123.195 40.8166 123.803C41.6078 121.604 42.3333 119.544 43.1141 117.503C43.197 117.279 43.6013 117.158 43.8673 117.023C48.3034 114.575 53.0608 113.029 58.0118 112.051C65.7923 110.505 73.6142 109.143 81.526 108.496C86.3007 108.105 91.0512 108.61 95.7361 109.641C97.6363 110.056 99.5676 110.353 101.416 110.934C102.718 111.338 103.883 112.123 105.089 112.77H105.075ZM116.217 110.609C114.697 109.537 113.218 108.496 111.829 107.497C112.824 105.007 113.778 102.608 114.752 100.177C116.079 101.449 117.405 102.729 118.763 104.029C118.041 106.231 117.644 108.538 116.231 110.609H116.217ZM123.265 114.295L125.566 108.441L128.941 109.575C128.195 111.574 127.477 113.499 126.71 115.564L123.265 114.295ZM152.162 108.472C151.005 111.432 148.783 113.41 146.074 114.889C141.852 117.189 137.302 117.275 132.683 116.739C131.197 116.57 129.722 116.304 128.098 116.048C128.931 113.873 129.667 111.947 130.424 109.976C133.954 110.892 137.454 111.076 140.743 110.322L141.006 110.668C141.105 110.792 141.231 110.893 141.374 110.961C141.518 111.029 141.675 111.064 141.834 111.061C141.993 111.059 142.15 111.02 142.291 110.948C142.433 110.875 142.556 110.771 142.651 110.643C142.676 110.6 142.699 110.555 142.72 110.509C143.608 108.391 144.794 106.411 146.244 104.63C146.631 104.152 147.119 103.764 147.672 103.494C148.225 103.224 148.831 103.079 149.446 103.068C149.798 103.071 150.145 103.146 150.467 103.287C150.79 103.428 151.08 103.632 151.322 103.887C152.438 105.211 152.815 106.795 152.176 108.472H152.162Z" fill="#252B31"/>
<path d="M152.177 108.472C151.019 111.432 148.798 113.41 146.089 114.889C141.867 117.189 137.317 117.275 132.698 116.739C131.212 116.57 129.737 116.304 128.113 116.048C128.946 113.873 129.682 111.947 130.438 109.976C133.969 110.892 137.469 111.076 140.758 110.322L141.021 110.668C141.119 110.792 141.245 110.893 141.389 110.961C141.533 111.029 141.69 111.064 141.849 111.061C142.008 111.059 142.164 111.02 142.306 110.948C142.448 110.875 142.571 110.771 142.665 110.643C142.691 110.6 142.714 110.555 142.735 110.509C143.622 108.391 144.809 106.411 146.259 104.63C146.646 104.152 147.134 103.764 147.687 103.494C148.24 103.224 148.846 103.079 149.461 103.068C149.813 103.071 150.16 103.146 150.482 103.287C150.805 103.428 151.095 103.632 151.337 103.887C152.439 105.211 152.816 106.795 152.177 108.472Z" fill="white"/>
<path d="M128.956 109.575C128.21 111.573 127.491 113.499 126.724 115.564L123.27 114.295L125.571 108.441L128.956 109.575Z" fill="white"/>
<path d="M118.778 104.043C118.042 106.231 117.645 108.538 116.231 110.612C114.711 109.54 113.233 108.5 111.844 107.5C112.839 105.011 113.792 102.611 114.767 100.18C116.093 101.463 117.42 102.743 118.778 104.043Z" fill="white"/>
<path d="M26.9345 118.558C23.8349 119.851 20.5847 120.748 17.2607 121.227C13.1406 121.903 8.91281 121.206 5.22724 119.243C3.95392 118.61 2.89524 117.615 2.18345 116.383C1.72966 115.623 1.48461 114.755 1.47308 113.87C1.46156 112.984 1.68396 112.111 2.1178 111.338C3.24411 109.233 6.19807 108.838 8.15356 110.502C9.4768 111.632 10.5996 112.922 11.1766 114.651C11.229 114.798 11.2902 114.943 11.3597 115.083C11.6016 115.557 11.9125 116.024 12.5137 115.75C13.1148 115.477 12.9697 114.955 12.7382 114.464C12.6208 114.219 12.5448 113.949 12.41 113.586C15.7993 114.004 19.0158 113.828 21.9629 112.438C22.6159 112.13 23.2654 111.802 23.908 111.463C24.4194 113.638 25.8359 116.708 26.9345 118.558Z" fill="white"/>
<path d="M33.5384 114.907L28.0934 118.057C27.5061 116.674 26.936 115.356 26.4108 114.042C26.1552 113.403 25.5057 111.394 25.2051 110.775C26.9084 109.824 28.5805 108.814 30.2665 107.867L33.5384 114.907Z" fill="white"/>
<path d="M45.3157 105.395C44.0028 106.809 42.6347 108.182 41.1698 109.686C40.8243 108.994 40.5548 108.507 40.3302 108.002C39.432 105.996 38.5371 103.987 37.6768 101.965C37.6286 101.834 37.6113 101.694 37.6263 101.555C37.6413 101.416 37.6882 101.283 37.7632 101.166C39.2039 99.6894 40.6861 98.251 42.151 96.7953C42.6692 98.2717 43.1391 99.7586 43.7092 101.214C44.1548 102.348 44.7456 103.438 45.2259 104.558C45.3364 104.81 45.447 105.246 45.3157 105.395Z" fill="white"/>
<path d="M81.0426 185.167C80.1996 186.433 79.3843 187.709 78.4998 188.943C78.3894 189.063 78.2504 189.154 78.0957 189.206C77.9411 189.258 77.7759 189.27 77.6153 189.241C75.4629 188.203 73.3416 187.09 71.2617 185.866C74.4437 185.174 77.6913 186.184 80.7351 184.828L81.0426 185.167Z" fill="white"/>
<path d="M77.2065 191.308C74.6948 193.345 72.1243 193.511 69.1496 191.962C65.7569 190.195 62.4333 188.3 59.0233 186.564C56.4908 185.275 53.8409 184.189 51.2842 182.961C49.9023 182.294 49.3702 181.578 48.8658 179.801L51.8612 181.035C52.2177 181.232 52.6022 181.373 53.0013 181.454C53.3468 181.475 53.6923 181.246 54.0378 181.129C53.8581 180.783 53.7614 180.254 53.4815 180.126C51.8854 179.396 50.2547 178.764 48.4961 178.051C48.4961 177.851 48.5168 177.578 48.5237 177.284C50.0577 177.315 51.4604 177.63 52.6696 178.598C52.794 178.691 52.9357 178.843 53.067 178.84C53.4574 178.84 53.8443 178.774 54.2347 178.736C54.1173 178.356 54.1173 177.83 53.8616 177.619C52.4624 176.495 50.8696 175.787 49.004 175.852C48.9694 175.773 48.928 175.69 48.8934 175.61C49.2277 175.3 49.5976 175.031 49.9955 174.808C51.5883 174.155 53.2052 174.32 54.7737 174.905C57.1292 175.799 59.2927 177.134 61.148 178.84C63.4974 180.956 65.7431 183.196 68.0786 185.337C69.604 186.688 71.3592 187.755 73.261 188.487C74.4771 188.981 75.7485 189.358 76.9716 189.832C77.2549 189.939 77.6177 190.222 77.6626 190.468C77.6486 190.632 77.6008 190.791 77.5223 190.936C77.4439 191.08 77.3363 191.207 77.2065 191.308Z" fill="white"/>
<path d="M25.0137 151.503C19.8693 158.419 15.4953 165.68 14.4485 174.511C13.5454 172.902 12.9325 171.146 12.6381 169.324C12.1199 166.029 12.1924 162.667 12.8523 159.397C13.5226 156.14 15.6508 153.989 18.6151 152.827C20.6259 152.032 22.8232 151.724 24.9377 151.202C24.9618 151.292 24.9826 151.396 25.0137 151.503Z" fill="white"/>
<path d="M38.8021 153.654C35.6478 158.273 32.6143 162.834 29.4531 167.312C25.8987 172.364 23.3605 178.059 21.9801 184.082C21.949 184.196 21.8868 184.303 21.7624 184.597C20.8538 183.691 20.0038 182.868 19.2058 182.021C19.1026 181.797 19.089 181.542 19.1678 181.309C20.8952 174.293 23.0407 167.478 27.2523 161.458C29.422 158.367 31.7437 155.421 34.5733 152.893C35.2021 152.333 35.786 152.202 36.5253 152.547C37.3303 152.962 38.1457 153.343 38.8021 153.654Z" fill="white"/>
<path d="M47.2522 162.167C40.0315 170.908 34.1995 180.268 33.5673 192.183C32.1853 191.471 30.9588 190.838 29.9258 190.302C30.2091 177.671 36.2068 167.806 44.2741 158.747C45.2829 159.909 46.2434 161.012 47.2522 162.167Z" fill="white"/>
<path d="M97.3842 173.857C97.3013 174.303 97.3566 174.853 97.1079 175.178C96.4006 176.205 95.5801 177.149 94.6618 177.993C92.5888 179.721 91.1723 181.876 90.1013 184.344C88.778 187.398 87.3857 190.426 85.7895 193.334C84.7323 195.257 83.5023 197.114 81.3776 198.22C79.5393 199.163 77.5248 199.712 75.4627 199.831C73.0443 199.984 70.6258 200.208 68.2316 200.112C65.4676 200.001 62.7382 199.621 60.0019 199.275C56.547 198.839 53.0921 198.479 49.6717 197.802C45.1803 196.906 40.9169 195.157 36.6881 193.39C35.0988 192.729 35.0366 192.74 35.1679 191.011C35.5751 185.442 37.2484 180.039 40.0601 175.216C42.2091 171.54 44.8003 168.124 47.2084 164.604C47.5101 164.208 47.8331 163.828 48.1757 163.467C49.8652 165.438 51.5097 167.336 53.1059 169.265C53.5862 169.85 53.9213 170.548 54.3462 171.177C54.5014 171.37 54.6788 171.543 54.8748 171.693L57.3555 174.04C57.3002 174.116 57.238 174.189 57.1827 174.262C56.6161 174.02 56.0564 173.75 55.4829 173.539C53.448 172.796 51.3715 172.557 49.3366 173.442C48.7022 173.763 48.1483 174.223 47.7162 174.787C46.5519 176.188 46.811 180.555 48.1861 182.083C50.3281 184.455 53.0472 185.755 55.9355 186.851C57.0443 187.272 58.1305 187.75 59.19 188.283C61.1766 189.279 63.1459 190.323 65.1118 191.374C66.0057 191.83 66.8721 192.338 67.7064 192.895C70.2078 194.624 74.7096 195.316 77.6428 192.826C78.1645 192.377 78.4443 191.654 78.852 191.073C79.1222 190.673 79.4128 190.288 79.7227 189.918C81.4985 187.844 82.4659 185.423 83.0325 182.75C84.069 177.806 86.6705 173.906 91.3243 171.62C92.0311 171.322 92.7544 171.064 93.4905 170.849C93.5251 170.932 93.5596 171.018 93.5907 171.101C92.7616 171.751 91.8909 172.36 91.1135 173.072C90.7568 173.416 90.5001 173.849 90.3707 174.327C90.3647 174.488 90.3996 174.646 90.4721 174.789C90.5447 174.932 90.6525 175.054 90.7853 175.143C90.9388 175.18 91.0992 175.177 91.2508 175.132C91.4023 175.088 91.5396 175.005 91.6491 174.891C92.4713 173.46 93.8119 172.771 95.2456 172.177C95.5144 172.048 95.7762 171.905 96.0299 171.748C96.2579 171.969 96.4963 172.208 96.6518 172.363C95.3113 173.186 93.9708 173.916 92.7443 174.801C92.2571 175.147 91.9807 175.838 91.7078 176.399C91.6387 176.544 91.9117 176.986 92.1259 177.09C92.2569 177.116 92.3919 177.113 92.5215 177.08C92.6511 177.048 92.772 176.988 92.8756 176.903C94.2575 175.821 95.6395 174.711 97.0215 173.608C97.1424 173.708 97.2668 173.774 97.3842 173.857Z" fill="white"/>
<path d="M139.716 166.793C138.013 162.783 135.573 159.128 132.523 156.019C129.5 152.986 126.304 150.12 123.25 147.24C127.396 145.739 133.404 147.558 136.928 151.513C141.036 156.119 142.124 161.876 139.716 166.793Z" fill="white"/>
<path d="M135.813 175.437C134.635 177.056 133.363 178.605 131.988 180.351C131.703 179.874 131.454 179.377 131.242 178.864C129.514 173.249 126.274 168.491 122.826 163.833C119.796 159.726 115.691 156.918 111.673 153.951C110.764 153.284 109.807 152.689 108.875 152.049C108.647 151.897 108.439 151.704 108.184 151.514L112.737 149.159C113.397 149.664 113.86 150.072 114.364 150.4C116.583 151.825 118.856 153.139 121.022 154.653C124.757 157.278 127.687 160.735 130.464 164.314C132.713 167.302 134.545 170.582 135.909 174.065C135.993 174.287 136.027 174.525 136.01 174.762C135.994 174.998 135.926 175.229 135.813 175.437Z" fill="white"/>
<path d="M123.033 186.976C121.769 187.591 120.528 188.255 119.198 188.94C115.128 177.097 108.91 166.99 97.5566 160.586C99.0043 159.069 100.3 157.675 101.665 156.351C101.823 156.195 102.414 156.351 102.701 156.506C106.526 158.602 109.639 161.534 112.468 164.822C115.812 168.698 118.777 172.823 120.76 177.567C121.855 180.199 122.657 182.947 123.617 185.634C123.859 186.326 123.645 186.678 123.033 186.976Z" fill="white"/>
<path d="M117.8 189.583C110.745 192.228 103.728 194.572 96.2236 194.79C93.1839 194.893 90.1415 194.694 87.1406 194.199C88.8681 190.713 90.5161 187.422 92.1054 184.095C93.287 181.634 95.0835 179.711 97.0355 177.872C98.4659 176.527 99.3331 174.912 98.6282 172.892C97.8889 170.769 96.2685 169.729 94.0885 169.483C93.9054 169.483 93.743 169.428 93.3491 169.362C94.0254 166.682 95.1642 164.14 96.7142 161.852C107.794 168.052 113.84 177.934 117.8 189.583Z" fill="white"/>
<path d="M87.323 172.159C86.3176 173.408 85.105 174.96 83.8266 176.461C83.4791 176.777 83.0713 177.021 82.6278 177.177C79.4734 178.653 76.2569 179.759 72.6707 179.483C70.6737 179.331 68.6595 179.483 66.6487 179.483C65.8126 179.483 64.9731 179.459 64.137 179.396C63.9574 179.396 63.7743 179.185 63.6188 179.051C63.1765 178.653 62.7516 178.235 62.3163 177.827C61.8809 177.419 61.3627 177.045 61.2798 176.201C61.2107 175.531 60.3988 174.929 59.8184 174.165C60.8928 174.355 61.9811 174.455 63.0211 174.749C66.0718 175.61 69.1536 175.607 72.2526 175.181C74.8577 174.836 77.4696 174.459 80.0435 173.944C82.6174 173.428 85.143 172.692 87.323 172.159Z" fill="white"/>
<path d="M99.7373 155.898C98.3173 157.585 96.9733 159.235 95.5637 160.829C95.2769 161.143 94.7414 161.233 94.3372 161.458C89.3587 164.151 83.9724 165.645 78.4203 166.299C73.8806 166.831 69.2993 167.115 64.7319 167.336C62.8732 167.419 60.9764 167.094 59.1246 166.79C57.1276 166.444 55.1722 165.697 53.1683 165.552C51.6827 165.448 51.0677 164.594 50.3283 163.647C49.3471 162.398 48.3521 161.157 47.25 159.781C47.751 159.781 48.1137 159.736 48.473 159.76C54.9856 160.217 61.4947 160.829 68.0106 161.095C73.6422 161.326 79.2184 160.531 84.7152 159.273C89.5798 158.159 94.4432 157.061 99.3054 155.977C99.4229 155.932 99.5507 155.925 99.7373 155.898Z" fill="white"/>
<path d="M108.938 136.168C107.807 135.931 106.664 135.751 105.514 135.629C101.441 135.414 97.3605 135.155 93.2802 135.138C89.2987 135.069 85.3164 135.213 81.3504 135.57C73.9603 136.341 66.6082 137.444 59.2388 138.336C53.3897 139.028 47.765 140.411 42.5654 143.281C41.5876 143.82 40.5097 144.187 39.1484 144.774C39.8602 147.309 40.5753 149.895 41.325 152.478C41.5047 153.104 41.6705 153.799 42.0817 154.273C43.0767 155.441 44.1857 156.51 45.2809 157.592C45.5319 157.855 45.8576 158.033 46.2138 158.104C47.6959 158.287 49.1885 158.419 50.6775 158.533C54.6852 158.833 58.6895 159.141 62.6938 159.411C67.465 159.732 72.2466 159.805 76.973 159.086C84.6982 157.914 92.375 156.472 99.8791 154.245C101.42 153.789 102.892 153.284 104.111 152.136C104.945 151.373 105.874 150.722 106.875 150.2C107.787 149.705 108.285 149.107 108.399 148.056C108.789 144.415 109.235 140.777 109.67 137.133C109.701 137.02 109.705 136.901 109.683 136.786C109.661 136.671 109.612 136.563 109.542 136.47C109.471 136.377 109.38 136.301 109.275 136.249C109.17 136.196 109.055 136.169 108.938 136.168ZM75.6912 148.616C75.6965 148.757 75.6718 148.899 75.6188 149.03C75.5657 149.161 75.4854 149.28 75.3833 149.378C75.2811 149.476 75.1594 149.551 75.026 149.598C74.8927 149.646 74.7509 149.665 74.6098 149.653C73.9534 149.653 73.525 149.007 73.5733 148.063C73.6873 147.503 73.715 146.766 74.634 146.763C75.2662 146.77 75.7707 147.696 75.7016 148.616H75.6912Z" fill="white"/>
<path d="M109.745 134.543C107.326 134.353 105.119 134.142 102.9 134.014C100.112 133.851 97.3207 133.748 94.5292 133.637C88.6649 133.444 82.7949 133.747 76.9816 134.543C69.9819 135.432 62.9753 136.237 55.9929 137.261C51.5695 137.859 47.277 139.192 43.2926 141.206C41.9348 141.898 40.5286 142.534 38.8806 143.329C38.7632 140.383 38.6526 137.645 38.5352 134.954C46.7095 131.071 55.3745 129.702 63.9738 128.177C68.7865 127.323 73.6476 126.646 78.4845 126.144C86.6381 125.304 94.8228 125.01 103.014 125.733C104.694 125.878 106.345 126.314 108.01 126.618C108.308 126.649 108.583 126.792 108.78 127.018C108.976 127.244 109.08 127.536 109.071 127.835C109.282 130.103 109.53 132.375 109.745 134.543Z" fill="white"/>
<path d="M101.755 101.297C101.755 101.297 101.727 101.346 101.658 101.453C96.403 99.5684 90.9477 98.8837 85.4475 98.8284C81.0148 98.78 76.5579 99.3056 72.1391 99.8069C65.8096 100.526 59.5148 101.536 53.3892 103.351C51.9174 103.787 50.4594 104.274 48.9911 104.734C48.5903 103.918 51.4821 97.5975 52.1385 97.3416C55.9113 95.8755 59.8395 95.0803 63.8265 94.5478C66.7148 94.1605 69.6031 93.5416 72.5018 93.4862C78.6343 93.386 84.8083 92.9711 90.8786 94.3818C93.8982 95.0733 96.9155 95.7799 99.9305 96.5014C100.015 96.5226 100.095 96.5612 100.164 96.6147C100.233 96.6683 100.29 96.7357 100.331 96.8126C100.825 98.3097 101.288 99.8035 101.755 101.297Z" fill="white"/>
<path d="M106.832 117.832C104.251 117.161 101.86 116.369 99.4034 115.944C96.3209 115.384 93.2046 115.029 90.0751 114.883C86.0315 114.711 81.9813 114.774 77.9449 115.069C73.2945 115.443 68.658 116.086 64.0595 116.881C57.4677 118.006 51.0016 119.773 44.7534 122.158C43.5027 122.645 42.2762 123.195 40.832 123.803C41.6232 121.604 42.3487 119.544 43.1296 117.503C43.2125 117.279 43.6167 117.158 43.8827 117.023C48.3189 114.575 53.0763 113.029 58.0272 112.051C65.8077 110.505 73.6297 109.143 81.5414 108.496C86.3162 108.105 91.0667 108.61 95.7516 109.641C97.6518 110.056 99.5831 110.353 101.431 110.934C102.72 111.338 103.888 112.123 105.094 112.77C105.299 112.908 105.449 113.115 105.515 113.354C105.961 114.82 106.382 116.29 106.832 117.832Z" fill="white"/>
<path d="M112.8 26.3376C113.187 23.9656 113.225 21.5245 113.273 19.111C113.309 16.462 112.773 13.8365 111.701 11.4142C111.328 10.5463 110.768 10.3077 109.849 10.491C107.489 10.9647 105.164 11.5801 103.157 12.9114C100.393 14.7439 97.6671 16.6595 95.0655 18.7134C94.112 19.4637 93.4106 19.6712 92.4225 19.0591C92.1899 18.8993 91.9409 18.7649 91.6797 18.6581C90.8402 18.3642 89.9972 18.0979 89.0643 17.7971C88.7188 19.3219 88.4355 20.667 88.1488 22.0155C87.8033 23.7028 87.4958 25.4075 87.0674 27.0741C87.0142 27.204 86.9178 27.3115 86.7944 27.3784C86.6991 27.4422 86.5901 27.4825 86.4762 27.496C86.3623 27.5094 86.2469 27.4957 86.1393 27.4559C86.0318 27.416 85.9352 27.3513 85.8575 27.2669C85.7798 27.1825 85.7232 27.0809 85.6923 26.9704C85.6754 26.8976 85.6754 26.8219 85.6923 26.7491C86.1622 24.2561 86.7012 21.77 87.2125 19.2804C87.33 18.7134 87.444 18.1429 87.5856 17.4686C85.6405 17.2127 83.8301 16.9776 81.999 16.7321C81.8574 18.4368 81.7261 19.9374 81.6086 21.4415C81.5995 22.2241 81.536 23.0051 81.4186 23.7789C81.4052 23.8427 81.3741 23.9015 81.3288 23.9484C81.2474 24.0417 81.1445 24.1138 81.029 24.1584C80.9135 24.2029 80.7888 24.2185 80.6659 24.2039C80.543 24.1892 80.4255 24.1447 80.3236 24.0743C80.2218 24.0039 80.1387 23.9096 80.0815 23.7997C80.0435 23.734 80.0124 23.6717 79.9779 23.606C79.9433 23.5403 80.0124 23.2983 80.0159 23.1427C80.1023 21.0162 80.1852 18.8897 80.275 16.5731L75.3241 16.784C75.2955 17.0804 75.2851 17.3783 75.293 17.6761C75.521 20.2728 75.7421 22.8626 75.984 25.4559C76.0393 25.9884 76.1533 26.5382 75.4899 26.673C74.7713 26.8217 74.5847 26.2373 74.5018 25.6945C74.3913 24.9476 74.3498 24.1938 74.2807 23.4435C74.0941 21.3343 73.9041 19.2217 73.7037 16.9845L68.3106 17.9146C68.777 19.927 69.2262 21.7838 69.6407 23.6441C69.7755 24.263 70.1244 25.1032 69.202 25.3003C68.2795 25.4974 68.3451 24.6088 68.2035 24.0071C67.7474 22.1261 67.3052 20.2417 66.8215 18.2431L62.261 19.5605C62.5305 20.3973 65.1528 26.7595 65.2219 27.4337C65.2633 27.7968 65.367 28.2428 64.9006 28.5713C64.4722 28.7511 64.0956 28.2566 63.8917 27.9627C63.6188 27.468 63.4032 26.9436 63.2491 26.3999C62.4372 24.2976 61.6322 22.1884 60.727 19.8302C59.4867 20.4353 58.3362 20.9609 57.2341 21.5591C56.6468 21.8772 55.5723 21.732 55.5688 21.1753C55.5688 19.7922 54.5945 19.0453 53.7861 18.2051C51.112 15.4389 47.7365 13.6478 44.3921 11.8602C43.2866 11.2655 42.0186 10.9578 40.7956 10.5082C39.9842 12.7318 39.4899 15.0586 39.3272 17.4202C38.9817 22.918 40.1495 28.388 39.4551 33.91C39.1407 36.441 39.5 39.0516 39.4551 41.6241C39.4248 46.4054 40.1369 51.1623 41.566 55.7247C42.0566 57.3602 42.758 58.9299 43.3971 60.6311C46.9142 58.1139 50.6317 56.513 54.5669 55.2959C58.6506 54.0373 62.3647 54.8913 65.9854 56.7896C66.1824 56.8899 66.4415 57.0006 66.514 57.17C66.6586 57.4549 66.7001 57.7811 66.6315 58.0932C66.5555 58.2695 66.1098 58.356 65.83 58.3491C65.6054 58.3491 65.3843 58.1554 65.1632 58.0413C62.3267 56.634 59.3727 55.5379 56.1803 56.4957C53.4027 57.369 50.675 58.394 48.0095 59.5662C46.6275 60.1644 45.3906 61.1187 44.0501 61.9347L45.325 64.279C47.0939 63.1726 48.7799 62.1076 50.4832 61.0392C53.8863 58.885 57.5865 58.5081 61.4526 59.2792C62.397 59.5053 63.3214 59.8083 64.2165 60.1851C64.7244 60.3787 65.1562 60.8144 64.7727 61.3365C64.6 61.5647 63.8917 61.6339 63.567 61.4783C61.6253 60.5827 59.5696 60.3822 57.4932 60.4168C52.95 60.4859 49.7093 63.38 46.092 65.669L47.5465 67.9995C47.9853 67.6745 48.2962 67.4082 48.6417 67.2008C50.4452 66.1254 52.183 64.8979 54.0832 64.0508C56.9305 62.7012 60.1892 62.5066 63.1766 63.5079C63.7052 63.6843 64.2441 63.9505 63.9988 64.6352C63.7535 65.3198 63.218 65.0121 62.724 64.9429C61.304 64.7424 59.8633 64.3689 58.464 64.4865C54.5531 64.8323 51.3884 66.855 48.3929 69.3273C50.1204 72.2732 51.6578 75.1881 51.7269 78.791C51.7926 82.4562 49.6954 85.1463 48.272 87.9851C65.4361 81.488 82.7971 79.0469 100.766 85.0356C100.486 84.517 99.9335 84.2646 99.7746 83.8635C98.9765 81.8269 98.1473 79.8179 98.7381 77.4909C99.398 74.8216 100.777 72.581 102.335 70.3992C103.257 69.1094 104.149 67.7955 105.099 66.3986C104.024 65.8661 103.122 65.3613 102.172 64.9567C98.2683 63.2797 94.2882 62.7887 90.1872 64.2652C90.1066 64.3092 90.0183 64.337 89.927 64.3468C89.8358 64.3567 89.7435 64.3484 89.6554 64.3226C89.5673 64.2967 89.4852 64.2538 89.4137 64.1962C89.3423 64.1386 89.2828 64.0674 89.2388 63.9868C89.1948 63.9062 89.1671 63.8178 89.1572 63.7264C89.1474 63.6351 89.1556 63.5428 89.1814 63.4546C89.2073 63.3665 89.2502 63.2843 89.3078 63.2128C89.3653 63.1413 89.4364 63.0818 89.5169 63.0377C90.0541 62.6608 90.6634 62.3995 91.3066 62.2701C94.568 61.786 97.826 61.7099 100.98 62.8821C102.646 63.5079 104.249 64.3032 105.983 65.0674C106.488 64.2686 107.002 63.4457 107.669 62.3808C105.13 61.7964 102.832 61.1878 100.5 60.7487C96.8483 60.0572 93.1999 59.7563 89.7415 61.6166C89.6609 61.6607 89.575 61.6944 89.4858 61.7169C89.1784 61.8033 88.9434 61.9624 88.6048 61.3296C88.4597 61.0599 88.4874 60.7798 88.857 60.4479C89.0838 60.2771 89.3296 60.1332 89.5895 60.0191C92.6989 58.4078 96.0433 58.4874 99.3531 59.0129C102.342 59.4936 105.282 60.2612 108.357 60.9251C108.574 60.4237 108.854 59.7736 109.182 59.0233C107.206 58.4148 105.313 57.8684 103.444 57.253C99.6767 55.9488 95.5986 55.8437 91.7695 56.9522C90.6882 57.2668 89.738 57.9895 88.705 58.4735C88.3354 58.6464 87.7446 58.8677 87.5131 58.7052C86.9776 58.3318 87.2367 57.7128 87.6651 57.4362C88.7292 56.7447 89.8037 55.9529 90.9887 55.6036C95.1003 54.3274 99.5082 54.3734 103.592 55.735C105.61 56.4266 107.662 56.9694 109.694 57.5849C109.769 57.5087 109.835 57.424 109.891 57.3325C110.927 54.2206 111.794 51.0775 111.964 47.7892C112.19 43.236 111.785 38.6732 110.758 34.2316C110.579 33.3734 110.674 32.4805 111.031 31.6798C111.739 29.9371 112.503 28.1702 112.8 26.3376ZM44.6754 28.6197C44.0363 29.1107 43.639 28.7304 43.3557 28.1495C41.5418 24.4324 41.1445 20.2313 41.6075 16.1512C41.6185 15.9099 41.6822 15.6738 41.794 15.4597C41.8989 15.3047 42.0359 15.1742 42.1956 15.0769C42.3554 14.9797 42.5342 14.918 42.72 14.8961C42.9962 14.8581 43.2763 14.8581 43.5526 14.8961C44.8309 15.0482 45.9711 15.9576 46.9315 16.7563C48.3244 17.9334 49.5975 19.2457 50.7319 20.6739C51.3746 21.4761 53.5753 23.6095 51.796 24.3079C49.1668 25.3349 46.8797 26.9185 44.6754 28.6197ZM65.8265 45.3585C65.6152 45.3688 65.4064 45.3092 65.2323 45.189C64.5772 44.5131 63.9579 43.8033 63.377 43.0625C62.7648 43.3801 62.1718 43.7334 61.6011 44.1206C61.495 44.2363 61.4131 44.3721 61.3603 44.5199C61.3075 44.6678 61.2848 44.8248 61.2936 44.9816C61.3213 45.763 61.5113 46.5444 61.4871 47.3224C61.4604 47.5164 61.3748 47.6975 61.2418 47.8411C61.1495 47.9613 61.0133 48.04 60.8631 48.0601C60.713 48.0802 60.5609 48.04 60.4403 47.9483C60.2701 47.8436 60.1408 47.6838 60.0741 47.4953C59.8806 46.5548 59.846 45.5797 59.7286 44.577L57.6556 44.4975C57.4932 45.4345 57.3101 46.4027 57.1684 47.3847C57.0993 47.8722 57.0925 48.3839 56.4464 48.3805C55.8003 48.377 55.5999 47.8411 55.6552 47.3432C55.7796 46.2575 56.0007 45.1856 56.1803 44.0687L54.0037 43.0764C53.6583 43.9166 53.292 44.7464 52.9465 45.5798C52.7323 46.0915 52.3937 46.5618 51.841 46.2125C51.5957 46.0604 51.568 45.438 51.5818 45.0334C51.648 44.6944 51.7743 44.37 51.955 44.0757C52.5078 42.862 53.2057 41.6553 51.9964 40.407C51.7522 40.0758 51.6301 39.6702 51.6509 39.2591C51.6391 39.1037 51.68 38.9489 51.767 38.8197C51.8541 38.6906 51.9821 38.5946 52.1305 38.5474C52.2788 38.5001 52.4388 38.5044 52.5844 38.5596C52.73 38.6147 52.8527 38.7174 52.9327 38.8511C53.216 39.2487 53.3231 39.7708 53.5615 40.2099C55.0195 42.8862 60.2952 44.2416 62.7412 41.5204C63.4564 40.7286 64.0748 39.9402 64.1232 38.8303C64.1045 38.5795 64.1585 38.3286 64.2787 38.1077C64.4653 37.8725 64.8038 37.5786 65.0319 37.6097C65.2599 37.6409 65.633 38.0869 65.5985 38.3013C65.4826 39.3142 65.2364 40.3079 64.866 41.2576C64.6035 41.8489 64.5862 42.1947 64.9904 42.6407C65.4777 43.1297 65.9152 43.666 66.2964 44.2416C66.3844 44.4279 66.4191 44.635 66.3966 44.8398C66.395 44.9128 66.3784 44.9847 66.3478 45.0511C66.3173 45.1174 66.2734 45.1768 66.219 45.2254C66.1645 45.274 66.1007 45.311 66.0314 45.3339C65.9621 45.3567 65.8888 45.3651 65.8161 45.3585H65.8265ZM78.4094 66.8446C77.6301 66.2986 76.888 65.7014 76.1878 65.057C74.8819 67.4774 73.6312 68.1378 70.9191 67.8232C69.5371 67.6641 68.2864 66.5092 68.2069 65.1158C68.2019 64.5363 68.3877 63.9712 68.7356 63.5079C68.9118 63.2728 69.544 63.3904 69.9724 63.3489C69.9517 63.6947 70.0346 64.12 69.8895 64.4208C69.5233 65.1884 69.9759 66.039 70.9674 66.2949C73.068 66.8412 74.8508 65.6863 74.9613 63.5287C75.0802 61.807 74.9921 60.0773 74.6988 58.3767C74.4086 56.9176 73.4895 55.6555 72.3321 54.6182C71.5508 53.9395 70.8295 53.1944 70.1763 52.3914C69.7574 51.8452 69.4456 51.2246 69.2573 50.5623C68.6976 48.6502 69.3022 47.4504 71.1782 46.783C74.0527 45.7457 77.0516 45.7112 80.009 46.1676C82.5484 46.5617 83.6332 48.83 82.6693 51.2435C81.9717 52.8733 80.7879 54.2476 79.28 55.1783C78.0397 56.0047 76.8961 56.9245 76.7613 58.5081C76.5955 60.4514 76.4884 62.4534 77.6631 64.158C78.154 64.802 78.7818 65.3287 79.5011 65.7001C79.7212 65.8102 79.9627 65.8704 80.2087 65.8766C80.4546 65.8827 80.6989 65.8345 80.9241 65.7355C81.1493 65.6365 81.35 65.489 81.5119 65.3037C81.6738 65.1183 81.7929 64.8995 81.8608 64.6628C81.9334 64.445 81.7537 64.1511 81.7572 63.8918C81.7606 63.6324 81.733 63.2002 81.8919 63.0688C82.1199 62.9098 82.6658 62.8406 82.7971 62.9859C83.1184 63.3316 83.4881 63.8468 83.4881 64.2894C83.4328 66.7305 80.5618 68.1793 78.399 66.8446H78.4094ZM102.359 45.476C102.313 45.6112 102.218 45.7241 102.092 45.7921C101.967 45.86 101.82 45.878 101.682 45.8425C101.483 45.8207 101.299 45.7302 101.16 45.5867C100.507 44.6289 99.9612 43.6019 99.3566 42.5681C98.4652 43.0038 98.0541 43.5743 98.4652 44.5563C98.7527 45.2119 98.9839 45.891 99.1562 46.5859C99.1699 46.6414 99.1768 46.6983 99.1769 46.7554C99.1783 46.8864 99.1461 47.0156 99.0833 47.1305C99.0204 47.2455 98.9291 47.3423 98.8181 47.4117C98.7071 47.4812 98.5801 47.5209 98.4493 47.5271C98.3185 47.5332 98.1884 47.5056 98.0713 47.4469C97.9984 47.4118 97.9381 47.355 97.8986 47.2844C97.4562 46.3077 97.0631 45.3095 96.7205 44.2935L95.6011 44.4802C95.4836 45.6213 95.4283 46.7208 95.221 47.7892C95.1512 48.004 95.0174 48.1922 94.8375 48.3286C94.7847 48.3784 94.7221 48.4166 94.6537 48.4406C94.5852 48.4646 94.5125 48.474 94.4402 48.4682C94.3679 48.4623 94.2976 48.4413 94.234 48.4065C94.1703 48.3718 94.1146 48.324 94.0705 48.2664C93.9151 48.1012 93.8139 47.8925 93.7803 47.6682C93.7285 46.6309 93.8287 45.5936 93.8701 44.5286L91.7523 43.9927L90.4014 47.1046C90.1872 47.599 89.9384 48.014 89.2751 47.7304C88.4943 47.3847 88.9711 46.8176 89.1162 46.3197C89.3508 45.5252 89.6741 44.7597 90.0801 44.0376C90.3979 43.4636 90.3219 43.1559 89.9315 42.7237C89.3538 42.0688 88.8466 41.3549 88.4183 40.5938C88.2114 40.2064 88.1374 39.7618 88.2075 39.3282C88.2578 39.1627 88.3467 39.0115 88.4668 38.887C88.587 38.7626 88.7349 38.6685 88.8985 38.6125C89.0609 38.5606 89.5411 38.9582 89.5895 39.1934C89.935 41.8316 93.0444 43.6123 96.0433 42.8343C97.9228 42.3399 99.0214 40.8427 99.6882 39.0516C99.899 38.488 99.9266 37.5959 100.797 37.876C101.668 38.1561 101.271 38.979 101.087 39.5703C100.87 40.1701 100.619 40.7576 100.338 41.3302C101.081 42.5888 101.803 43.723 102.411 44.909C102.461 45.0991 102.439 45.3014 102.349 45.476H102.359ZM109.21 18.4575C109.213 21.0855 108.757 23.6937 107.863 26.1647C107.355 27.5478 106.76 27.6758 105.79 26.635C103.882 24.6231 101.543 23.0708 98.9489 22.095C97.9124 21.6836 97.6948 20.7569 98.4928 19.9754C100.936 17.6121 103.933 15.9011 107.21 14.9998C108.816 14.5468 109.283 14.9791 109.262 16.6388C109.283 17.2923 109.227 17.9492 109.21 18.4575Z" fill="white"/>
<path d="M83.4681 64.2859C83.4336 66.7305 80.5625 68.1793 78.3998 66.8446C77.6206 66.2985 76.8784 65.7014 76.1782 65.057C74.8723 67.4774 73.6216 68.1378 70.9095 67.8231C69.5275 67.6641 68.2768 66.5092 68.1974 65.1157C68.1923 64.5362 68.3781 63.9712 68.726 63.5079C68.9022 63.2728 69.5344 63.3903 69.9628 63.3489C69.9421 63.6946 70.025 64.1199 69.8799 64.4207C69.5137 65.1883 69.9663 66.0389 70.9578 66.2948C73.0584 66.8411 74.8412 65.6862 74.9517 63.5286C75.0706 61.807 74.9825 60.0773 74.6892 58.3767C74.399 56.9175 73.4799 55.6555 72.3225 54.6181C71.5412 53.9394 70.8199 53.1944 70.1667 52.3914C69.7478 51.8451 69.436 51.2245 69.2477 50.5622C68.688 48.6501 69.2926 47.4503 71.1686 46.783C74.0431 45.7457 77.042 45.7111 79.9994 46.1675C82.5388 46.5617 83.6236 48.8299 82.6597 51.2434C81.9621 52.8733 80.7783 54.2476 79.2704 55.1783C78.0301 56.0047 76.8865 56.9244 76.7518 58.5081C76.5859 60.4513 76.4788 62.4533 77.6535 64.1579C78.1444 64.8019 78.7723 65.3287 79.4915 65.7001C79.7116 65.8102 79.9531 65.8704 80.1991 65.8765C80.445 65.8826 80.6893 65.8344 80.9145 65.7354C81.1397 65.6364 81.3404 65.489 81.5023 65.3036C81.6642 65.1182 81.7833 64.8994 81.8512 64.6628C81.9238 64.4449 81.7441 64.151 81.7476 63.8917C81.751 63.6324 81.7234 63.2002 81.8823 63.0688C82.1104 62.9097 82.6562 62.8406 82.7875 62.9858C83.1088 63.3385 83.4716 63.8433 83.4681 64.2859Z" fill="#252B31"/>
<path d="M51.7754 24.3045C49.1634 25.3418 46.8797 26.9185 44.6651 28.6197C44.026 29.1107 43.6286 28.7304 43.3453 28.1495C41.5315 24.4324 41.1342 20.2313 41.5972 16.1512C41.6082 15.9099 41.6719 15.6738 41.7837 15.4597C41.8886 15.3047 42.0256 15.1742 42.1853 15.0769C42.3451 14.9797 42.5239 14.918 42.7096 14.8961C42.9859 14.8581 43.266 14.8581 43.5423 14.8961C44.8206 15.0482 45.9607 15.9576 46.9212 16.7563C48.3141 17.9334 49.5871 19.2457 50.7216 20.6739C51.3539 21.4726 53.5547 23.606 51.7754 24.3045Z" fill="#252B31"/>
<path d="M109.281 16.6319C109.281 17.2923 109.233 17.9493 109.216 18.4645C109.218 21.0924 108.762 23.7007 107.868 26.1717C107.361 27.5548 106.766 27.6827 105.795 26.6419C103.888 24.63 101.549 23.0777 98.9547 22.1019C97.9182 21.6905 97.7005 20.7638 98.4986 19.9824C100.939 17.6175 103.934 15.9042 107.208 14.9998C108.829 14.54 109.302 14.9722 109.281 16.6319Z" fill="#252B31"/>
<path d="M102.35 45.476C102.304 45.609 102.211 45.7202 102.088 45.7879C101.964 45.8557 101.82 45.8751 101.684 45.8425C101.485 45.8207 101.301 45.7302 101.162 45.5867C100.509 44.6289 99.963 43.6019 99.3584 42.5681C98.467 43.0037 98.0559 43.5743 98.467 44.5563C98.7545 45.2119 98.9857 45.8909 99.158 46.5859C99.1717 46.6414 99.1786 46.6983 99.1787 46.7554C99.1801 46.8864 99.1479 47.0156 99.0851 47.1305C99.0222 47.2454 98.9309 47.3423 98.8199 47.4117C98.7089 47.4812 98.5819 47.5209 98.4511 47.527C98.3203 47.5332 98.1902 47.5056 98.0731 47.4469C98.0002 47.4118 97.9399 47.355 97.9004 47.2844C97.4581 46.3077 97.0649 45.3095 96.7223 44.2935L95.6029 44.4802C95.4854 45.6212 95.4301 46.7208 95.2228 47.7892C95.153 48.004 95.0192 48.1922 94.8393 48.3286C94.7865 48.3784 94.7239 48.4165 94.6555 48.4406C94.587 48.4646 94.5143 48.474 94.442 48.4681C94.3697 48.4623 94.2994 48.4413 94.2358 48.4065C94.1721 48.3718 94.1164 48.324 94.0723 48.2664C93.917 48.1012 93.8157 47.8925 93.7821 47.6682C93.7303 46.6309 93.8305 45.5936 93.872 44.5286L91.7541 43.9927L90.4032 47.1046C90.189 47.599 89.9403 48.014 89.2769 47.7304C88.4961 47.3847 88.9729 46.8176 89.118 46.3197C89.3526 45.5252 89.6759 44.7596 90.0819 44.0376C90.3997 43.4636 90.3237 43.1559 89.9333 42.7237C89.3556 42.0688 88.8484 41.3549 88.4201 40.5937C88.2133 40.2064 88.1392 39.7618 88.2093 39.3282C88.2597 39.1627 88.3485 39.0115 88.4687 38.887C88.5888 38.7626 88.7367 38.6685 88.9003 38.6125C89.0627 38.5606 89.5429 38.9582 89.5913 39.1934C89.9368 41.8316 93.0462 43.6123 96.0451 42.8343C97.9246 42.3399 99.0232 40.8427 99.69 39.0516C99.9008 38.488 99.9284 37.5959 100.799 37.876C101.67 38.156 101.272 38.979 101.089 39.5703C100.871 40.1701 100.621 40.7576 100.34 41.3302C101.082 42.5888 101.804 43.723 102.413 44.909C102.463 45.0991 102.441 45.3014 102.35 45.476Z" fill="#252B31"/>
<path d="M66.3854 44.8328C66.3846 44.9055 66.369 44.9772 66.3395 45.0436C66.31 45.11 66.2673 45.1697 66.2139 45.2189C66.1604 45.2682 66.0975 45.3059 66.029 45.3299C65.9605 45.3539 65.8877 45.3636 65.8153 45.3584C65.604 45.3687 65.3952 45.3092 65.2211 45.189C64.566 44.5131 63.9467 43.8032 63.3658 43.0625C62.7536 43.38 62.1607 43.7333 61.59 44.1205C61.4838 44.2362 61.402 44.372 61.3491 44.5199C61.2963 44.6678 61.2737 44.8247 61.2825 44.9815C61.3101 45.763 61.5001 46.5444 61.4759 47.3224C61.4493 47.5164 61.3636 47.6974 61.2306 47.841C61.1383 47.9612 61.0021 48.04 60.8519 48.0601C60.7018 48.0802 60.5497 48.0399 60.4291 47.9482C60.2589 47.8436 60.1296 47.6837 60.0629 47.4953C59.8694 46.5548 59.8348 45.5797 59.7174 44.577L57.6444 44.4974C57.482 45.4345 57.2989 46.4026 57.1573 47.3846C57.0882 47.8721 57.0813 48.3839 56.4352 48.3804C55.7891 48.377 55.5887 47.841 55.644 47.3431C55.7684 46.2574 55.9895 45.1855 56.1692 44.0687L54.0029 43.0763C53.6574 43.9165 53.2912 44.7464 52.9457 45.5797C52.7315 46.0914 52.3929 46.5617 51.8401 46.2125C51.5948 46.0603 51.5672 45.4379 51.581 45.0334C51.6472 44.6943 51.7735 44.37 51.9542 44.0756C52.507 42.862 53.2048 41.6552 51.9956 40.407C51.7513 40.0758 51.6293 39.6701 51.6501 39.259C51.6383 39.1037 51.6792 38.9489 51.7662 38.8197C51.8533 38.6905 51.9813 38.5945 52.1297 38.5473C52.278 38.5001 52.438 38.5044 52.5836 38.5595C52.7292 38.6146 52.8519 38.7173 52.9319 38.851C53.2152 39.2486 53.3223 39.7708 53.5607 40.2099C55.0187 42.8861 60.2943 44.2416 62.7404 41.5204C63.4556 40.7285 64.074 39.9402 64.1224 38.8303C64.1037 38.5794 64.1576 38.3285 64.2779 38.1076C64.4644 37.8725 64.803 37.5786 65.031 37.6097C65.2591 37.6408 65.6322 38.0869 65.5977 38.3012C65.4818 39.3142 65.2356 40.3078 64.8652 41.2576C64.6026 41.8488 64.5854 42.1946 64.9896 42.6407C65.4769 43.1297 65.9143 43.6659 66.2956 44.2416C66.3788 44.4268 66.4099 44.6312 66.3854 44.8328Z" fill="#252B31"/>
<path d="M75.7017 148.616C75.707 148.757 75.6823 148.898 75.6292 149.03C75.5762 149.161 75.4959 149.28 75.3937 149.378C75.2916 149.476 75.1698 149.551 75.0365 149.598C74.9032 149.646 74.7613 149.665 74.6203 149.653C73.9638 149.653 73.5354 149.007 73.5838 148.063C73.6978 147.503 73.7254 146.766 74.6445 146.763C75.2663 146.769 75.7708 147.696 75.7017 148.616Z" fill="#252B31"/>
</svg>
