<svg width="320" height="891" viewBox="0 0 320 891" fill="none" xmlns="http://www.w3.org/2000/svg">
<g clip-path="url(#clip0_141_6624)">
<path d="M184.433 520.083C184.433 520.083 96.9366 585.858 88.7575 627.863C79.4837 675.479 86.671 739.126 128.468 840.16C128.468 840.16 103.158 881.044 104.987 882.94C111.092 889.285 141.052 864.071 151.717 855.701C155.581 852.658 154.808 849.42 152.876 846.48C146.47 836.578 142.604 825.246 141.619 813.49C139.584 789.862 157.861 670.088 132.602 647.828C132.602 647.828 232.941 619.687 241.042 565.997L184.433 520.083Z" fill="white"/>
<path d="M107.743 884.874C107.109 884.911 106.476 884.815 105.881 884.593C105.287 884.371 104.745 884.027 104.291 883.584C103.569 882.824 102.655 881.882 115.213 860.37C120.559 851.2 126.149 842.121 127.398 840.096C89.8646 749.237 77.2934 681.747 87.8167 627.683C95.97 585.832 180.285 522.031 183.866 519.348C184.033 519.218 184.239 519.146 184.452 519.146C184.664 519.146 184.87 519.218 185.038 519.348L241.711 565.274C241.842 565.376 241.944 565.511 242.005 565.665C242.066 565.82 242.085 565.987 242.059 566.151C237.822 594.28 208.313 615.263 184.304 627.902C168.344 636.169 151.68 642.993 134.508 648.292C151.845 666.683 147.221 732.961 144.143 777.159C142.97 793.925 142.043 807.105 142.584 813.425C143.584 825.018 147.405 836.19 153.713 845.964C156.456 850.156 156.005 853.586 152.347 856.449L148.213 859.712C132.628 872.119 115.857 884.874 107.743 884.874ZM105.849 882.437C111.117 886.834 136.208 866.831 146.989 858.229C148.561 856.939 149.965 855.856 151.137 854.94C153.983 852.722 154.267 850.349 152.077 847.009C145.603 836.962 141.685 825.48 140.665 813.567C140.111 807.118 141.038 793.822 142.21 777.017C145.34 732.2 150.068 664.478 132.022 648.537C131.889 648.427 131.791 648.281 131.738 648.116C131.686 647.952 131.681 647.776 131.726 647.609C131.766 647.442 131.849 647.289 131.966 647.165C132.084 647.04 132.232 646.949 132.396 646.899C133.387 646.628 231.575 618.526 240.063 566.396L184.419 521.257C176.691 527.138 97.3483 588.657 89.6844 628.005C79.2256 681.76 91.8225 749.043 129.343 839.761C129.401 839.9 129.425 840.052 129.411 840.202C129.398 840.353 129.348 840.498 129.266 840.625C118.047 858.809 106.184 879.341 105.849 882.437Z" fill="#252B31"/>
<path d="M174.746 259.539L126.78 325.803L97.8633 251.865L126.2 140.448L152.502 119.503L186.223 114.783L197.815 125.423L201.409 131.872C207.154 142.021 210.386 153.401 210.834 165.058C211.282 176.715 208.933 188.31 203.985 198.871C200.356 206.73 195.176 213.773 188.756 219.573C182.337 225.374 174.811 229.813 166.632 232.623C165.794 242.304 168.699 251.938 174.746 259.539Z" fill="white"/>
<path d="M126.78 326.758H126.664C126.494 326.733 126.333 326.664 126.198 326.557C126.062 326.451 125.957 326.311 125.891 326.152L97.0394 252.214C96.9817 252.024 96.9817 251.822 97.0394 251.633L125.376 140.203C125.43 140.007 125.542 139.832 125.698 139.7L152 118.769C152.133 118.659 152.293 118.587 152.464 118.562L186.184 113.842C186.322 113.817 186.464 113.825 186.599 113.865C186.733 113.906 186.856 113.977 186.957 114.074L198.55 124.714C198.628 124.784 198.693 124.867 198.743 124.959L202.336 131.408C208.149 141.693 211.417 153.223 211.865 165.032C212.313 176.842 209.929 188.587 204.913 199.284C201.276 207.169 196.096 214.243 189.68 220.087C183.264 225.931 175.742 230.426 167.559 233.307C166.948 242.543 169.78 251.679 175.507 258.946C175.634 259.112 175.703 259.316 175.703 259.526C175.703 259.736 175.634 259.94 175.507 260.107L127.54 326.371C127.452 326.49 127.338 326.587 127.206 326.654C127.074 326.722 126.928 326.757 126.78 326.758ZM98.8685 251.801L127.038 323.83L173.549 259.578C167.62 251.862 164.822 242.188 165.717 232.494C165.739 232.322 165.809 232.16 165.918 232.025C166.027 231.891 166.172 231.79 166.336 231.733C174.395 228.968 181.81 224.594 188.133 218.877C194.456 213.16 199.555 206.218 203.122 198.472C208.009 188.051 210.33 176.609 209.893 165.105C209.456 153.601 206.273 142.369 200.611 132.349L197.094 126.03L185.914 115.738L152.902 120.368L127.051 140.939L98.8685 251.801Z" fill="#252B31"/>
<path d="M161.054 234.39C157.479 234.333 153.943 233.643 150.608 232.352C150.374 232.255 150.188 232.068 150.092 231.833C149.995 231.599 149.995 231.335 150.093 231.101C150.19 230.867 150.377 230.681 150.611 230.584C150.845 230.487 151.108 230.488 151.342 230.585C151.42 230.585 159.702 233.964 166.348 231.669C166.466 231.626 166.592 231.608 166.717 231.615C166.843 231.622 166.965 231.654 167.078 231.709C167.191 231.764 167.292 231.842 167.374 231.937C167.457 232.032 167.52 232.142 167.559 232.262C167.641 232.501 167.624 232.763 167.513 232.991C167.402 233.218 167.205 233.392 166.966 233.474C165.06 234.105 163.062 234.414 161.054 234.39Z" fill="#252B31"/>
<path d="M198.691 271.7C198.691 271.7 192.624 320.993 210.154 338.894C228.625 322.128 247.932 298.629 263.556 279.245C286.934 250.24 314.679 215.418 308.264 175.863C306.375 164.431 301.797 153.614 294.907 144.304C287.617 134.451 278.06 126.468 270.666 116.666C260.362 103.073 250.959 88.8214 241.879 74.4026C240.281 71.8232 237.383 66.2001 235.825 63.6336C235.825 63.6336 230.583 33.2871 240.217 18.4943C241.224 17.009 241.795 15.271 241.866 13.4773C241.866 11.8007 241.183 10.4981 238.865 10.5884C232.785 10.8463 222.803 21.6024 225.585 49.7178C225.585 49.7178 218.243 35.7891 214.959 39.8387C211.674 43.8884 225.07 65.1684 225.07 65.1684C225.07 65.1684 239.573 163.559 269.597 190.759C269.636 190.746 221.618 225.903 198.691 271.7Z" fill="white"/>
<path d="M210.155 339.848C209.9 339.843 209.656 339.742 209.472 339.565C191.826 321.509 197.493 273.609 197.751 271.585C197.761 271.477 197.792 271.372 197.841 271.275C218.862 229.283 261.329 195.841 268.117 190.669C239.136 162.915 225.083 71.6817 224.169 65.4911C221.593 61.4673 210.735 43.5663 214.225 39.22C214.506 38.8448 214.879 38.5489 215.308 38.3613C215.737 38.1736 216.207 38.1007 216.672 38.1496C219.249 38.4075 222.288 42.4055 224.298 45.5911C223.19 26.581 228.162 17.6047 231.485 13.8388C233.752 11.2594 236.354 9.72465 238.814 9.62147C239.353 9.56068 239.899 9.61424 240.416 9.77867C240.933 9.9431 241.41 10.2147 241.815 10.5758C242.175 10.9626 242.451 11.4206 242.624 11.9204C242.797 12.4201 242.864 12.9506 242.82 13.4777C242.747 15.4544 242.122 17.3711 241.016 19.0105C232.077 32.7586 236.341 60.8095 236.74 63.2986C237.448 64.4981 238.402 66.2391 239.406 68.0834C240.604 70.2759 241.841 72.5458 242.691 73.9C253.42 90.924 262.552 104.337 271.427 116.099C275.118 120.801 279.069 125.292 283.264 129.55C287.685 134.024 291.831 138.762 295.681 143.737C302.658 153.169 307.294 164.128 309.205 175.709C315.748 216.025 287.218 251.401 264.304 279.839C247.997 300.061 229.076 323.031 210.799 339.603C210.62 339.758 210.392 339.845 210.155 339.848ZM199.619 271.972C199.271 275.054 194.467 320.18 210.206 337.553C228.239 321.122 246.774 298.552 262.823 278.639C285.505 250.498 313.726 215.444 307.324 176.018C305.453 164.732 300.922 154.056 294.109 144.872C290.309 139.959 286.214 135.282 281.847 130.866C277.6 126.557 273.601 122.01 269.868 117.247C260.955 105.446 251.836 91.9944 241.042 74.9188C240.153 73.5131 238.904 71.2174 237.693 68.9991C236.663 67.0904 235.671 65.2848 234.975 64.1241C234.912 64.0215 234.868 63.9077 234.847 63.7887C234.628 62.499 229.694 32.9134 239.381 17.9658C240.29 16.6255 240.807 15.0577 240.875 13.439C240.907 13.1718 240.886 12.9009 240.813 12.6419C240.74 12.3829 240.616 12.141 240.45 11.93C239.994 11.5946 239.425 11.4511 238.865 11.5302C236.482 11.8811 234.334 13.1605 232.889 15.0898C230.235 18.1464 224.31 27.6128 226.449 49.615C226.473 49.8347 226.419 50.0559 226.296 50.2398C226.174 50.4238 225.991 50.5587 225.779 50.6209C225.566 50.6848 225.337 50.672 225.133 50.5849C224.928 50.4977 224.76 50.3417 224.658 50.1438C222.52 46.0812 218.54 40.2647 216.402 40.0454C216.248 40.0339 216.095 40.0637 215.956 40.1317C215.818 40.1997 215.701 40.3035 215.616 40.4323C213.658 42.8569 220.395 56.0506 225.805 64.6399C225.876 64.754 225.924 64.8811 225.946 65.014C226.088 65.9941 240.733 163.379 270.165 190.037C270.267 190.135 270.348 190.253 270.401 190.384C270.455 190.515 270.479 190.657 270.474 190.798C270.467 190.94 270.429 191.078 270.362 191.203C270.295 191.328 270.201 191.436 270.087 191.52C269.636 191.83 222.211 226.987 199.619 271.972Z" fill="#252B31"/>
<path d="M90.0191 249.634C90.0191 249.634 71.5615 295.74 47.5138 302.924C39.5241 279.203 33.3875 254.897 29.1593 230.224C22.7191 193.519 15.5189 144.266 40.2106 112.732C47.3716 103.633 56.5955 96.3733 67.1177 91.5556C78.2593 86.3969 90.4698 84.0754 101.676 79.0714C117.235 72.1328 132.357 64.2141 147.259 55.9729C149.835 54.5284 155.155 50.9689 157.757 49.5244C157.757 49.5244 176.974 25.4844 175.686 7.86719C175.522 6.08967 175.862 4.30184 176.665 2.7084C176.812 2.33042 177.046 1.99253 177.348 1.72211C177.65 1.4517 178.012 1.25641 178.403 1.15213C178.795 1.04784 179.205 1.03748 179.602 1.1219C179.998 1.20632 180.369 1.38312 180.684 1.63797C185.836 4.78483 189.443 19.036 173.445 42.315C173.445 42.315 186.583 33.6611 187.511 38.7941C188.438 43.9271 166.438 56.089 166.438 56.089C166.438 56.089 111.993 148.148 69.1141 137.211C69.1785 137.121 93.5225 188.721 90.0191 249.634Z" fill="white"/>
<path d="M47.5778 303.879C47.3807 303.88 47.1882 303.819 47.0267 303.706C46.8653 303.593 46.7428 303.432 46.6763 303.247C38.68 279.473 32.5349 255.115 28.2959 230.392C21.0443 189.379 15.3254 143.04 39.5276 112.139C46.7821 102.924 56.125 95.5717 66.7825 90.6917C72.5494 88.1831 78.4639 86.0296 84.493 84.2432C90.2206 82.5409 95.8493 80.5216 101.353 78.1945C114.8 72.1846 129.252 64.8591 146.86 55.1218C148.251 54.3609 150.428 52.9681 152.527 51.6268C154.305 50.4918 155.979 49.4214 157.19 48.725C158.735 46.7388 175.995 24.2207 174.797 7.86734C174.617 5.89761 174.996 3.91692 175.892 2.15399C176.105 1.67045 176.417 1.23697 176.807 0.88153C177.197 0.526095 177.658 0.256606 178.159 0.0904652C178.687 -0.0278202 179.234 -0.033805 179.764 0.0728327C180.294 0.17947 180.796 0.396369 181.237 0.709534C182.418 1.56047 183.416 2.64083 184.17 3.88611C184.925 5.1314 185.421 6.51608 185.63 7.95762C186.673 12.8198 186.75 23.1245 176.613 39.2328C179.924 37.4143 184.496 35.3637 186.918 36.3955C187.347 36.5821 187.722 36.8756 188.006 37.248C188.29 37.6205 188.474 38.0596 188.541 38.5235C189.52 43.9531 171.448 54.3351 167.211 56.6953C157.584 72.4146 146.699 87.3253 134.662 101.28C110.099 129.305 88.6405 141.802 70.8527 138.449C75.0002 148.006 94.1147 195.441 90.9977 249.673C91.0109 249.771 91.0109 249.871 90.9977 249.969C90.2377 251.878 72.0892 296.592 47.9385 303.827L47.5778 303.879ZM178.958 1.90894C178.859 1.8955 178.76 1.8955 178.661 1.90894C178.411 2.00884 178.184 2.15872 177.994 2.3494C177.803 2.54009 177.653 2.76761 177.554 3.0181C176.839 4.4687 176.535 6.08828 176.678 7.69971C177.966 25.4846 159.354 49.0345 158.555 50.0275C158.477 50.1183 158.386 50.1966 158.285 50.2597C157.113 50.9303 155.374 52.0395 153.545 53.2131C151.419 54.5673 149.217 55.973 147.774 56.7727C130.115 66.5228 115.573 73.874 102.113 79.9098C96.5484 82.2715 90.8548 84.3167 85.0597 86.0359C79.1089 87.8026 73.2682 89.9214 67.5682 92.3812C57.1842 97.1417 48.0804 104.308 41.0089 113.287C17.309 143.556 22.9763 189.379 30.1506 230.018C34.3329 254.336 40.3612 278.299 48.1832 301.699C70.3889 294.09 87.932 252.162 89.0783 249.376C92.4788 189.495 68.5599 137.998 68.3152 137.482C68.2484 137.319 68.228 137.141 68.2561 136.967C68.2841 136.793 68.3596 136.631 68.4743 136.497C68.589 136.364 68.7383 136.264 68.9057 136.211C69.0732 136.157 69.2522 136.15 69.423 136.192C111.104 146.832 165.15 56.4244 165.691 55.5087C165.772 55.3626 165.893 55.2421 166.039 55.1605C174.926 50.2468 187.188 41.954 186.647 38.8846C186.64 38.729 186.589 38.5786 186.5 38.4508C186.411 38.323 186.288 38.223 186.145 38.1623C184.187 37.324 177.889 40.4967 174.05 43.0245C173.87 43.1198 173.664 43.1548 173.463 43.1244C173.261 43.094 173.075 42.9997 172.931 42.8555C172.787 42.7113 172.693 42.5247 172.662 42.323C172.632 42.1213 172.667 41.9151 172.762 41.7348C185.269 23.5243 184.651 12.3684 183.814 8.42194C183.473 6.03489 182.21 3.87701 180.297 2.41194C179.908 2.1274 179.45 1.95357 178.971 1.90894H178.958Z" fill="#252B31"/>
<path d="M203.831 549.076C203.831 549.076 173.575 588.902 166.478 637.239C159.535 684.674 268.645 851.755 268.645 851.755C268.645 851.755 241.596 881.289 243.606 888.885C245.267 895.101 280.959 874.698 294.779 862.549C296.657 860.929 297.906 858.699 298.309 856.25C298.711 853.8 298.242 851.287 296.982 849.149C295.8 847.025 294.349 845.061 292.667 843.307C275.072 825.729 267.743 796.336 265.786 751.3C263.403 696.682 235.427 662.156 218.437 655.321C218.437 655.321 252.751 627.966 275.227 598.432L203.831 549.076Z" fill="white"/>
<path d="M245.718 890.988C245.283 890.996 244.849 890.939 244.43 890.82C244.021 890.721 243.647 890.513 243.348 890.217C243.048 889.922 242.835 889.551 242.73 889.143C240.72 881.624 263.042 856.553 267.486 851.665C259.139 838.768 158.801 683.385 165.576 637.111C172.609 589.082 202.8 548.908 203.097 548.508C203.247 548.319 203.462 548.193 203.701 548.155C203.939 548.117 204.183 548.169 204.385 548.302L275.793 597.659C276.006 597.813 276.149 598.045 276.193 598.304C276.213 598.431 276.206 598.561 276.173 598.685C276.14 598.81 276.081 598.926 275.999 599.026C256.099 625.181 226.603 649.904 220.279 655.089C238.221 663.601 264.472 698.939 266.764 751.275C268.825 798.761 276.785 826.077 293.375 842.65C295.108 844.466 296.605 846.494 297.832 848.685C299.189 851.019 299.692 853.754 299.252 856.419C298.812 859.084 297.458 861.512 295.423 863.285C284.501 872.79 254.863 890.988 245.718 890.988ZM204.05 550.366C199.954 556.002 173.871 593.364 167.431 637.356C160.63 683.888 268.374 849.537 269.456 851.2C269.574 851.378 269.63 851.59 269.614 851.803C269.597 852.015 269.51 852.217 269.366 852.374C258.624 864.084 243.155 883.417 244.546 888.615C244.546 888.705 244.546 888.847 244.958 888.963C245.264 889.047 245.581 889.086 245.898 889.079C253.382 889.079 281.783 872.596 294.161 861.815C295.868 860.337 297.004 858.309 297.374 856.08C297.743 853.852 297.322 851.564 296.183 849.614C295.035 847.559 293.633 845.657 292.01 843.952C275.059 827.031 266.932 799.329 264.845 751.313C262.54 698.333 235.581 663.227 218.089 656.185C217.935 656.123 217.801 656.021 217.699 655.89C217.597 655.758 217.532 655.602 217.51 655.437C217.485 655.271 217.503 655.102 217.564 654.946C217.625 654.789 217.727 654.652 217.858 654.547C218.192 654.277 251.72 627.464 273.874 598.626L204.05 550.366Z" fill="#252B31"/>
<path d="M144.697 448.815C144.697 448.815 200.444 437.981 224.208 390.378C224.208 390.378 244.585 416.727 281.371 432.074C313.739 445.577 325.164 481.715 318.003 517.762C309.978 557.936 271.762 609.678 271.762 609.678C271.762 609.678 222.469 564.539 163.155 535.727C163.09 535.727 189.65 493.387 144.697 448.815Z" fill="#252B31"/>
<path d="M144.698 448.815C144.698 448.815 68.9358 387.516 64.8398 321.677C64.8398 321.677 84.0574 282.844 81.0177 253.8L98.9084 251.981L126.885 321.625L174.091 256.792C174.091 256.792 186.869 269.895 200.586 267.819C200.586 267.819 191.57 306.084 212.526 337.153C212.526 337.153 208.443 368.518 225.497 392.004C225.484 392.055 199.478 436.524 144.698 448.815Z" fill="#FFA3A3"/>
<path d="M210.606 163.237C211.417 143.066 193.964 126.52 163.09 129.305C135.526 131.782 124.449 169.093 129.601 181.216C131.417 185.549 133.233 192.887 135.204 197.156C138.565 204.756 139.678 213.161 138.41 221.375C137.143 229.588 133.549 237.265 128.055 243.495C125.869 245.594 123.881 247.891 122.118 250.356C118.949 255.515 119 261.899 118.872 267.935C118.653 277.75 117.584 287.693 114.119 296.85C110.654 306.007 104.291 314.39 95.5582 318.865C89.2854 322.064 82.1755 323.108 75.4519 325.185C66.8607 327.841 58.8105 332.226 50.039 334.212C36.901 337.205 22.2431 334.212 12.132 325.326C2.02089 316.44 -2.70619 301.377 1.68602 288.622C3.69536 282.779 7.4179 277.582 8.88626 271.572C11.2305 262.015 7.59809 251.827 9.38846 242.141C11.1531 232.804 17.838 225.156 25.154 219.094C32.4701 213.033 40.6879 208.041 47.3341 201.258C52.306 196.202 56.3504 190.192 61.8375 185.781C66.8093 181.757 72.7728 179.165 78.1568 175.722C97.2326 163.521 107.782 141.764 124.14 126.094C138.592 112.217 158.917 103.963 179.422 107.819C213.027 114.113 211.134 150.224 210.606 163.237Z" fill="#252B31"/>
<path d="M113.281 865.632C116.308 864.768 127.115 861.763 137.908 865.632C137.908 865.632 115.303 884.758 107.781 883.946C100.259 883.133 113.281 865.632 113.281 865.632Z" fill="#252B31"/>
<path d="M145.778 832.28C145.778 832.28 133.31 852.915 140.291 863.684C140.291 863.684 154.82 855.869 154.46 850.62C154.099 845.371 145.778 832.28 145.778 832.28Z" fill="#252B31"/>
<path d="M122.078 824.348C122.078 824.348 132.756 826.515 142.004 817.01L143.215 823.665C143.215 823.665 138.282 830.797 124.513 830.487L122.078 824.348Z" fill="#252B31"/>
<path d="M289.098 838.032C289.098 838.032 280.893 859.854 283.469 871.113C283.469 871.113 300.613 861.079 298.462 854.579C296.311 848.079 289.098 838.032 289.098 838.032Z" fill="#252B31"/>
<path d="M250.947 873.396C261.311 869.37 272.647 868.574 283.47 871.113C283.47 871.113 254.374 889.981 246.117 890.046C237.861 890.11 250.947 873.396 250.947 873.396Z" fill="#252B31"/>
<path d="M278.55 821.886C278.55 821.886 267.924 834.486 256.73 832.99L260.891 839.606C260.891 839.606 271.453 838.897 281.499 828.708L278.55 821.886Z" fill="#252B31"/>
<path d="M170.29 213.445C169.667 213.449 169.046 213.362 168.448 213.187C164.082 211.897 161.57 206.197 160.72 195.776C160.703 195.568 160.755 195.36 160.866 195.183C160.978 195.006 161.143 194.871 161.338 194.796C161.533 194.721 161.746 194.712 161.946 194.77C162.146 194.829 162.322 194.951 162.446 195.118C164.986 198.087 168.287 200.306 171.994 201.536C175.7 202.765 179.671 202.959 183.48 202.096C183.672 202.063 183.87 202.088 184.048 202.169C184.226 202.249 184.375 202.381 184.478 202.547C184.58 202.714 184.631 202.907 184.623 203.102C184.615 203.298 184.548 203.486 184.433 203.643C184.162 204.069 176.898 213.445 170.29 213.445ZM162.974 198.356C163.876 205.952 165.936 210.427 169.002 211.33C172.943 212.504 178.327 207.732 181.367 204.366C178.052 204.711 174.701 204.355 171.532 203.32C168.363 202.284 165.447 200.593 162.974 198.356Z" fill="#252B31"/>
<path d="M175.004 187.961H174.927C174.522 187.96 174.122 187.871 173.755 187.7C173.388 187.528 173.063 187.278 172.802 186.968C172.308 186.306 172.025 185.51 171.99 184.685C171.14 176.689 173.768 169.982 179.384 165.83C179.905 165.439 180.446 165.077 181.007 164.746C179.09 161.464 176.218 158.846 172.776 157.24C166.233 154.3 157.977 152.855 148.136 152.894C148.01 152.896 147.884 152.872 147.767 152.825C147.65 152.778 147.544 152.708 147.454 152.619C147.364 152.53 147.292 152.425 147.244 152.308C147.195 152.191 147.17 152.066 147.17 151.94C147.168 151.813 147.192 151.687 147.239 151.569C147.286 151.45 147.355 151.343 147.444 151.252C147.532 151.161 147.638 151.088 147.754 151.038C147.871 150.988 147.996 150.961 148.123 150.959H148.677C158.518 150.959 166.89 152.481 173.575 155.473C177.392 157.267 180.573 160.182 182.694 163.831C190.165 160.194 200.366 160.439 210.297 164.695C210.532 164.796 210.718 164.986 210.814 165.224C210.909 165.463 210.906 165.729 210.805 165.965C210.705 166.201 210.514 166.387 210.276 166.483C210.039 166.578 209.772 166.575 209.537 166.475C200.301 162.528 190.551 162.244 183.608 165.546C184.726 167.878 185.378 170.406 185.528 172.988C185.638 175 185.346 177.014 184.669 178.911C183.992 180.809 182.944 182.553 181.586 184.04C181.2 184.453 177.812 187.961 175.004 187.961ZM181.908 166.462C181.432 166.745 180.968 167.055 180.53 167.377C175.378 171.169 173.124 177.089 173.91 184.479C173.914 184.913 174.039 185.337 174.27 185.704C174.354 185.81 174.462 185.895 174.585 185.951C174.709 186.007 174.844 186.033 174.979 186.026C176.473 186.026 178.92 184.001 180.131 182.712C181.318 181.418 182.233 179.898 182.821 178.243C183.41 176.588 183.66 174.832 183.557 173.078C183.437 170.791 182.877 168.549 181.908 166.475V166.462Z" fill="#252B31"/>
<path d="M158.865 170.447C157.764 170.447 156.673 170.246 155.645 169.853C150.776 167.983 149.089 162.36 149.011 162.115C148.976 161.993 148.965 161.865 148.978 161.739C148.992 161.613 149.031 161.491 149.092 161.379C149.153 161.268 149.235 161.169 149.334 161.09C149.433 161.01 149.546 160.951 149.668 160.916C149.914 160.844 150.179 160.873 150.403 160.996C150.628 161.119 150.794 161.327 150.866 161.573C150.866 161.573 152.373 166.539 156.353 168.022C158.929 169.015 162.059 168.383 165.64 166.152C165.858 166.017 166.122 165.974 166.372 166.033C166.622 166.093 166.838 166.249 166.973 166.468C167.108 166.687 167.15 166.95 167.091 167.201C167.032 167.451 166.876 167.668 166.657 167.803C164.355 169.391 161.657 170.307 158.865 170.447Z" fill="#252B31"/>
<path d="M199.772 179.719C198.797 179.725 197.828 179.577 196.9 179.281C195.401 178.716 194.031 177.854 192.873 176.746C191.716 175.638 190.794 174.307 190.163 172.832C190.068 172.593 190.071 172.325 190.172 172.088C190.274 171.851 190.465 171.664 190.704 171.569C190.943 171.473 191.211 171.476 191.447 171.578C191.684 171.679 191.871 171.871 191.966 172.11C193.033 174.547 195.02 176.462 197.492 177.437C200.171 178.275 203.301 177.553 206.805 175.296C207.022 175.157 207.285 175.111 207.536 175.166C207.787 175.222 208.006 175.375 208.144 175.592C208.283 175.81 208.329 176.073 208.273 176.324C208.218 176.576 208.065 176.795 207.848 176.934C205.478 178.617 202.675 179.584 199.772 179.719Z" fill="#252B31"/>
</g>
<defs>
<clipPath id="clip0_141_6624">
<rect width="320" height="891" fill="white"/>
</clipPath>
</defs>
</svg>
