<svg width="149" height="110" viewBox="0 0 149 110" fill="none" xmlns="http://www.w3.org/2000/svg">
<g clip-path="url(#clip0_142_7627)">
<path d="M131.63 93.8118C132.192 92.6287 133.905 90.3314 133.088 89.046C131.962 87.3149 130.446 88.897 129.464 89.914C127.531 91.907 126.024 96.0296 123.638 97.2757C122.13 76.1115 112.993 56.2138 97.9227 41.2775C82.7558 26.2043 61.0192 14.352 38.982 16.4526C28.1999 17.4713 17.7892 21.4349 10.5613 29.8129C9.94043 30.5364 6.71146 33.9507 8.54508 34.6122C9.48684 34.9603 13.5949 30.5356 14.4492 29.8567C18.8075 26.3753 23.8036 23.7784 29.1571 22.2116C47.6883 16.7721 68.1266 23.6001 83.1669 34.5383C93.2583 41.9349 101.72 51.3291 108.024 62.1364C111.322 67.6664 113.928 73.5801 115.785 79.7449C117.301 84.8947 119.956 93.3989 118.596 98.798C114.561 96.0823 113.023 89.3495 109.402 86.0442C107.479 84.2886 104.382 84.1666 104.742 87.4381C105.027 90.0984 108.491 93.3398 110.035 95.425C111.763 97.7525 113.557 100.012 115.487 102.17C116.941 103.769 119.287 107.73 121.531 107.878C125.499 108.126 130.106 96.8299 131.613 93.8479C132.218 92.5745 130.979 95.0637 131.63 93.8118Z" fill="#5BC766"/>
</g>
<defs>
<clipPath id="clip0_142_7627">
<rect width="137.7" height="55.65" fill="white" transform="matrix(-0.90311 -0.429409 -0.429409 0.90311 148.254 59.1296)"/>
</clipPath>
</defs>
</svg>
