<svg width="547" height="740" viewBox="0 0 547 740" fill="none" xmlns="http://www.w3.org/2000/svg">
<path d="M38.259 508.625C38.259 508.625 28.7365 499.69 7.58854 519.937C-13.5595 540.184 15.4259 533.548 23.0805 529.172C35.3461 522.249 38.259 508.625 38.259 508.625Z" fill="#252B31"/>
<path d="M307.527 179.256C307.527 179.256 323.607 194.448 298.109 202.964L345.003 232.002L364.218 186.884C364.218 186.884 339.648 192.24 338.969 160.969L307.527 179.256Z" fill="white"/>
<path d="M345.042 232.681C344.908 232.685 344.776 232.649 344.663 232.577L297.769 203.552C297.653 203.476 297.561 203.371 297.501 203.247C297.441 203.122 297.416 202.984 297.429 202.847C297.448 202.714 297.503 202.589 297.588 202.485C297.674 202.381 297.786 202.303 297.912 202.259C306.024 199.555 310.635 195.923 311.615 191.482C312.921 185.46 307.095 179.844 307.03 179.726C306.948 179.651 306.885 179.557 306.847 179.452C306.808 179.348 306.795 179.236 306.808 179.125C306.822 179.015 306.861 178.909 306.922 178.817C306.984 178.724 307.065 178.646 307.161 178.59L338.654 160.302C338.761 160.242 338.883 160.21 339.006 160.209C339.13 160.209 339.251 160.241 339.359 160.301C339.466 160.362 339.557 160.449 339.621 160.554C339.685 160.66 339.721 160.78 339.725 160.903C339.947 171.092 342.743 178.368 348.033 182.534C355.008 188.034 364.008 186.153 364.1 186.127C364.229 186.101 364.362 186.11 364.486 186.154C364.61 186.198 364.721 186.274 364.805 186.375C364.888 186.475 364.942 186.597 364.961 186.726C364.979 186.855 364.961 186.987 364.909 187.106L345.708 232.224C345.665 232.318 345.604 232.403 345.528 232.472C345.451 232.542 345.361 232.595 345.264 232.629C345.193 232.659 345.118 232.677 345.042 232.681ZM299.793 203.121L344.715 230.918L363.081 187.812C357.441 188.572 351.727 187.111 347.145 183.736C341.724 179.465 338.758 172.228 338.341 162.222L308.676 179.452C310.296 181.228 314.253 186.244 313.013 191.809C311.981 196.433 307.539 200.352 299.793 203.121Z" fill="#252B31"/>
<path d="M348.465 151.185C348.465 151.185 350.555 141.14 362.168 135.183C373.78 129.227 377.059 92.3122 370.802 83.3775C364.545 74.4428 350.255 71.765 346.388 50.6169C342.522 29.4689 324.352 25.3019 294.87 28.2802C294.87 28.2802 288.339 30.0697 276.701 13.9899C265.062 -2.08998 218.926 13.9899 218.926 13.9899C218.926 13.9899 205.537 18.1568 189.744 6.84472C173.952 -4.46735 162.313 -0.901304 150.74 11.3121C139.167 23.5254 130.781 34.8244 135.849 56.5734C140.917 78.3223 155.508 69.9755 155.795 90.2222C156.083 110.469 186.479 107.203 186.479 107.203C186.479 107.203 194.813 108.092 187.968 127.45C181.123 146.809 196.001 163.777 226.972 156.031C257.943 148.285 257.643 152.465 264.2 157.82C270.757 163.176 279.378 168.545 307.528 179.256L339.008 160.968L348.465 151.185Z" fill="#252B31"/>
<path d="M411.752 150.963C411.752 150.963 454.531 116.282 466.144 111.37C466.144 111.37 484.431 73.3979 515.781 53.2948C515.781 53.2948 523.396 31.0886 540.808 22.8593C541.12 22.7052 541.471 22.6505 541.815 22.7024C542.158 22.7544 542.478 22.9105 542.73 23.1498C542.982 23.3891 543.155 23.6999 543.224 24.0404C543.294 24.3809 543.258 24.7346 543.12 25.0538C541.226 29.5995 535.701 39.1873 532.083 42.8056C536.156 40.2763 540.393 38.0203 544.766 36.0523C544.998 35.957 545.255 35.9392 545.498 36.0016C545.741 36.0641 545.957 36.2034 546.114 36.3988C546.271 36.5943 546.361 36.8353 546.37 37.086C546.379 37.3366 546.307 37.5835 546.164 37.7896C542.075 43.4848 533.023 54.8753 524.715 56.8739C524.715 56.8739 506.428 97.067 482.733 128.717L444.094 189.693C444.094 189.693 425.102 181.777 411.752 150.963Z" fill="white"/>
<path d="M443.99 190.477C443.895 190.496 443.797 190.496 443.702 190.477C442.919 190.137 424.409 182.025 411.046 151.289C410.982 151.147 410.967 150.987 411.005 150.835C411.043 150.683 411.131 150.548 411.255 150.453C412.993 149.042 453.669 116.112 465.569 110.861C467.215 107.582 485.424 72.0525 515.088 52.8769C515.976 50.4342 523.892 30.0307 540.39 22.2585C540.839 22.0468 541.341 21.976 541.831 22.0552C542.32 22.1345 542.774 22.3602 543.133 22.7026C543.473 23.0351 543.706 23.4607 543.803 23.9257C543.901 24.3907 543.859 24.8742 543.682 25.3151C541.329 30.4961 538.477 35.4353 535.165 40.0626C538.148 38.3311 541.227 36.7699 544.387 35.3863C544.762 35.2206 545.181 35.1846 545.578 35.284C545.976 35.3834 546.329 35.6124 546.582 35.9349C546.828 36.2598 546.962 36.6567 546.962 37.0648C546.962 37.4729 546.828 37.8697 546.582 38.1947C542.075 44.4777 533.336 55.2411 525.055 57.4618C523.278 61.3021 505.461 99.2616 483.138 129.201L444.525 190.124C444.471 190.222 444.394 190.305 444.301 190.366C444.208 190.427 444.101 190.465 443.99 190.477ZM412.64 151.172C424.475 178.041 440.633 187.25 443.781 188.844L482.08 128.404C505.461 97.054 523.879 56.9785 524.023 56.5605C524.069 56.4617 524.136 56.3743 524.22 56.3043C524.303 56.2344 524.401 56.1835 524.506 56.1555C532.735 54.1831 541.958 42.3485 545.537 37.3587C545.595 37.2822 545.626 37.1885 545.625 37.0923C545.624 36.9962 545.59 36.9032 545.53 36.8281C545.47 36.753 545.387 36.7002 545.293 36.678C545.2 36.6558 545.102 36.6655 545.014 36.7056C540.676 38.6592 536.47 40.8932 532.422 43.3935C532.273 43.4869 532.095 43.5225 531.922 43.4937C531.749 43.4648 531.592 43.3734 531.482 43.2368C531.368 43.1041 531.305 42.935 531.305 42.76C531.305 42.5851 531.368 42.4159 531.482 42.2832C534.969 38.7955 540.495 29.2208 542.376 24.7665C542.451 24.5822 542.471 24.3795 542.431 24.1841C542.392 23.9888 542.295 23.8096 542.153 23.6693C542.005 23.5266 541.816 23.4336 541.612 23.4032C541.409 23.3728 541.201 23.4064 541.017 23.4994C524.036 31.4675 516.447 53.2948 516.368 53.543C516.319 53.695 516.217 53.8245 516.081 53.9088C485.332 73.6723 466.94 111.318 466.757 111.697C466.68 111.85 466.55 111.971 466.392 112.037C455.602 116.582 417.068 147.553 412.575 151.172H412.64Z" fill="#252B31"/>
<path d="M235.605 196.433C235.605 196.433 171.899 186.963 159.843 190.842C159.843 190.842 121.165 174.07 84.3552 179.295C84.3552 179.295 64.0563 167.434 45.5339 172.607C45.1971 172.695 44.8954 172.885 44.6689 173.149C44.4425 173.414 44.3022 173.741 44.2667 174.087C44.2312 174.434 44.3023 174.783 44.4703 175.088C44.6384 175.393 44.8955 175.639 45.2073 175.794C49.6224 177.989 60.0592 181.633 65.1666 182.012C60.4561 182.774 55.8004 183.843 51.2291 185.212C50.9865 185.286 50.7751 185.438 50.6278 185.644C50.4804 185.85 50.4053 186.099 50.4143 186.353C50.4232 186.606 50.5157 186.849 50.6772 187.045C50.8387 187.24 51.0603 187.376 51.3074 187.433C58.126 189.079 72.4162 191.783 80.0447 187.864C80.0447 187.864 120.172 206.321 158.824 214.851L227.388 236.208C229.395 222.809 232.138 209.53 235.605 196.433Z" fill="white"/>
<path d="M227.349 236.927C227.275 236.939 227.2 236.939 227.127 236.927L158.562 215.569C122.131 207.497 83.8849 190.398 79.9662 188.661C72.2463 192.397 58.5831 189.967 51.0722 188.138C50.6791 188.037 50.3292 187.812 50.0747 187.496C49.8202 187.18 49.6748 186.79 49.6601 186.385C49.6454 185.979 49.7622 185.58 49.9932 185.246C50.2241 184.912 50.5569 184.662 50.9416 184.533C54.2392 183.528 57.5879 182.7 60.9735 182.051C55.4467 180.722 50.0649 178.849 44.9067 176.461C44.4727 176.241 44.1155 175.895 43.8823 175.468C43.6491 175.041 43.5508 174.554 43.6005 174.07C43.6485 173.576 43.8453 173.108 44.1648 172.728C44.4843 172.348 44.9115 172.073 45.3901 171.941C62.959 167.029 82.2782 177.31 84.5772 178.577C119.558 173.704 156.59 188.7 159.96 190.098C172.578 186.427 233.109 195.323 235.722 195.754C235.822 195.767 235.919 195.802 236.004 195.856C236.09 195.911 236.163 195.982 236.218 196.067C236.271 196.152 236.307 196.247 236.322 196.345C236.338 196.444 236.334 196.545 236.31 196.642C232.841 209.705 230.09 222.949 228.067 236.313C228.054 236.416 228.018 236.516 227.961 236.604C227.905 236.692 227.83 236.767 227.741 236.822C227.622 236.891 227.486 236.927 227.349 236.927ZM79.9662 187.146C80.0695 187.149 80.1713 187.171 80.2666 187.211C80.6584 187.394 120.76 205.733 158.902 214.159L226.722 235.281C228.735 222.41 231.394 209.65 234.69 197.047C227.323 195.989 171.076 188.008 160.091 191.548C159.927 191.612 159.745 191.612 159.581 191.548C159.203 191.378 120.669 174.919 84.4858 180.053C84.3273 180.081 84.164 180.048 84.0285 179.961C83.8195 179.844 63.7557 168.31 45.7427 173.352C45.5456 173.405 45.3697 173.517 45.2388 173.674C45.1079 173.83 45.0284 174.023 45.0112 174.227C44.9882 174.425 45.0273 174.626 45.1232 174.802C45.2192 174.977 45.3672 175.119 45.5468 175.207C49.9097 177.375 60.3203 180.98 65.2448 181.346C65.4173 181.361 65.5783 181.439 65.6983 181.563C65.8183 181.688 65.8892 181.852 65.898 182.025C65.9097 182.202 65.8544 182.377 65.743 182.515C65.6317 182.653 65.4725 182.744 65.2971 182.77C60.5999 183.517 55.9571 184.573 51.3987 185.931C51.3057 185.954 51.223 186.008 51.164 186.084C51.105 186.16 51.073 186.253 51.073 186.349C51.073 186.445 51.105 186.538 51.164 186.614C51.223 186.689 51.3057 186.743 51.3987 186.767C57.3683 188.204 72.0895 191.13 79.6004 187.25C79.7114 187.185 79.8373 187.149 79.9662 187.146Z" fill="#252B31"/>
<path d="M271.644 103.023C271.644 103.023 277.274 109.189 270.43 127.058C266.511 137.286 276.02 150.727 281.872 158.238C295.745 176.082 324.717 196.642 340.758 169.72C347.459 158.46 348.033 144.497 343.997 132.205C337.466 112.259 323.28 94.6634 305.776 99.7317C288.273 104.8 292.479 111.07 271.644 103.023Z" fill="white"/>
<path d="M320.576 183.371C306.743 183.371 291.016 171.131 281.298 158.643C274.466 149.852 265.832 136.986 269.751 126.758C276.282 109.633 271.161 103.533 271.057 103.468C270.952 103.348 270.89 103.197 270.88 103.038C270.87 102.879 270.914 102.721 271.003 102.589C271.093 102.458 271.224 102.36 271.376 102.311C271.527 102.261 271.691 102.264 271.841 102.318C285.896 107.739 288.247 106.55 293.942 103.624C297.63 101.678 301.508 100.115 305.515 98.9611C323.372 93.8014 338.028 111.788 344.637 131.905C349 145.241 347.798 159.127 341.319 170.008C336.356 178.328 329.838 182.796 321.935 183.279C321.517 183.371 321.047 183.371 320.576 183.371ZM273.291 104.408C274.597 107.439 276.06 114.414 271.109 127.307C267.021 137.965 278.633 152.896 282.447 157.807C292.257 170.426 308.272 182.77 321.909 181.934C329.315 181.476 335.454 177.244 340.196 169.355C346.453 158.826 347.615 145.372 343.37 132.44C336.93 112.977 322.928 95.5256 305.946 100.424C302.024 101.547 298.228 103.075 294.621 104.983C288.965 107.844 286.275 109.215 273.291 104.408Z" fill="#252B31"/>
<path d="M383.458 353.025C383.458 353.025 448.404 423.367 452.688 533.927C452.688 533.927 495.01 560.588 505.813 636.807C506.738 644.423 508.214 651.962 510.228 659.366C513.99 672.232 520.221 690.611 527.732 701.884C527.732 701.884 525.955 713.496 508.974 709.029C508.974 709.029 498.25 685.804 467.88 656.322C437.51 626.84 412.495 603.615 416.061 559.83C416.061 559.83 326.728 489.293 327.616 442.804C327.616 442.804 265.975 569.666 238.282 575.923C210.59 582.18 197.188 576.811 155.206 553.142C113.223 529.473 22.9883 529.525 22.9883 529.525C22.9883 529.525 35.0448 520.59 38.1668 508.978C38.1668 508.978 63.6384 509.879 110.088 490.69C156.538 471.502 202.557 525.959 202.557 525.959C202.557 525.959 205.535 373.782 283.844 346.834C283.844 346.769 335.061 376.695 383.458 353.025Z" fill="#5BC766"/>
<path d="M508.922 708.911C508.922 708.911 530.71 745.055 540.272 739.399C549.833 733.743 527.679 701.753 527.679 701.753C527.679 701.753 524.335 713.496 508.922 708.911Z" fill="#252B31"/>
<path d="M318.251 156.566C316.717 156.404 315.31 155.643 314.332 154.45C312.766 152.634 311.517 150.568 310.636 148.337C308.589 143.729 307.441 138.772 307.253 133.733L306.586 133.328C297.626 128.103 286.836 132.649 280.331 138.122C280.183 138.243 279.993 138.301 279.803 138.284C279.613 138.267 279.436 138.176 279.312 138.031C279.192 137.885 279.134 137.697 279.151 137.509C279.169 137.321 279.259 137.147 279.404 137.025C286.274 131.251 297.691 126.497 307.292 132.074C307.397 130.353 307.713 128.651 308.232 127.006C310.845 119.169 318.238 115.067 324.038 113.016C325.174 112.611 326.376 112.232 327.643 111.893C327.824 111.852 328.013 111.882 328.172 111.977C328.33 112.072 328.446 112.225 328.495 112.404C328.544 112.582 328.522 112.773 328.434 112.936C328.346 113.098 328.198 113.221 328.022 113.277C326.794 113.604 325.618 113.97 324.521 114.362C319.022 116.308 311.981 120.161 309.604 127.424C309.035 129.208 308.727 131.065 308.689 132.936C314.62 137.051 319.139 144.562 321.073 150.166C321.778 152.256 321.843 155.116 319.766 156.227C319.299 156.468 318.777 156.585 318.251 156.566ZM308.663 134.687C308.986 139.195 310.081 143.613 311.903 147.749C312.72 149.831 313.882 151.761 315.338 153.458C316.383 154.607 317.951 155.508 319.048 154.907C320.433 154.15 320.093 151.812 319.675 150.545C317.529 144.348 313.72 138.862 308.663 134.687Z" fill="#252B31"/>
<path d="M321.529 166.298C319.283 166.298 316.722 165.318 314.031 162.379C313.929 162.271 313.864 162.132 313.845 161.985C313.827 161.837 313.855 161.687 313.927 161.556C313.99 161.424 314.094 161.316 314.223 161.248C314.353 161.179 314.501 161.155 314.645 161.177C314.959 161.177 322.326 162.066 327.708 154.476C327.784 154.368 327.89 154.284 328.013 154.233C328.135 154.182 328.269 154.167 328.4 154.189C328.531 154.21 328.653 154.266 328.754 154.351C328.855 154.436 328.932 154.547 328.975 154.672C328.975 154.738 331.248 161.765 326.206 164.835C324.813 165.747 323.194 166.253 321.529 166.298ZM316.304 162.68C319.283 165.292 322.274 165.566 325.448 163.672C328.282 161.935 328.217 158.526 327.917 156.592C326.527 158.355 324.785 159.807 322.8 160.855C320.816 161.904 318.635 162.525 316.396 162.68H316.304Z" fill="#252B31"/>
<path d="M325.879 130.324C322.6 132.024 318.829 132.523 315.22 131.735C315.111 131.71 315.008 131.664 314.917 131.599C314.826 131.535 314.748 131.453 314.689 131.358C314.629 131.263 314.589 131.158 314.57 131.048C314.552 130.937 314.555 130.825 314.58 130.716C315.717 125.491 317.95 121.833 321.242 119.913L321.503 119.756C323.023 118.997 324.679 118.547 326.374 118.432C328.069 118.318 329.77 118.542 331.378 119.09C331.558 119.161 331.709 119.289 331.808 119.454C331.907 119.619 331.949 119.813 331.927 120.005C331.339 124.524 329.55 127.842 326.598 129.867C326.363 130.036 326.114 130.18 325.879 130.324ZM316.474 130.206C319.635 130.729 322.878 130.104 325.618 128.443C326.868 127.498 327.91 126.307 328.681 124.943C329.452 123.579 329.934 122.072 330.098 120.514C327.48 119.796 324.689 120.07 322.261 121.285C319.57 122.787 317.572 125.817 316.474 130.206Z" fill="#252B31"/>
<path d="M320.967 128.743C321.695 129.261 322.561 129.552 323.454 129.578C324.347 129.605 325.228 129.366 325.985 128.892C326.743 128.417 327.343 127.729 327.709 126.915C328.076 126.1 328.192 125.194 328.045 124.313C327.897 123.432 327.491 122.614 326.879 121.963C326.266 121.313 325.475 120.858 324.604 120.657C323.734 120.456 322.823 120.517 321.987 120.834C321.152 121.15 320.428 121.707 319.909 122.434C319.562 122.917 319.314 123.464 319.18 124.043C319.045 124.622 319.026 125.223 319.125 125.809C319.223 126.396 319.436 126.957 319.753 127.46C320.069 127.964 320.482 128.4 320.967 128.743Z" fill="#252B31"/>
<path d="M294.581 147.148C291.042 148.202 287.247 147.995 283.844 146.561C283.638 146.469 283.475 146.3 283.392 146.09C283.309 145.88 283.312 145.645 283.4 145.437C285.49 140.487 288.364 137.326 291.956 136.058L292.243 135.954C293.876 135.489 295.585 135.352 297.271 135.551C298.957 135.751 300.587 136.283 302.066 137.117C302.232 137.218 302.358 137.373 302.424 137.556C302.49 137.738 302.493 137.938 302.432 138.122C301.021 142.446 298.644 145.385 295.365 146.835C295.104 146.957 294.843 147.061 294.581 147.148ZM285.359 145.294C288.369 146.407 291.677 146.407 294.686 145.294C296.089 144.595 297.334 143.615 298.343 142.415C299.352 141.215 300.103 139.821 300.551 138.318C298.111 137.135 295.32 136.893 292.713 137.639C289.774 138.566 287.253 141.166 285.359 145.294Z" fill="#252B31"/>
<path d="M290.049 144.693C290.67 145.339 291.468 145.786 292.344 145.978C293.219 146.17 294.132 146.099 294.966 145.772C295.801 145.446 296.52 144.88 297.033 144.145C297.546 143.41 297.829 142.539 297.848 141.643C297.866 140.747 297.618 139.866 297.136 139.111C296.653 138.356 295.958 137.76 295.137 137.4C294.316 137.04 293.407 136.931 292.525 137.088C291.642 137.244 290.826 137.659 290.179 138.279C289.749 138.691 289.405 139.184 289.165 139.73C288.926 140.276 288.796 140.863 288.784 141.459C288.772 142.054 288.877 142.647 289.094 143.202C289.311 143.756 289.636 144.263 290.049 144.693Z" fill="#252B31"/>
<path d="M298.109 202.964L345.003 232.002L364.218 186.884C364.218 186.884 380.402 188.595 388.37 181.947C396.338 175.298 401.328 163.176 405.796 157.82C405.796 157.82 416.246 183.945 439.457 198.314L415.671 226.607C415.671 226.607 410.759 332.922 383.511 353.025C383.511 353.025 337.061 377.139 283.898 346.768C283.898 346.768 310.257 270.379 269.607 250.733C269.607 250.733 258.596 242.687 238.336 238.52L247.166 198.314C247.166 198.314 264.435 206.661 277.21 206.661C289.985 206.661 298.109 202.964 298.109 202.964Z" fill="white"/>
<path d="M340.04 362.731C320.169 362.687 300.663 357.397 283.493 347.396C283.348 347.311 283.236 347.179 283.177 347.022C283.117 346.865 283.113 346.693 283.166 346.533C283.427 345.776 308.847 270.523 269.242 251.374C269.02 251.23 257.982 243.314 238.14 239.226C237.954 239.183 237.79 239.071 237.683 238.912C237.632 238.831 237.598 238.741 237.582 238.647C237.566 238.553 237.57 238.456 237.592 238.363L246.526 198.17C246.545 198.063 246.589 197.962 246.655 197.876C246.721 197.79 246.807 197.72 246.905 197.674C247.003 197.628 247.11 197.605 247.219 197.605C247.327 197.605 247.434 197.628 247.532 197.674C247.702 197.752 264.814 205.942 277.301 205.942C284.323 206.078 291.304 204.835 297.848 202.285C297.951 202.23 298.065 202.201 298.181 202.201C298.298 202.201 298.412 202.23 298.514 202.285L344.716 230.879L363.591 186.532C363.654 186.39 363.76 186.273 363.893 186.195C364.027 186.118 364.182 186.085 364.336 186.101C364.493 186.101 380.207 187.773 387.848 181.346C392.903 177.14 396.678 170.804 399.996 165.227C401.546 162.471 403.292 159.83 405.221 157.324C405.298 157.229 405.399 157.155 405.514 157.112C405.629 157.068 405.753 157.056 405.874 157.076C405.998 157.096 406.115 157.147 406.213 157.225C406.311 157.302 406.388 157.404 406.436 157.52C406.54 157.781 417.055 183.645 439.81 197.648C439.897 197.702 439.972 197.775 440.029 197.861C440.085 197.946 440.123 198.043 440.139 198.145C440.155 198.246 440.149 198.35 440.122 198.449C440.094 198.548 440.046 198.64 439.98 198.719L416.324 226.882C415.984 233.883 410.707 333.811 383.89 353.587C383.537 353.783 365.838 362.731 340.04 362.731ZM284.721 346.429C336.722 375.832 382.688 352.621 383.133 352.385C409.701 332.792 414.861 227.639 414.9 226.581C414.91 226.423 414.969 226.272 415.07 226.15L438.373 198.471C418.414 185.839 407.912 164.352 405.613 159.205C404.063 161.396 402.625 163.663 401.302 165.998C397.919 171.68 394.079 178.119 388.828 182.495C381.382 188.7 367.627 187.877 364.701 187.616L345.709 232.25C345.666 232.344 345.605 232.429 345.529 232.499C345.452 232.568 345.362 232.622 345.265 232.655C345.165 232.688 345.059 232.697 344.955 232.684C344.851 232.67 344.752 232.634 344.664 232.577L298.11 203.748C291.477 206.271 284.423 207.504 277.327 207.379C265.937 207.379 251.372 201.018 247.754 199.346L239.172 237.972C258.896 242.165 269.895 250.067 269.999 250.159C308.755 268.89 287.007 339.375 284.721 346.429Z" fill="#252B31"/>
<path d="M411.752 150.963C411.752 150.963 421.026 177.924 444.042 189.758L439.509 198.301C439.509 198.301 413.881 180.601 405.848 157.807L411.752 150.963Z" fill="#252B31"/>
<path d="M439.457 199.045C439.313 199.047 439.172 199.006 439.052 198.928C438.791 198.745 413.136 180.836 405.09 158.095C405.046 157.976 405.036 157.848 405.059 157.724C405.082 157.6 405.137 157.485 405.22 157.389L411.138 150.532C411.217 150.436 411.321 150.364 411.438 150.323C411.556 150.281 411.682 150.272 411.804 150.296C411.93 150.315 412.049 150.369 412.146 150.453C412.243 150.536 412.314 150.645 412.352 150.767C412.444 151.028 421.81 177.597 444.29 189.157C444.457 189.252 444.583 189.406 444.643 189.588C444.714 189.764 444.714 189.961 444.643 190.137L440.123 198.667C440.073 198.756 440.005 198.834 439.925 198.897C439.844 198.96 439.751 199.006 439.653 199.032L439.457 199.045ZM406.605 158.016C413.907 178.106 435.185 194.343 439.261 197.269L443.062 190.098C423.22 179.53 413.58 157.624 411.516 152.373L406.605 158.016Z" fill="#252B31"/>
<path d="M306.678 198.745L298.148 202.938L345.042 231.976L364.257 186.858H356.172L342.247 220.246L306.678 198.745Z" fill="#252B31"/>
<path d="M247.217 198.314L235.604 196.459L227.336 236.221L238.282 238.52L247.217 198.314Z" fill="#252B31"/>
<path d="M238.283 239.238H238.139L227.193 236.926C227.008 236.886 226.847 236.774 226.744 236.615C226.641 236.456 226.605 236.263 226.644 236.077L234.9 196.328C234.938 196.146 235.045 195.986 235.198 195.882C235.351 195.777 235.539 195.736 235.723 195.767L247.335 197.622C247.531 197.658 247.705 197.771 247.818 197.935C247.923 198.097 247.961 198.294 247.923 198.484L238.988 238.69C238.95 238.847 238.859 238.987 238.731 239.087C238.603 239.187 238.445 239.24 238.283 239.238ZM228.186 235.62L237.747 237.632L246.355 198.862L236.167 197.243L228.186 235.62Z" fill="#252B31"/>
<path d="M314.632 278.922C304.643 278.708 294.935 275.575 286.705 269.909L287.58 268.773C288.886 269.805 321.464 293.839 349.862 258.479L350.267 257.97L350.815 258.336C350.972 258.44 367.091 268.786 384.255 263.143C397.317 258.793 407.676 246.423 414.951 226.372L416.258 226.855C408.825 247.35 398.192 260.021 384.66 264.501C368.658 269.805 353.584 261.68 350.541 259.877C338.602 274.585 325.657 278.922 314.632 278.922Z" fill="#252B31"/>
</svg>
