<svg width="381" height="598" viewBox="0 0 381 598" fill="none" xmlns="http://www.w3.org/2000/svg">
<path d="M58.3188 163.572C49.1095 140.016 26.0777 135.468 10.9139 119.017C-5.85123 100.842 -1.97213 70.2836 13.5269 51.0264C29.026 31.7692 53.0175 21.6025 76.6043 14.2595C110.499 3.70507 147.186 -2.52112 181.358 7.11906C215.53 16.7592 246.181 45.5698 248.73 81.0116C249.135 86.584 248.834 92.2952 246.944 97.5492C240.111 116.506 216.553 122.431 196.498 124.167C170.611 126.434 144.574 126.413 118.691 124.103C105.198 122.9 91.1033 121.152 78.4832 126.094C65.8631 131.035 53.3817 150.941 58.3188 163.572Z" fill="#5BC766"/>
<path d="M61.735 163.005C56.11 148.614 45.4034 141.555 34.0667 134.073C27.3029 129.618 20.3135 125.006 14.5093 118.71C6.53143 110.03 2.61764 97.879 3.52527 84.4719C4.44744 71.7424 9.18191 59.5867 17.1108 49.5913C33.5638 29.1479 59.6885 19.0506 80.6044 12.5582C122.355 -0.438093 156.782 -2.77581 185.855 5.41198C203.321 10.3641 219.167 19.8527 231.786 32.9148C244.99 46.756 252.597 63.0621 253.846 80.0742C254.326 86.6881 253.719 92.2257 252.008 96.9763C246.394 112.542 229.172 121.696 200.822 124.172C174.885 126.44 148.798 126.419 122.864 124.109L120.043 123.854C107.533 122.697 94.6062 121.54 83.044 126.042C77.1473 128.356 70.9327 134.281 66.8108 141.509C62.4403 149.187 61.1858 156.791 63.3421 162.374L61.735 163.005ZM149.451 2.36832C129.113 2.36832 106.481 6.30309 81.1016 14.2073C60.4169 20.6476 34.5986 30.6118 18.4405 50.6618C3.71604 68.9527 -1.30194 98.9611 15.7869 117.518C21.4408 123.658 28.3434 128.206 35.0206 132.603C44.5131 138.876 54.341 145.351 60.5788 156.507C60.5788 143.974 71.4298 128.732 82.3908 124.427C94.3287 119.752 107.469 120.955 120.176 122.113L122.997 122.367C148.829 124.668 174.813 124.689 200.649 122.431C228.271 120.012 244.995 111.24 250.366 96.363C251.996 91.838 252.563 86.526 252.1 80.161C249.742 47.5429 222.299 17.4767 185.363 7.07268C173.666 3.8586 161.581 2.27555 149.451 2.36832Z" fill="#5BC766"/>
<path d="M203.391 72.3609C205.385 71.5161 213.941 67.9285 216.317 68.3104C217.213 68.4493 218.19 68.889 218.439 69.757C218.757 70.8622 217.589 71.7417 216.508 72.1352C212.837 73.4892 204.998 72.7139 203.391 72.384V72.3609Z" fill="white"/>
<path d="M201.402 64.6997C202.148 62.6686 205.374 53.9601 207.259 52.4672C207.97 51.8885 208.958 51.4893 209.762 51.8885C210.785 52.4093 210.629 53.8617 210.184 54.9206C208.658 58.5313 202.749 63.7391 201.402 64.6823V64.6997Z" fill="white"/>
<path d="M200.076 80.9305C201.984 81.9547 210.147 86.364 211.361 88.4529C211.818 89.2341 212.089 90.2698 211.569 91.0105C210.904 91.9537 209.494 91.5891 208.505 91.0105C205.146 88.9968 200.816 82.4177 200.076 80.9479V80.9305Z" fill="white"/>
<path d="M49.0646 72.3609C47.0701 71.5161 38.5141 67.9285 36.1381 68.3104C35.242 68.4493 34.265 68.889 34.0164 69.757C33.7043 70.8622 34.8663 71.7417 35.9473 72.1352C39.6183 73.4892 47.4575 72.7139 49.0646 72.384V72.3609Z" fill="white"/>
<path d="M51.0539 64.6997C50.3139 62.6686 47.0881 53.9601 45.1977 52.4672C44.4866 51.8885 43.5038 51.4893 42.7002 51.8885C41.6712 52.4093 41.8273 53.8617 42.2782 54.9206C43.7987 58.5313 49.7127 63.7391 51.0539 64.6823V64.6997Z" fill="white"/>
<path d="M52.3836 80.9305C50.4758 81.9547 42.3129 86.364 41.0989 88.4529C40.6422 89.2341 40.3647 90.2698 40.885 91.0105C41.5498 91.9537 42.9604 91.5891 43.949 91.0105C47.3078 88.9968 51.6378 82.4177 52.3836 80.9479V80.9305Z" fill="white"/>
<path d="M90.3791 86.5087C90.3791 86.2251 90.3155 86.0168 90.3155 85.8143C90.2692 82.0936 90.1478 78.373 90.2114 74.6523C90.2634 71.435 90.5178 68.2178 90.7028 65.0063C90.8531 62.5182 91.0227 60.0358 91.2115 57.5592C91.2867 56.4887 91.4197 55.4182 91.5064 54.3477C91.5064 54.0121 91.6625 53.8212 92.0093 53.7691C95.0675 53.364 98.1084 52.716 101.219 52.9127C102.86 53.0169 104.508 53.1557 106.138 53.3641C106.912 53.4923 107.671 53.6958 108.404 53.9716C109.302 54.2725 110.183 54.6081 111.046 54.9785C112.987 55.742 114.636 57.1038 115.752 58.8669C116.851 60.6549 117.955 62.4487 118.469 64.5029C120.065 70.868 118.568 76.3188 113.683 80.7628C110.471 83.7082 106.437 85.6018 102.12 86.1904C100.08 86.4913 98.0737 86.9311 95.9694 86.8674C94.3738 86.8153 92.7782 86.7691 91.1826 86.6996C90.9098 86.659 90.641 86.5951 90.3791 86.5087ZM100.085 77.9795C100.17 78.012 100.257 78.0372 100.346 78.0547C100.422 78.066 100.5 78.066 100.577 78.0547C101.703 77.7198 102.732 77.12 103.579 76.3057C104.425 75.4913 105.065 74.4859 105.445 73.3735C106.237 70.9823 106.141 68.3851 105.173 66.0595C104.369 63.9301 102.502 63.2357 100.207 62.9927C100.138 62.9927 100.062 63.0447 99.9063 63.0968C100.01 68.0384 99.8947 73.0263 100.085 77.9795Z" fill="white"/>
<path d="M145.168 67.7607C143.52 67.9169 141.867 68.0384 140.225 68.2236C138.08 68.4724 137.23 69.433 137.184 71.6086C137.158 72.7961 137.371 73.9766 137.809 75.0805C138.133 75.8771 138.647 76.5823 139.306 77.1347C139.79 77.558 140.399 77.8102 141.04 77.8522C141.688 77.8985 141.988 77.7828 142.225 77.1925C142.444 76.5973 142.616 75.986 142.74 75.364C142.873 74.7449 142.919 74.1084 143.035 73.4834C143.243 72.3609 143.688 71.9674 144.838 71.95C146.162 71.95 147.492 71.95 148.816 71.95C149.475 71.95 150.14 71.95 150.804 71.95C151.839 71.9963 152.238 72.3377 152.267 73.3446C152.402 75.8944 151.947 78.441 150.937 80.7859C150.247 82.3087 149.153 83.6134 147.775 84.5587C145.093 86.4045 142.15 87.3304 138.855 86.8732C137.131 86.6403 135.441 86.2033 133.82 85.5713C131.824 84.7159 130.112 83.3114 128.883 81.5208C126.674 78.5774 125.504 74.9829 125.558 71.302C125.516 65.5719 127.598 60.0298 131.403 55.7481C133.024 53.8409 135.111 52.3874 137.462 51.5298C138.747 51.096 140.101 50.9 141.456 50.9511C142.669 50.9558 143.88 51.0389 145.081 51.1999C148.087 51.6339 150.226 53.3351 151.712 55.9274C152.163 56.7144 152.597 57.5187 153.013 58.3288C153.957 60.2215 154.321 62.3515 154.059 64.4508C153.897 66.0479 153.25 66.7191 151.672 66.9506C149.515 67.2688 147.347 67.5292 145.179 67.7838L145.168 67.7607ZM137.282 61.1584C137.41 61.3029 137.573 61.4107 137.756 61.4707C137.939 61.5307 138.135 61.5408 138.323 61.4998C139.56 61.4245 140.803 61.3956 142.04 61.2683C143.277 61.141 144.353 60.9501 145.474 60.7533C146.116 60.6434 146.191 60.4466 145.977 59.8391C145.831 59.4054 145.594 59.0081 145.282 58.6737C144.97 58.3393 144.59 58.0757 144.168 57.9006C143.451 57.602 142.676 57.4713 141.902 57.5187C140.323 57.5592 137.78 58.8091 137.282 61.1584Z" fill="white"/>
<path d="M170.541 86.9774C170.292 86.9774 170.055 87.0353 169.812 87.0353L163.141 86.9369C162.077 86.9369 161.805 86.746 161.8 85.6639C161.781 84.31 161.858 82.9564 162.031 81.6134C163.002 74.2871 164.58 67.0543 166.748 59.9895C167.586 57.2526 168.696 54.6255 169.789 51.9927C169.899 51.6887 170.102 51.4269 170.368 51.2442C170.635 51.0615 170.952 50.9671 171.275 50.9743C172.68 50.8701 174.09 50.8007 175.501 50.7428C177.374 50.6676 179.241 50.6329 181.114 50.5577C181.57 50.5904 182.005 50.7598 182.363 51.0437C182.542 51.1564 182.693 51.3091 182.803 51.4898C182.913 51.6705 182.98 51.8743 182.999 52.0853C183.854 55.343 184.733 58.5892 185.589 61.8528C186.585 65.4962 187.327 69.2046 187.809 72.9511C188.034 74.9474 188.427 76.9264 188.647 78.9227C188.867 80.919 188.971 82.8806 189.098 84.8596C189.144 85.525 188.907 85.7912 188.155 85.9474C186.884 86.2136 185.606 86.4682 184.317 86.6707C182.548 86.9485 180.773 87.1684 178.998 87.4056C178.807 87.4323 178.613 87.444 178.42 87.4403C178.283 87.4534 178.145 87.4125 178.037 87.3261C177.929 87.2397 177.859 87.1146 177.842 86.9774C177.79 86.6013 177.75 86.2194 177.732 85.8201C177.68 84.4372 177.674 83.0484 177.576 81.6655C177.507 80.6413 177.327 79.6229 177.183 78.5177C175.686 78.3962 174.292 78.7896 172.899 78.9343C172.119 81.6423 171.338 84.2925 170.541 86.9774ZM175.478 62.0958C174.477 65.1314 173.774 68.2573 173.379 71.4293C174.535 71.7823 177.166 71.7244 178.004 71.3367C177.541 68.212 177.119 65.07 175.483 62.09L175.478 62.0958Z" fill="white"/>
<path d="M69.4822 60.5914C72.2051 59.7928 78.5585 58.9075 80.1714 59.5845C80.0963 60.0185 80.0442 60.4698 79.9286 60.9038C79.1366 63.8318 79.0499 66.8349 79.0152 69.8381C78.9805 72.7023 79.0152 75.5666 79.0152 78.4309C79.0152 80.9075 79.0441 83.3783 79.0499 85.8491C79.0499 86.3062 79.0152 86.7633 78.9805 87.2205C78.9458 87.6776 78.8013 87.8859 78.2868 87.8338C77.6029 87.7702 76.9234 87.6659 76.2518 87.5214C74.6274 87.151 73.0087 86.7344 71.3842 86.3641C70.8697 86.2426 70.3494 86.15 69.8348 86.0574C69.5802 86.0329 69.3428 85.9178 69.1657 85.7331C68.9886 85.5484 68.8835 85.3062 68.8694 85.0506C68.7018 83.5519 68.4358 82.0532 68.378 80.5487C68.2682 77.5977 68.2393 74.6408 68.2566 71.6839C68.3002 70.3093 68.416 68.938 68.6035 67.5756C68.8347 65.4577 69.1122 63.3457 69.3724 61.2105C69.3724 61.0138 69.4417 60.8112 69.4822 60.5914Z" fill="white"/>
<path d="M76.0772 57.3683C75.2966 57.3744 74.5245 57.2064 73.8168 56.8764C73.0982 56.6089 72.5077 56.0785 72.1644 55.3923C71.8211 54.7061 71.7505 53.9151 71.9669 53.1789C72.3831 51.1363 74.0423 50.1989 75.8518 50.1468C76.7979 50.1066 77.7331 50.3613 78.5284 50.8759C79.1832 51.2923 79.6625 51.9346 79.8756 52.6812C80.0887 53.4278 80.0208 54.2267 79.6846 54.9264C79.3678 55.6275 78.8629 56.227 78.226 56.6581C77.5892 57.0891 76.8453 57.335 76.0772 57.3683Z" fill="white"/>
<path d="M280.288 277.561C280.032 277.713 279.845 277.96 279.768 278.248C274.899 296.985 264.581 312.6 264.483 312.759C264.418 312.848 264.369 312.947 264.34 313.054C257.705 334.963 265.698 347.753 268.317 351.175C243.485 371.09 210.576 355.98 203.549 352.362C206.093 349.597 211.338 341.619 208.946 324.514C216.69 330.525 225.99 334.195 235.748 335.091H235.846C236.13 335.092 236.403 334.986 236.611 334.794C236.82 334.602 236.948 334.339 236.971 334.056C236.996 333.757 236.903 333.46 236.711 333.229C236.518 332.999 236.243 332.854 235.945 332.825C198.401 329.659 182.943 283.416 182.792 282.963C182.742 282.813 182.662 282.674 182.557 282.556C182.452 282.438 182.324 282.343 182.181 282.275C182.068 282.222 170.625 276.987 168.451 270.754C168.19 270.069 168.076 269.337 168.118 268.605C168.159 267.873 168.355 267.159 168.693 266.508C169.395 265.133 170.248 264.37 171.229 264.242C171.345 264.234 171.461 264.234 171.576 264.242C173.403 264.242 175.486 266.047 176.165 266.795C176.36 266.998 176.622 267.121 176.902 267.141C177.182 267.16 177.459 267.075 177.68 266.902C177.901 266.729 178.049 266.48 178.097 266.204C178.145 265.927 178.089 265.643 177.939 265.405C178.219 264.463 178.331 263.478 178.271 262.497C177.698 252.222 178.128 233.72 187.381 225.183C191.42 221.451 196.779 220.023 203.3 220.915C206.681 221.383 210.229 222.123 213.656 222.849C224.54 225.115 235.786 227.495 245.832 222.343C258.498 215.83 270.416 221.104 275.337 226.241C283.006 234.241 280.666 256.929 279.919 262.761C279.594 263.086 279.368 263.328 279.269 263.433C279.107 263.66 279.034 263.938 279.064 264.214C279.094 264.491 279.224 264.747 279.43 264.934C279.636 265.121 279.904 265.225 280.182 265.227C280.46 265.229 280.729 265.128 280.938 264.944C282.273 263.479 286.41 259.769 289.353 260.071C289.876 260.144 290.373 260.346 290.798 260.659C291.224 260.971 291.565 261.385 291.791 261.862C294.931 267.241 284.553 275.023 280.288 277.561Z" fill="white"/>
<path d="M198.817 186.57C198.817 186.57 228.027 167.457 268.461 186.57C268.461 186.57 291.701 152.196 315.855 179.121C325.146 189.471 333.056 220.303 293.739 228.734C293.739 228.734 292.939 254.927 280.1 264.181C280.1 264.181 284.629 235.367 275.609 225.961C270.93 221.073 258.793 215.241 245.659 221.987C232.526 228.734 217.196 222.433 203.346 220.529C180.77 217.417 176.77 242.257 177.887 262.497C177.887 262.497 178.264 272.053 172.422 259.656C169.033 252.464 166.241 243.912 167.365 228.167C167.365 228.167 125.746 216.374 147.62 182.619C166.965 152.755 198.817 186.57 198.817 186.57Z" fill="#252B31"/>
<path d="M316.144 178.864C309.502 171.461 302.279 167.978 294.716 168.492C280.752 169.451 269.883 183.941 268.344 186.094C230.348 168.28 201.922 184.259 198.903 186.094C196.895 184.047 181.15 168.62 165.632 170.018C158.401 170.675 152.242 174.845 147.328 182.423C141.086 192.063 139.388 200.857 142.286 208.578C147.276 221.859 164.522 227.676 166.998 228.454C165.919 244.191 168.81 252.826 172.108 259.822C172.546 260.751 172.946 261.552 173.316 262.24C175.15 265.707 176.169 266.402 176.841 266.402C176.923 266.41 177.007 266.41 177.09 266.402C177.305 266.325 177.497 266.196 177.65 266.026C177.803 265.855 177.911 265.65 177.965 265.428C178.245 264.485 178.357 263.501 178.297 262.519C177.724 252.245 178.154 233.743 187.408 225.206C191.446 221.474 196.805 220.046 203.326 220.937C206.708 221.406 210.255 222.146 213.682 222.871C224.566 225.138 235.812 227.518 245.858 222.365C258.524 215.853 270.442 221.126 275.363 226.264C283.032 234.264 280.692 256.951 279.945 262.784C279.839 263.637 279.764 264.128 279.756 264.166L279.613 265.058L280.367 264.529C282.592 262.872 284.497 260.824 285.991 258.485C293.078 247.833 294.037 231.575 294.15 229.021C313.397 224.828 320.19 215.392 322.545 208.155C326.417 196.218 320.839 184.1 316.144 178.864ZM293.372 228.424V228.719C293.372 228.945 292.678 248.052 284.541 259.172C283.423 260.723 282.106 262.12 280.624 263.328C280.677 262.957 280.737 262.481 280.813 261.915C281.681 254.806 283.53 233.66 275.891 225.697C270.819 220.409 258.531 214.954 245.496 221.647C235.684 226.687 224.573 224.352 213.795 222.093C210.353 221.338 206.791 220.62 203.386 220.152C196.631 219.222 191.068 220.726 186.849 224.609C177.369 233.365 176.916 252.116 177.497 262.512C177.531 263.271 177.472 264.032 177.324 264.778C177.21 265.262 177.059 265.602 176.863 265.655C176.667 265.707 176.033 265.654 174.365 262.693C173.904 261.877 173.369 260.835 172.742 259.512C169.474 252.57 166.598 243.972 167.723 228.22V227.91L167.428 227.827C167.24 227.774 148.144 222.222 142.928 208.328C140.113 200.849 141.788 192.274 147.894 182.853C152.672 175.48 158.643 171.423 165.632 170.766C166.281 170.705 166.938 170.675 167.594 170.675C183.105 170.675 198.345 186.661 198.503 186.827L198.722 187.061L198.986 186.888C199.273 186.699 228.476 168.106 268.261 186.888L268.555 187.024L268.736 186.759C268.849 186.593 280.058 170.229 294.723 169.224C302.06 168.718 309.064 172.125 315.533 179.348C321.058 185.505 325.119 197.6 321.783 207.898C318.492 218.029 308.755 225.093 293.621 228.341L293.372 228.424Z" fill="#252B31"/>
<path d="M236.973 334.079C236.951 334.361 236.822 334.625 236.614 334.817C236.405 335.009 236.132 335.115 235.849 335.114H235.751C225.992 334.218 216.692 330.548 208.948 324.537C208.073 323.872 207.197 323.177 206.337 322.452C201.411 318.238 197.041 313.415 193.332 308.098C188.108 300.705 183.892 292.649 180.794 284.141C178.53 283.038 168.574 277.946 166.318 271.51C165.948 270.534 165.789 269.491 165.851 268.449C165.914 267.407 166.196 266.39 166.68 265.466C167.737 263.381 169.171 262.202 170.937 261.96C171.73 261.866 172.533 261.946 173.292 262.194C173.465 262.247 173.647 262.308 173.813 262.376C173.979 262.444 174.205 262.542 174.386 262.633C175.47 263.178 176.466 263.881 177.345 264.718L177.655 265.02C177.719 265.081 177.78 265.147 177.836 265.216L177.941 265.352C178.091 265.59 178.147 265.874 178.099 266.151C178.052 266.428 177.903 266.676 177.682 266.85C177.461 267.023 177.184 267.107 176.904 267.088C176.624 267.068 176.362 266.945 176.168 266.742C175.488 265.987 173.405 264.189 171.578 264.189C171.463 264.181 171.347 264.181 171.231 264.189C170.25 264.325 169.397 265.088 168.695 266.455C168.358 267.106 168.162 267.821 168.12 268.552C168.078 269.284 168.192 270.017 168.454 270.701C170.627 276.911 182.04 282.169 182.183 282.222C182.326 282.29 182.454 282.385 182.559 282.503C182.664 282.622 182.744 282.76 182.795 282.91C182.946 283.371 198.404 329.614 235.947 332.772C236.102 332.786 236.252 332.831 236.389 332.905C236.526 332.979 236.646 333.081 236.742 333.203C236.839 333.326 236.909 333.467 236.948 333.617C236.988 333.768 236.997 333.925 236.973 334.079Z" fill="#252B31"/>
<path d="M281.844 279.268C277.059 297.241 267.504 312.245 266.462 313.869C259.79 336.096 269.043 348.501 270.553 350.322L270.742 350.556C270.877 350.697 270.971 350.871 271.015 351.062C271.059 351.252 271.051 351.45 270.991 351.636C270.94 351.834 270.835 352.015 270.689 352.158C270.483 352.348 270.214 352.456 269.934 352.46C269.779 352.46 269.626 352.428 269.484 352.366C269.343 352.303 269.215 352.212 269.111 352.097L269.066 352.044C268.953 351.923 268.696 351.636 268.311 351.175C265.692 347.753 257.699 334.955 264.333 313.054C264.363 312.947 264.411 312.847 264.477 312.759C264.575 312.6 274.863 297.015 279.761 278.248C279.838 277.96 280.025 277.713 280.282 277.561C284.547 275.022 294.925 267.241 291.785 261.869C291.559 261.392 291.217 260.979 290.792 260.666C290.366 260.354 289.87 260.152 289.347 260.079C286.403 259.777 282.267 263.486 280.931 264.952C280.722 265.136 280.453 265.236 280.175 265.234C279.897 265.232 279.63 265.128 279.424 264.941C279.218 264.755 279.087 264.498 279.058 264.222C279.028 263.945 279.101 263.667 279.263 263.441C279.361 263.335 279.588 263.093 279.912 262.768L280.35 262.345L280.795 261.937C281.935 260.891 283.185 259.971 284.524 259.195L285.279 258.802L285.958 258.492C287.101 257.979 288.354 257.758 289.604 257.85C290.479 257.952 291.317 258.267 292.043 258.768C292.769 259.268 293.362 259.939 293.77 260.721C298.299 268.51 284.471 277.629 281.844 279.268Z" fill="#252B31"/>
<path d="M203.552 352.362C203.288 352.661 203.003 352.941 202.699 353.2C202.571 353.323 202.435 353.437 202.291 353.54C202.1 353.678 201.87 353.752 201.635 353.752C201.455 353.752 201.278 353.709 201.118 353.628C200.958 353.546 200.82 353.428 200.714 353.283C200.648 353.19 200.595 353.088 200.555 352.981C200.478 352.751 200.476 352.502 200.551 352.27C200.626 352.039 200.773 351.838 200.971 351.697L201.076 351.614C202.095 350.745 209.96 343.25 206.36 322.429C206.325 322.279 206.321 322.124 206.348 321.972C206.375 321.82 206.433 321.676 206.517 321.547C206.602 321.419 206.712 321.309 206.841 321.224C206.97 321.14 207.114 321.082 207.266 321.056C207.417 321.029 207.573 321.033 207.723 321.069C207.872 321.104 208.013 321.17 208.137 321.262C208.261 321.353 208.364 321.469 208.441 321.603C208.519 321.736 208.568 321.883 208.586 322.036C208.737 322.883 208.866 323.714 208.971 324.522C211.341 341.619 206.096 349.596 203.552 352.362Z" fill="#252B31"/>
<path d="M312.819 521.167C312.759 522.187 312.691 523.192 312.6 524.189C312.457 525.98 312.268 527.725 312.064 529.417C310.161 544.66 306.182 559.571 300.237 573.734C300.177 573.87 300.146 573.945 300.139 573.953L298.078 573.001C298.078 572.948 298.712 571.618 299.648 569.224C304.667 556.308 308.085 542.825 309.823 529.077C312.57 506.413 310.94 474.236 287.609 449.592L289.255 448.036C293.773 452.799 297.708 458.085 300.977 463.781C301.53 464.737 302.059 465.704 302.562 466.682C312.087 484.927 313.846 504.743 312.819 521.167Z" fill="#252B31"/>
<path d="M307.893 446.329L302.564 466.682L302.458 467.082L300.262 466.508L300.979 463.781L305.704 445.755L307.893 446.329Z" fill="#252B31"/>
<path d="M287.981 558.322C287.92 558.662 287.852 559.01 287.777 559.35L285.565 558.881C285.626 558.594 285.686 558.307 285.739 558.02C290.856 531.381 274.991 497.747 274.832 497.4L276.87 496.425C277.549 497.845 293.181 531.004 287.981 558.322Z" fill="#252B31"/>
<path d="M271.129 572.087L271.038 574.353C270.472 574.353 269.898 574.301 269.332 574.263C238.386 572.283 213.221 550.367 212.965 550.148L214.474 548.448C214.716 548.659 239.269 570.024 269.393 571.989C269.951 572.034 270.54 572.064 271.129 572.087Z" fill="#252B31"/>
<path d="M276.772 560.596L274.93 561.918L274.757 561.676L241.471 515.456L243.305 514.134L276.583 560.332L276.772 560.596Z" fill="#252B31"/>
<path d="M299.649 569.224C298.874 566.518 297.378 564.075 295.323 562.155C293.268 560.235 290.73 558.91 287.98 558.322C287.235 558.159 286.478 558.058 285.716 558.02C285.399 558.02 285.074 558.02 284.75 558.02C281.853 558.015 279.014 558.83 276.56 560.369C275.919 560.771 275.308 561.221 274.734 561.714C271.683 564.31 269.761 567.992 269.374 571.981C269.322 572.483 269.296 572.987 269.299 573.492C269.299 573.759 269.299 574.011 269.299 574.248C269.487 577.996 271.036 581.548 273.654 584.235C274.261 584.867 274.923 585.443 275.632 585.958C277.919 587.633 280.623 588.646 283.448 588.887C286.272 589.128 289.109 588.586 291.647 587.322C294.184 586.058 296.326 584.119 297.837 581.719C299.348 579.318 300.171 576.548 300.215 573.711C300.215 573.628 300.215 573.537 300.215 573.454C300.227 572.024 300.036 570.6 299.649 569.224ZM284.772 586.69C282.16 586.69 279.606 585.915 277.434 584.462C275.262 583.01 273.569 580.945 272.569 578.529C271.569 576.113 271.308 573.455 271.817 570.89C272.327 568.325 273.585 565.97 275.432 564.121C277.279 562.272 279.633 561.013 282.195 560.502C284.758 559.992 287.413 560.254 289.827 561.255C292.241 562.255 294.304 563.95 295.755 566.124C297.206 568.298 297.981 570.854 297.981 573.469C297.985 575.207 297.646 576.928 296.984 578.534C296.321 580.139 295.348 581.598 294.121 582.827C292.894 584.055 291.436 585.029 289.832 585.692C288.227 586.355 286.508 586.694 284.772 586.69Z" fill="#252B31"/>
<path d="M297.984 573.492C297.984 576.107 297.209 578.663 295.758 580.837C294.306 583.011 292.244 584.706 289.83 585.707C287.416 586.707 284.761 586.969 282.198 586.459C279.636 585.949 277.282 584.69 275.435 582.841C273.588 580.992 272.33 578.636 271.82 576.071C271.311 573.507 271.572 570.848 272.572 568.433C273.572 566.017 275.265 563.952 277.437 562.499C279.609 561.046 282.163 560.271 284.775 560.271C288.277 560.275 291.635 561.669 294.111 564.148C296.587 566.626 297.98 569.987 297.984 573.492Z" fill="white"/>
<path d="M232.136 293.388C231.744 293.39 231.356 293.306 231 293.142C230.644 292.977 230.328 292.736 230.075 292.437C221.689 282.54 221.772 268.858 225.645 259.686C226.334 258.043 227.192 256.476 228.203 255.01C225.58 251.999 222.293 249.64 218.602 248.12C208.858 244.305 195.325 245.687 184.131 251.648C184 251.73 183.853 251.785 183.699 251.808C183.546 251.831 183.389 251.822 183.239 251.782C183.089 251.742 182.949 251.672 182.827 251.575C182.706 251.479 182.605 251.358 182.532 251.221C182.459 251.084 182.415 250.933 182.402 250.779C182.39 250.624 182.409 250.468 182.459 250.321C182.509 250.174 182.589 250.039 182.694 249.924C182.798 249.809 182.925 249.717 183.067 249.653C194.819 243.39 209.092 241.955 219.425 246.004C223.317 247.594 226.8 250.042 229.615 253.166C233.658 248.302 239.001 244.691 245.02 242.756C256.1 239.107 269.12 241.441 277.423 248.573C277.651 248.773 277.791 249.056 277.81 249.359C277.83 249.663 277.729 249.961 277.529 250.19C277.328 250.418 277.046 250.558 276.743 250.577C276.44 250.597 276.142 250.496 275.913 250.296C268.192 243.662 256.047 241.494 245.722 244.909C239.985 246.749 234.909 250.225 231.117 254.912C233.535 257.938 235.433 261.347 236.732 264.997C238.352 269.387 238.996 274.078 238.619 278.743C238.242 283.407 236.854 287.933 234.551 292.006C234.334 292.389 234.028 292.713 233.658 292.953C233.289 293.192 232.868 293.339 232.43 293.381L232.136 293.388ZM229.705 256.823C228.942 258.009 228.28 259.257 227.728 260.555C224.158 269.092 224.037 281.807 231.804 290.971C231.849 291.025 231.908 291.067 231.973 291.094C232.039 291.12 232.111 291.13 232.181 291.122C232.255 291.116 232.327 291.092 232.39 291.052C232.453 291.013 232.505 290.959 232.543 290.895C234.684 287.103 235.973 282.889 236.321 278.547C236.669 274.204 236.068 269.838 234.559 265.753C233.417 262.541 231.779 259.527 229.705 256.823Z" fill="#252B31"/>
<path d="M189.838 358.05C189.722 358.197 189.568 358.31 189.393 358.375L188.758 358.632C171.164 365.718 140.452 380.058 126.322 398.454C126.194 398.612 126.073 398.779 125.953 398.937C125.848 399.078 125.711 399.193 125.554 399.272C125.396 399.35 125.223 399.391 125.047 399.39C124.802 399.389 124.564 399.31 124.368 399.164C124.229 399.059 124.116 398.925 124.035 398.771C123.999 398.688 123.968 398.602 123.945 398.514C123.91 398.357 123.909 398.193 123.943 398.036C123.977 397.878 124.044 397.729 124.141 397.6C124.564 397.033 125.009 396.467 125.462 395.908C140.475 377.444 171.232 363.233 188.555 356.298C188.789 356.2 189.049 356.184 189.292 356.253C189.536 356.322 189.75 356.471 189.898 356.677C190.047 356.882 190.122 357.132 190.111 357.386C190.1 357.639 190.004 357.881 189.838 358.073V358.05Z" fill="#252B31"/>
<path d="M276.224 585.776L275.657 585.973C255.58 592.863 233.706 595.039 214.18 595.039C194.366 595.033 174.605 592.99 155.208 588.942C154.939 588.882 154.702 588.723 154.544 588.496C135.991 562.53 132.134 534.759 132.172 516.038C132.187 508.843 132.752 501.66 133.863 494.552C134.516 490.059 135.474 485.617 136.731 481.255C136.816 480.987 136.998 480.761 137.241 480.62C137.484 480.479 137.77 480.433 138.045 480.491C138.319 480.55 138.563 480.708 138.727 480.936C138.892 481.163 138.966 481.444 138.935 481.724C138.933 481.793 138.921 481.862 138.897 481.927C138.852 482.063 134.459 496.168 134.437 516.113C134.437 534.396 138.165 561.442 156.137 586.819C161.752 588.073 223.177 601.03 273.68 584.258C274.284 584.061 274.888 583.858 275.484 583.646C275.652 583.586 275.833 583.567 276.01 583.591C276.187 583.614 276.356 583.68 276.503 583.782C276.697 583.921 276.845 584.116 276.925 584.341C277.022 584.625 277.002 584.935 276.87 585.204C276.739 585.473 276.506 585.679 276.224 585.776Z" fill="#252B31"/>
<path d="M282.185 356.177C233.23 396.429 188.969 357.325 188.969 357.325C196.585 354.303 201.627 352.618 201.627 352.618C201.627 352.618 241.087 375.6 269.912 351.327C274.137 352.581 278.244 354.204 282.185 356.177Z" fill="#252B31"/>
<path d="M283.308 356.041C283.289 355.876 283.234 355.717 283.147 355.576C283.059 355.435 282.942 355.315 282.802 355.225L282.674 355.157C278.774 353.211 274.72 351.593 270.552 350.322L270.212 350.231C270.036 350.182 269.85 350.176 269.671 350.216C269.492 350.255 269.325 350.339 269.186 350.458L268.318 351.213C243.485 371.128 210.576 356.018 203.549 352.399C202.711 351.969 202.236 351.697 202.198 351.644C202.06 351.565 201.906 351.515 201.748 351.498C201.589 351.481 201.429 351.497 201.277 351.546L201.073 351.621C200.07 351.954 195.277 353.585 188.552 356.282C188.373 356.354 188.216 356.471 188.094 356.62C187.973 356.77 187.892 356.948 187.859 357.138C187.826 357.328 187.841 357.523 187.904 357.705C187.967 357.887 188.076 358.05 188.219 358.179L188.755 358.64C197.09 365.25 206.666 370.116 216.916 372.949C222.91 374.612 229.099 375.46 235.318 375.472C249.033 375.472 265.397 371.249 282.342 357.514L282.908 357.061C283.056 356.939 283.17 356.781 283.24 356.603C283.31 356.424 283.333 356.231 283.308 356.041ZM217.641 370.78C208.093 368.101 199.132 363.653 191.223 357.665C196.507 355.595 200.281 354.288 201.549 353.85C208.848 357.731 216.671 360.53 224.774 362.16C242.519 365.734 258.219 362.409 270.22 352.558C273.606 353.593 276.911 354.878 280.107 356.403C260.49 371.959 239.485 376.786 217.611 370.78H217.641Z" fill="#252B31"/>
<path d="M379.817 499.727C379.728 499.849 379.615 499.952 379.485 500.03C379.356 500.108 379.212 500.159 379.062 500.18C377.915 500.321 376.782 500.472 375.665 500.633L373.401 500.966C346.825 505.075 329.087 513.673 319.811 519.256C318.988 519.755 318.226 520.23 317.547 520.669C315.836 521.756 314.181 522.928 312.588 524.182L312.248 524.461C312.041 524.646 311.771 524.746 311.493 524.741C311.33 524.74 311.169 524.705 311.021 524.637C310.872 524.569 310.74 524.471 310.633 524.348C310.437 524.121 310.34 523.826 310.361 523.527C310.382 523.229 310.52 522.951 310.746 522.754C310.784 522.754 311.501 522.142 312.791 521.167C319.177 516.521 340.53 502.9 377.515 498.08C375.462 487.813 359.679 413.511 327.2 385.112C326.008 384.258 301.538 366.874 282.313 357.506L281.671 357.197C281.518 357.126 281.384 357.02 281.279 356.887C281.144 356.722 281.059 356.522 281.033 356.311C281.008 356.1 281.043 355.885 281.136 355.693C281.266 355.423 281.498 355.215 281.781 355.116C282.064 355.017 282.375 355.034 282.645 355.164L282.773 355.232C302.677 364.804 328.31 383.125 328.566 383.306L328.65 383.374C364.011 414.251 379.809 498.012 379.975 498.858C380.008 499.006 380.011 499.159 379.983 499.308C379.956 499.457 379.899 499.6 379.817 499.727Z" fill="#252B31"/>
<path d="M312.822 521.167C313.849 504.713 312.068 484.904 302.565 466.681L307.894 446.329L305.705 445.755L300.98 463.78C297.707 458.084 293.766 452.799 289.243 448.036L287.612 449.592C310.943 474.236 312.573 506.42 309.826 529.077C308.088 542.825 304.67 556.308 299.651 569.223C298.876 566.518 297.381 564.075 295.325 562.155C293.27 560.235 290.732 558.91 287.982 558.322C293.183 531.003 277.551 497.883 276.872 496.425L274.834 497.4C274.992 497.747 290.858 531.396 285.74 558.02C285.423 558.02 285.099 558.02 284.774 558.02C281.878 558.015 279.039 558.83 276.585 560.369L243.306 514.171L241.472 515.493L274.758 561.714C271.7 564.306 269.769 567.989 269.377 571.981C239.253 570.017 214.7 548.652 214.458 548.44L212.949 550.14C213.205 550.359 238.355 572.276 269.316 574.255C269.504 578.004 271.053 581.555 273.671 584.243C223.169 601.014 161.744 588.02 156.128 586.804C138.157 561.457 134.406 534.381 134.428 516.098C134.428 496.153 138.844 482.048 138.889 481.912C138.912 481.847 138.925 481.778 138.927 481.708C140.413 476.581 141.411 471.324 141.908 466.009C143.658 446.626 139.937 427.141 131.167 409.771C129.286 406.111 127.661 402.325 126.307 398.439C140.444 380.088 171.164 365.734 188.758 358.632C197.092 365.242 206.669 370.108 216.919 372.941C222.912 374.604 229.101 375.453 235.321 375.464C249.035 375.464 265.399 371.241 282.344 357.506C301.599 366.874 326.039 384.258 327.231 385.112C359.687 413.51 375.492 487.812 377.545 498.079C340.568 502.899 319.208 516.521 312.822 521.167Z" fill="white"/>
<path d="M141.922 466.002C141.425 471.317 140.427 476.573 138.941 481.701C137.666 486.134 135.97 490.434 133.876 494.544C129.68 502.872 123.611 510.113 116.146 515.697C115.952 515.84 115.716 515.917 115.475 515.917C115.333 515.918 115.192 515.892 115.059 515.841C114.614 515.66 104.017 511.376 93.9254 499.288C84.6264 488.168 74.0745 468.072 76.6332 435.495C76.6332 435.495 76.6332 435.435 76.6332 435.412C76.6936 434.997 83.1848 394.2 93.3216 371.657C103.134 349.748 96.4162 334.6 96.3407 334.449C96.3377 334.424 96.3377 334.399 96.3407 334.373L86.3021 307.69C83.8802 301.436 83.7918 294.519 86.053 288.206C87.6224 283.645 90.7112 279.764 94.801 277.213C95.5289 276.771 96.2853 276.377 97.0653 276.035C99.1562 275.118 101.368 274.504 103.632 274.214C104.387 274.108 105.142 274.025 105.896 273.98L106.712 273.935H107.572C107.61 273.935 108.206 273.935 109.149 274.086C111.665 274.425 114.11 275.17 116.388 276.292C117.064 276.634 117.717 277.02 118.343 277.448C121.603 279.714 124.381 283.356 124.381 289.362V289.49C124.381 289.791 124.262 290.079 124.049 290.291C123.837 290.504 123.549 290.623 123.249 290.623C122.949 290.623 122.661 290.504 122.448 290.291C122.236 290.079 122.117 289.791 122.117 289.49C122.127 288.27 121.982 287.054 121.687 285.871C121.311 284.41 120.65 283.037 119.742 281.833C118.834 280.628 117.696 279.616 116.395 278.853L115.897 278.551C113.3 277.155 110.426 276.352 107.481 276.201H107.413C106.545 276.201 105.7 276.269 104.877 276.345H104.817C101.916 276.591 99.0927 277.415 96.5143 278.77L96.2954 278.898C92.5366 281.019 89.8043 284.383 88.0985 288.991C86.0331 294.796 86.1215 301.151 88.3475 306.896L98.3711 333.535C98.8617 334.63 105.459 350.072 95.352 372.593C85.4793 394.503 79.0787 434.196 78.8372 435.722C76.3539 467.452 86.5436 486.951 95.5331 497.732C103.979 507.871 112.984 512.426 115.301 513.484C145.077 490.948 145.704 442.793 129.174 410.806C127.17 406.925 125.452 402.903 124.034 398.771C123.997 398.688 123.967 398.602 123.943 398.514C113.112 366.89 120.773 335.227 121.151 333.731C122.864 326.856 118.886 315.721 118.577 314.844V314.784C118.553 314.719 118.533 314.654 118.516 314.587C118.498 314.46 118.498 314.33 118.516 314.202C118.538 314.057 118.589 313.918 118.667 313.794L118.713 313.726L118.765 313.666C118.781 313.633 118.805 313.605 118.833 313.582C118.863 313.551 118.896 313.523 118.932 313.499L119.075 313.401H119.143H119.218L119.415 313.341C119.542 313.318 119.672 313.318 119.8 313.341C120 313.375 120.188 313.463 120.343 313.596C120.497 313.729 120.612 313.902 120.675 314.096C120.675 314.202 120.939 314.806 121.256 315.766C122.441 319.422 124.902 328.231 123.355 334.411C123 335.854 115.807 365.703 125.468 396.044C125.732 396.897 126.019 397.759 126.328 398.612C127.683 402.498 129.307 406.285 131.189 409.945C139.922 427.262 143.64 446.68 141.922 466.002Z" fill="#252B31"/>
<path d="M125.882 297.959C125.882 298.072 125.882 298.186 125.882 298.307C125.856 298.588 125.727 298.849 125.519 299.041C125.311 299.232 125.04 299.339 124.758 299.342H124.652C124.477 299.329 124.307 299.275 124.157 299.182C124.007 299.09 123.882 298.964 123.791 298.813C123.66 298.603 123.602 298.356 123.625 298.11C123.735 297.002 123.735 295.886 123.625 294.779C123.441 292.458 122.539 290.253 121.044 288.47C119.85 287.182 118.412 286.143 116.815 285.413C115.218 284.683 113.492 284.277 111.737 284.217C102.899 283.65 98.8532 292.708 98.6872 293.101C98.5588 293.362 98.3351 293.564 98.0622 293.665C97.7894 293.765 97.4884 293.757 97.2216 293.641C96.9548 293.526 96.7426 293.312 96.629 293.044C96.5155 292.776 96.5092 292.475 96.6115 292.202C96.8002 291.757 101.419 281.27 111.881 281.958C115.497 282.122 118.953 283.497 121.693 285.864C122.79 286.859 123.702 288.041 124.388 289.354C125.691 292.023 126.209 295.007 125.882 297.959Z" fill="#252B31"/>
<path d="M127.146 306.912C127.146 307.085 127.07 307.259 127.025 307.433C126.962 307.673 126.821 307.886 126.624 308.037C126.428 308.189 126.187 308.271 125.938 308.271C125.839 308.27 125.74 308.257 125.644 308.234C125.405 308.168 125.193 308.028 125.04 307.833C124.938 307.697 124.869 307.538 124.838 307.371C124.806 307.203 124.813 307.031 124.859 306.866C125.054 306.139 125.163 305.391 125.184 304.638C125.259 301.779 124.269 298.994 122.406 296.826C121.379 295.579 120.058 294.607 118.563 293.996C117.068 293.386 115.445 293.156 113.839 293.328C105.831 294.235 103.136 303.98 103.114 304.078C103.036 304.369 102.847 304.617 102.587 304.768C102.328 304.919 102.019 304.96 101.728 304.883C101.438 304.806 101.19 304.617 101.04 304.357C100.889 304.097 100.848 303.787 100.925 303.497C101.045 303.028 104.027 292.165 113.59 291.077C115.435 290.871 117.302 291.1 119.042 291.746C120.783 292.391 122.348 293.435 123.614 294.794C123.787 294.975 123.953 295.164 124.119 295.353C125.472 296.925 126.447 298.786 126.97 300.793C127.494 302.801 127.551 304.901 127.138 306.934L127.146 306.912Z" fill="#252B31"/>
<path d="M103.565 274.222C101.3 274.512 99.0889 275.125 96.998 276.042C96.9301 263.396 97.7528 249.676 99.2624 247.893C99.5279 247.959 99.7658 248.107 99.9417 248.316C103.187 251.61 103.663 267.301 103.565 274.222Z" fill="white"/>
<path d="M105.827 273.987C105.827 274.577 105.827 275.007 105.827 275.249C105.822 275.508 105.728 275.757 105.56 275.954C105.392 276.151 105.161 276.284 104.906 276.329H104.846H104.665C104.516 276.326 104.37 276.292 104.234 276.232C104.098 276.171 103.975 276.084 103.873 275.976C103.771 275.868 103.69 275.741 103.637 275.602C103.584 275.463 103.559 275.315 103.563 275.166C103.563 274.864 103.563 274.547 103.563 274.199C103.653 267.279 103.178 251.587 99.9624 248.293C99.7865 248.084 99.5486 247.936 99.2831 247.87C97.7735 249.653 96.9281 263.373 97.0187 276.02C97.0187 276.624 97.0187 277.221 97.0187 277.818C97.0227 277.997 96.9829 278.175 96.9027 278.336C96.8224 278.496 96.7042 278.635 96.5583 278.739L96.3394 278.868C96.2053 278.923 96.0617 278.951 95.9167 278.951C95.619 278.951 95.3333 278.834 95.1214 278.624C94.9095 278.415 94.7885 278.131 94.7845 277.833C94.7845 277.644 94.7845 277.432 94.7845 277.183C94.7242 271.268 94.7468 249.276 97.8037 246.208C97.976 246.018 98.1855 245.866 98.4193 245.761C98.6531 245.655 98.906 245.599 99.1623 245.596C99.6273 245.603 100.086 245.706 100.509 245.898C100.933 246.09 101.312 246.368 101.623 246.714C105.767 251.021 105.895 268.722 105.827 273.987Z" fill="#252B31"/>
<path d="M116.336 276.277C114.058 275.155 111.614 274.41 109.098 274.071C110.841 270.331 114.66 263.834 117.974 265.005C118.325 265.102 118.646 265.285 118.91 265.537C119.173 265.789 119.37 266.101 119.484 266.448C120.336 269.032 117.861 273.821 116.336 276.277Z" fill="white"/>
<path d="M118.292 277.433C117.99 277.908 117.771 278.241 117.673 278.384C117.57 278.538 117.431 278.664 117.267 278.751C117.104 278.838 116.922 278.883 116.737 278.883C116.508 278.882 116.285 278.814 116.095 278.687C116.032 278.643 115.974 278.592 115.922 278.536C115.742 278.347 115.631 278.103 115.609 277.843C115.587 277.583 115.655 277.324 115.801 277.108C115.959 276.881 116.141 276.594 116.337 276.277C117.846 273.821 120.337 268.994 119.492 266.455C119.378 266.109 119.181 265.796 118.918 265.544C118.655 265.293 118.333 265.11 117.982 265.012C114.669 263.864 110.85 270.361 109.106 274.078C108.849 274.615 108.646 275.091 108.487 275.483C108.403 275.692 108.26 275.871 108.074 275.997C107.889 276.123 107.67 276.192 107.445 276.194C107.298 276.195 107.152 276.167 107.015 276.11C106.872 276.056 106.742 275.973 106.632 275.866C106.522 275.76 106.435 275.632 106.375 275.491C106.316 275.349 106.286 275.198 106.287 275.044C106.288 274.891 106.32 274.74 106.381 274.599C106.434 274.463 106.532 274.229 106.668 273.912C107.966 270.89 112.85 260.767 118.745 262.806C119.425 263.019 120.045 263.391 120.553 263.892C121.061 264.392 121.442 265.007 121.666 265.685C122.866 269.432 119.718 275.128 118.292 277.433Z" fill="#252B31"/>
<path d="M375.184 561.404C375.191 561.457 375.191 561.51 375.184 561.563C371.455 575.554 367.923 585.323 360.45 595.673C360.08 596.194 359.695 596.708 359.31 597.229C359.207 597.372 359.07 597.487 358.913 597.566C358.755 597.645 358.581 597.685 358.405 597.683C358.16 597.682 357.922 597.602 357.725 597.456C357.486 597.275 357.329 597.006 357.288 596.708C357.247 596.411 357.326 596.109 357.507 595.869C357.552 595.817 357.59 595.756 357.627 595.703C365.568 585.126 369.161 575.305 372.98 561.057C376.105 534.736 373.946 506.979 373.418 500.981C373.35 500.225 373.312 499.832 373.304 499.794C373.273 499.494 373.363 499.193 373.553 498.959C373.744 498.724 374.019 498.575 374.32 498.544C374.62 498.513 374.92 498.603 375.154 498.793C375.389 498.984 375.538 499.26 375.569 499.56C375.569 499.56 375.614 499.968 375.674 500.648C376.15 506.458 378.376 534.66 375.184 561.404Z" fill="#252B31"/>
<path d="M317.253 561.404C317.246 561.481 317.231 561.557 317.208 561.631C312.679 575.29 307.562 586.796 302.112 595.87C301.856 596.3 301.599 596.723 301.358 597.146C301.258 597.311 301.117 597.447 300.949 597.541C300.781 597.635 300.591 597.683 300.399 597.683C300.188 597.685 299.98 597.624 299.803 597.509C299.676 597.432 299.565 597.33 299.478 597.209C299.391 597.089 299.329 596.952 299.295 596.807C299.261 596.662 299.257 596.512 299.282 596.365C299.307 596.218 299.361 596.078 299.44 595.953L299.516 595.832C305.132 586.766 310.362 575.048 315.057 561.019C316.613 547.628 317.462 534.164 317.601 520.684C317.601 519.603 317.601 519.007 317.601 518.976C317.594 518.68 317.704 518.393 317.905 518.176C318.106 517.959 318.384 517.828 318.68 517.813C318.979 517.813 319.266 517.931 319.478 518.142C319.69 518.353 319.81 518.639 319.812 518.939V519.256C319.741 533.342 318.887 547.413 317.253 561.404Z" fill="#252B31"/>
<path d="M205.611 268.042C200.674 268.042 195.889 265.775 191.39 261.424C191.179 261.21 191.057 260.924 191.051 260.623C191.049 260.474 191.078 260.326 191.135 260.188C191.192 260.051 191.276 259.926 191.383 259.822C191.632 259.558 197.738 253.476 206.026 253.476H206.064C211.007 253.476 215.634 255.659 219.823 259.935C220.014 260.139 220.124 260.405 220.131 260.684C220.138 260.962 220.042 261.234 219.861 261.446C219.635 261.703 214.223 267.709 206.207 267.997L205.611 268.042ZM193.859 260.631C197.814 264.189 201.935 265.919 206.132 265.76C211.574 265.564 215.755 262.262 217.4 260.736C213.876 257.435 210.064 255.758 206.079 255.742C200.357 255.742 195.715 259.082 193.859 260.631Z" fill="#252B31"/>
<path d="M211.499 260.759C211.5 261.92 211.158 263.056 210.514 264.022C209.871 264.989 208.955 265.742 207.884 266.188C206.812 266.633 205.633 266.75 204.495 266.525C203.357 266.299 202.311 265.741 201.49 264.92C200.669 264.099 200.11 263.053 199.883 261.914C199.656 260.776 199.772 259.595 200.215 258.522C200.659 257.449 201.411 256.532 202.375 255.886C203.34 255.241 204.474 254.896 205.634 254.896C206.404 254.895 207.166 255.046 207.878 255.34C208.589 255.635 209.236 256.066 209.781 256.611C210.325 257.155 210.758 257.802 211.052 258.514C211.347 259.225 211.499 259.988 211.499 260.759Z" fill="#252B31"/>
<path d="M255.963 267.596H255.367C247.359 267.309 241.947 261.303 241.72 261.054C241.541 260.841 241.447 260.569 241.453 260.291C241.46 260.013 241.569 259.747 241.758 259.543C245.947 255.267 250.574 253.098 255.518 253.091C263.821 253.091 269.912 259.135 270.168 259.429C270.381 259.643 270.5 259.932 270.5 260.234C270.5 260.535 270.381 260.825 270.168 261.039C265.685 265.375 260.907 267.596 255.963 267.596ZM244.181 260.291C245.834 261.802 250.038 265.133 255.503 265.322C259.692 265.466 263.806 263.743 267.746 260.192C265.889 258.636 261.232 255.304 255.578 255.304H255.533C251.503 255.312 247.729 256.989 244.181 260.291Z" fill="#252B31"/>
<path d="M255.986 266.176C259.221 266.176 261.843 263.551 261.843 260.313C261.843 257.075 259.221 254.451 255.986 254.451C252.751 254.451 250.129 257.075 250.129 260.313C250.129 263.551 252.751 266.176 255.986 266.176Z" fill="#252B31"/>
<path d="M222.754 304.728C222.754 304.728 232.068 321.757 243.511 304.728C243.511 304.759 234.332 298.533 222.754 304.728Z" fill="#252B31"/>
<path d="M115.308 513.492C112.991 512.434 103.986 507.878 95.5399 497.74C86.5504 486.959 76.3608 467.445 78.844 435.729C79.0855 434.218 85.4862 394.548 95.3588 372.601C105.48 350.08 98.8836 334.638 98.3779 333.542L88.3544 306.904C86.1283 301.159 86.0399 294.804 88.1053 288.999C89.806 284.401 92.5384 281.036 96.3023 278.906L96.5212 278.777C99.0995 277.423 101.922 276.598 104.824 276.352H104.884C105.707 276.277 106.552 276.224 107.42 276.209H107.488C110.433 276.36 113.307 277.162 115.904 278.558C115.956 278.615 116.015 278.665 116.078 278.709C116.177 278.776 116.287 278.827 116.402 278.86C119.004 280.414 120.883 282.939 121.625 285.879C118.885 283.512 115.429 282.137 111.813 281.973C101.352 281.285 96.7174 291.794 96.5438 292.217C96.4415 292.49 96.4478 292.791 96.5614 293.059C96.6749 293.327 96.8871 293.541 97.1539 293.656C97.4207 293.772 97.7217 293.78 97.9946 293.68C98.2674 293.579 98.4911 293.377 98.6195 293.116C98.7855 292.724 102.831 283.665 111.67 284.232C113.425 284.292 115.15 284.698 116.747 285.428C118.345 286.158 119.782 287.197 120.976 288.485C122.471 290.268 123.373 292.473 123.558 294.794C122.292 293.435 120.727 292.391 118.986 291.746C117.246 291.1 115.379 290.871 113.534 291.077C103.971 292.157 100.989 303.028 100.869 303.497C100.792 303.787 100.833 304.097 100.984 304.357C101.135 304.617 101.382 304.806 101.673 304.883C101.963 304.96 102.272 304.919 102.532 304.768C102.791 304.617 102.981 304.369 103.058 304.078C103.058 303.98 105.775 294.257 113.783 293.328C115.389 293.156 117.012 293.386 118.507 293.996C120.002 294.607 121.323 295.579 122.35 296.826C124.213 298.994 125.203 301.779 125.128 304.638C123.945 303.605 122.549 302.845 121.04 302.413C119.53 301.981 117.945 301.887 116.395 302.137C109.692 303.172 108.047 309.971 108.092 313.416C108.093 313.565 108.124 313.712 108.182 313.849C108.241 313.986 108.326 314.109 108.433 314.213C108.539 314.316 108.666 314.397 108.804 314.451C108.943 314.505 109.091 314.531 109.239 314.527C109.54 314.521 109.827 314.396 110.036 314.179C110.245 313.963 110.36 313.672 110.356 313.371C110.356 313.046 110.296 305.37 116.712 304.381C118.271 304.112 119.875 304.291 121.337 304.899C122.798 305.506 124.058 306.515 124.969 307.811C125.676 308.724 126.029 309.861 125.965 311.014C125.938 311.3 125.849 311.576 125.706 311.825C125.563 312.074 125.368 312.289 125.135 312.457C123.678 313.545 120.735 313.356 119.723 313.212C119.596 313.19 119.466 313.19 119.338 313.212C119.155 313.246 118.983 313.327 118.84 313.446C118.803 313.468 118.769 313.496 118.742 313.53C118.713 313.552 118.69 313.58 118.674 313.613C118.633 313.648 118.6 313.692 118.576 313.741C118.498 313.865 118.447 314.004 118.425 314.149C118.406 314.277 118.406 314.407 118.425 314.534C118.437 314.602 118.457 314.668 118.485 314.731V314.791C118.81 315.69 122.773 326.826 121.059 333.678C120.682 335.189 113.021 366.837 123.852 398.461C123.875 398.549 123.906 398.635 123.943 398.718C125.361 402.85 127.079 406.872 129.083 410.753C145.703 442.793 145.077 490.948 115.308 513.492Z" fill="white"/>
<path d="M128.284 311.339C128.213 311.925 128.022 312.491 127.724 313C127.425 313.51 127.025 313.952 126.548 314.3C125.064 315.24 123.327 315.699 121.573 315.615H121.249C120.64 315.608 120.032 315.558 119.43 315.464C119.244 315.435 119.068 315.36 118.919 315.245C118.77 315.13 118.652 314.979 118.577 314.806V314.746C118.553 314.682 118.533 314.616 118.517 314.55C118.498 314.422 118.498 314.292 118.517 314.164C118.538 314.019 118.59 313.88 118.668 313.756C118.694 313.709 118.727 313.665 118.766 313.628C118.782 313.595 118.805 313.567 118.834 313.545C118.863 313.513 118.896 313.485 118.932 313.462C119.015 313.388 119.113 313.331 119.219 313.295L119.415 313.235C119.542 313.212 119.672 313.212 119.8 313.235C120.811 313.394 123.755 313.583 125.212 312.48C125.445 312.312 125.639 312.097 125.782 311.848C125.926 311.599 126.014 311.322 126.042 311.037C126.106 309.884 125.752 308.746 125.046 307.833C124.134 306.538 122.875 305.528 121.413 304.921C119.951 304.314 118.348 304.135 116.788 304.403C110.372 305.393 110.425 313.069 110.433 313.394C110.437 313.695 110.322 313.986 110.112 314.202C109.903 314.419 109.617 314.544 109.316 314.55C109.167 314.554 109.019 314.528 108.881 314.474C108.742 314.42 108.616 314.339 108.509 314.236C108.402 314.132 108.317 314.008 108.258 313.872C108.2 313.735 108.169 313.588 108.168 313.439C108.093 309.994 109.738 303.195 116.471 302.16C118.022 301.904 119.609 301.994 121.121 302.422C122.633 302.85 124.032 303.607 125.219 304.638C125.385 304.774 125.544 304.925 125.695 305.076C126.269 305.633 126.776 306.257 127.204 306.934C128.053 308.237 128.434 309.791 128.284 311.339Z" fill="#252B31"/>
<path d="M372.948 561.042C369.128 575.328 365.536 585.111 357.595 595.688C340.326 595.87 317.131 596.043 302.096 595.854C307.56 586.789 312.663 575.275 317.191 561.616C317.214 561.542 317.229 561.466 317.237 561.389C318.877 547.403 319.739 533.337 319.818 519.256C329.057 513.673 346.794 505.075 373.408 500.966C373.914 506.964 376.042 534.721 372.948 561.042Z" fill="white"/>
</svg>
